<svg width="20" height="20" viewBox="0 0 20 20" fill="none" xmlns="http://www.w3.org/2000/svg">
<path d="M10 20C8.63333 20 7.34167 19.7375 6.125 19.2125C4.90833 18.6875 3.84583 17.9708 2.9375 17.0625C2.02917 16.1542 1.3125 15.0917 0.7875 13.875C0.2625 12.6583 0 11.3667 0 10C0 8.61667 0.2625 7.32083 0.7875 6.1125C1.3125 4.90417 2.02917 3.84583 2.9375 2.9375C3.84583 2.02917 4.90833 1.3125 6.125 0.7875C7.34167 0.2625 8.63333 0 10 0C11.3833 0 12.6792 0.2625 13.8875 0.7875C15.0958 1.3125 16.1542 2.02917 17.0625 2.9375C17.9708 3.84583 18.6875 4.90417 19.2125 6.1125C19.7375 7.32083 20 8.61667 20 10C20 11.3667 19.7375 12.6583 19.2125 13.875C18.6875 15.0917 17.9708 16.1542 17.0625 17.0625C16.1542 17.9708 15.0958 18.6875 13.8875 19.2125C12.6792 19.7375 11.3833 20 10 20ZM15.125 7.675L16.85 7.075L17.3 5.475C16.7333 4.59167 16.0333 3.8375 15.2 3.2125C14.3667 2.5875 13.425 2.10833 12.375 1.775L10.75 2.85V4.6L15.125 7.675ZM4.9 7.675L9.25 4.6V2.85L7.65 1.775C6.6 2.10833 5.65833 2.5875 4.825 3.2125C3.99167 3.8375 3.29167 4.59167 2.725 5.475L3.275 7.075L4.9 7.675ZM3.55 15.675L5.05 15.5L6.025 13.875L4.475 9.1L2.7 8.5L1.5 9.475C1.5 10.675 1.63333 11.7708 1.9 12.7625C2.16667 13.7542 2.71667 14.725 3.55 15.675ZM10 18.5C10.45 18.5 10.9042 18.4583 11.3625 18.375C11.8208 18.2917 12.3 18.1833 12.8 18.05L13.625 16.25L12.825 14.875H7.2L6.4 16.25L7.225 18.05C7.65833 18.1833 8.11667 18.2917 8.6 18.375C9.08333 18.4583 9.55 18.5 10 18.5ZM7.35 13.375H12.55L14.075 8.8L10 5.875L5.85 8.8L7.35 13.375ZM16.475 15.675C17.2917 14.725 17.8333 13.7542 18.1 12.7625C18.3667 11.7708 18.5 10.675 18.5 9.475L17.3 8.65L15.55 9.1L14 13.875L14.95 15.5L16.475 15.675Z" fill="#373737"/>
</svg>
