<svg width="16" height="22" viewBox="0 0 16 22" fill="none" xmlns="http://www.w3.org/2000/svg">
<path d="M8 17.3083C10.0222 15.675 11.5486 14.1048 12.5792 12.5979C13.6097 11.091 14.125 9.68609 14.125 8.38331C14.125 7.23609 13.916 6.26387 13.4979 5.46665C13.0799 4.66942 12.5646 4.01804 11.9521 3.51248C11.3396 3.00692 10.6736 2.64234 9.95417 2.41873C9.23472 2.19512 8.58333 2.08331 8 2.08331C7.41667 2.08331 6.76528 2.19512 6.04583 2.41873C5.32639 2.64234 4.66042 3.00692 4.04792 3.51248C3.43542 4.01804 2.92014 4.66942 2.50208 5.46665C2.08403 6.26387 1.875 7.23609 1.875 8.38331C1.875 9.68609 2.39028 11.091 3.42083 12.5979C4.45139 14.1048 5.97778 15.675 8 17.3083ZM8 19.525C5.33611 17.5222 3.35764 15.6069 2.06458 13.7791C0.771528 11.9514 0.125 10.1528 0.125 8.38331C0.125 7.06109 0.363195 5.89929 0.839584 4.8979C1.31597 3.89651 1.93333 3.05554 2.69167 2.37498C3.45 1.69442 4.29583 1.18401 5.22917 0.84373C6.1625 0.503452 7.08611 0.333313 8 0.333313C8.91389 0.333313 9.8375 0.503452 10.7708 0.84373C11.7042 1.18401 12.55 1.69442 13.3083 2.37498C14.0667 3.05554 14.684 3.89651 15.1604 4.8979C15.6368 5.89929 15.875 7.06109 15.875 8.38331C15.875 10.1528 15.2285 11.9514 13.9354 13.7791C12.6424 15.6069 10.6639 17.5222 8 19.525ZM8 10.25C8.56389 10.25 9.04514 10.0507 9.44375 9.65206C9.84236 9.25345 10.0417 8.7722 10.0417 8.20831C10.0417 7.64442 9.84236 7.16317 9.44375 6.76456C9.04514 6.36595 8.56389 6.16665 8 6.16665C7.43611 6.16665 6.95486 6.36595 6.55625 6.76456C6.15764 7.16317 5.95833 7.64442 5.95833 8.20831C5.95833 8.7722 6.15764 9.25345 6.55625 9.65206C6.95486 10.0507 7.43611 10.25 8 10.25ZM0.125 23.6666V21.9166H15.875V23.6666H0.125Z" fill="#373737"/>
</svg>
