<svg width="22" height="18" viewBox="0 0 22 18" fill="none" xmlns="http://www.w3.org/2000/svg">
<path d="M13.0004 18C11.7171 18 10.4921 17.7375 9.32539 17.2125C8.15872 16.6875 7.14206 15.95 6.27539 15L7.35039 13.925C8.10039 14.725 8.95872 15.3542 9.92539 15.8125C10.8921 16.2708 11.9171 16.5 13.0004 16.5C15.0837 16.5 16.8546 15.7667 18.3129 14.3C19.7712 12.8333 20.5004 11.0583 20.5004 8.975C20.5004 6.89167 19.7712 5.125 18.3129 3.675C16.8546 2.225 15.0837 1.5 13.0004 1.5C10.8671 1.5 9.08372 2.2375 7.65039 3.7125C6.21706 5.1875 5.50039 7.075 5.50039 9.375L7.67539 7.2L8.75039 8.275L4.77539 12.25L0.775391 8.25L1.85039 7.175L4.00039 9.325C4.00039 7.99167 4.23372 6.75417 4.70039 5.6125C5.16706 4.47083 5.80456 3.48333 6.61289 2.65C7.42122 1.81667 8.37539 1.16667 9.47539 0.7C10.5754 0.233333 11.7504 0 13.0004 0C14.2504 0 15.4212 0.2375 16.5129 0.7125C17.6046 1.1875 18.5546 1.82917 19.3629 2.6375C20.1712 3.44583 20.8129 4.39583 21.2879 5.4875C21.7629 6.57917 22.0004 7.75 22.0004 9C22.0004 10.25 21.7629 11.4208 21.2879 12.5125C20.8129 13.6042 20.1712 14.5542 19.3629 15.3625C18.5546 16.1708 17.6046 16.8125 16.5129 17.2875C15.4212 17.7625 14.2504 18 13.0004 18ZM16.0254 13.075L12.1754 9.275V3.925H13.6754V8.65L17.1004 12L16.0254 13.075Z" fill="#373737"/>
</svg>
