<svg width="32" height="32" viewBox="0 0 32 32" fill="none" xmlns="http://www.w3.org/2000/svg">
<rect width="32" height="32" rx="16" fill="#DCDCDC"/>
<path d="M14.5547 14.6016H15.5859C16.0911 14.6016 16.5078 14.5182 16.8359 14.3516C17.1693 14.1797 17.4167 13.9479 17.5781 13.6562C17.7448 13.3594 17.8281 13.026 17.8281 12.6562C17.8281 12.2188 17.7552 11.8516 17.6094 11.5547C17.4635 11.2578 17.2448 11.0339 16.9531 10.8828C16.6615 10.7318 16.2917 10.6562 15.8438 10.6562C15.4375 10.6562 15.0781 10.737 14.7656 10.8984C14.4583 11.0547 14.2161 11.2786 14.0391 11.5703C13.8672 11.862 13.7812 12.2057 13.7812 12.6016H12.3359C12.3359 12.0234 12.4818 11.4974 12.7734 11.0234C13.0651 10.5495 13.474 10.1719 14 9.89062C14.5312 9.60938 15.1458 9.46875 15.8438 9.46875C16.5312 9.46875 17.1328 9.59115 17.6484 9.83594C18.1641 10.0755 18.5651 10.4349 18.8516 10.9141C19.138 11.388 19.2812 11.9792 19.2812 12.6875C19.2812 12.974 19.2135 13.2812 19.0781 13.6094C18.9479 13.9323 18.7422 14.2344 18.4609 14.5156C18.1849 14.7969 17.8255 15.0286 17.3828 15.2109C16.9401 15.388 16.4089 15.4766 15.7891 15.4766H14.5547V14.6016ZM14.5547 15.7891V14.9219H15.7891C16.513 14.9219 17.112 15.0078 17.5859 15.1797C18.0599 15.3516 18.4323 15.5807 18.7031 15.8672C18.9792 16.1536 19.1719 16.4688 19.2812 16.8125C19.3958 17.151 19.4531 17.4896 19.4531 17.8281C19.4531 18.3594 19.362 18.8307 19.1797 19.2422C19.0026 19.6536 18.75 20.0026 18.4219 20.2891C18.099 20.5755 17.7188 20.7917 17.2812 20.9375C16.8438 21.0833 16.3672 21.1562 15.8516 21.1562C15.3568 21.1562 14.8906 21.0859 14.4531 20.9453C14.0208 20.8047 13.638 20.6016 13.3047 20.3359C12.9714 20.0651 12.7109 19.7344 12.5234 19.3438C12.3359 18.9479 12.2422 18.4974 12.2422 17.9922H13.6875C13.6875 18.388 13.7734 18.7344 13.9453 19.0312C14.1224 19.3281 14.3724 19.5599 14.6953 19.7266C15.0234 19.888 15.4089 19.9688 15.8516 19.9688C16.2943 19.9688 16.6745 19.8932 16.9922 19.7422C17.3151 19.5859 17.5625 19.3516 17.7344 19.0391C17.9115 18.7266 18 18.3333 18 17.8594C18 17.3854 17.901 16.9974 17.7031 16.6953C17.5052 16.388 17.224 16.1615 16.8594 16.0156C16.5 15.8646 16.0755 15.7891 15.5859 15.7891H14.5547Z" fill="#444444"/>
</svg>
