<svg width="1200" height="328" viewBox="0 0 1200 328" fill="none" xmlns="http://www.w3.org/2000/svg">
<g clip-path="url(#clip0_1_11)">
<rect width="1200" height="328" rx="20" fill="#635EA3"/>
<circle cx="1098.5" cy="472.5" r="460.5" fill="#585398"/>
<circle cx="10.5" cy="-3" r="116.5" fill="#585398"/>
<circle cx="600" cy="357" r="214.5" stroke="#D0DBFF"/>
<circle cx="1126" cy="4" r="137.5" stroke="#D0DBFF"/>
<rect x="860" y="142" width="5.46269" height="5.46269" rx="2.58729" fill="#7D97F1"/>
<rect x="881.852" y="142" width="5.46269" height="5.46269" rx="2.58729" fill="#7D97F1"/>
<rect x="903.702" y="142" width="5.46269" height="5.46269" rx="2.58729" fill="#7D97F1"/>
<rect x="925.552" y="142" width="5.46269" height="5.46269" rx="2.58729" fill="#7D97F1"/>
<rect x="947.402" y="142" width="5.46269" height="5.46269" rx="2.58729" fill="#7D97F1"/>
<rect x="969.254" y="142" width="5.46269" height="5.46269" rx="2.58729" fill="#7D97F1"/>
<rect x="991.105" y="142" width="5.46269" height="5.46269" rx="2.58729" fill="#7D97F1"/>
<rect x="1012.96" y="142" width="5.46269" height="5.46269" rx="2.58729" fill="#7D97F1"/>
<rect x="1034.81" y="142" width="5.46269" height="5.46269" rx="2.58729" fill="#7D97F1"/>
<rect x="1056.66" y="142" width="5.46269" height="5.46269" rx="2.58729" fill="#7D97F1"/>
<rect x="860" y="164" width="5.46269" height="5.46269" rx="2.58729" fill="#7D97F1"/>
<rect x="881.852" y="163.851" width="5.46269" height="5.46269" rx="2.58729" fill="#7D97F1"/>
<rect x="903.702" y="163.851" width="5.46269" height="5.46269" rx="2.58729" fill="#7D97F1"/>
<rect x="925.552" y="163.851" width="5.46269" height="5.46269" rx="2.58729" fill="#7D97F1"/>
<rect x="947.402" y="163.851" width="5.46269" height="5.46269" rx="2.58729" fill="#7D97F1"/>
<rect x="969.254" y="163.851" width="5.46269" height="5.46269" rx="2.58729" fill="#7D97F1"/>
<rect x="991.105" y="163.851" width="5.46269" height="5.46269" rx="2.58729" fill="#7D97F1"/>
<rect x="1012.96" y="163.851" width="5.46269" height="5.46269" rx="2.58729" fill="#7D97F1"/>
<rect x="1034.81" y="163.851" width="5.46269" height="5.46269" rx="2.58729" fill="#7D97F1"/>
<rect x="1056.66" y="163.851" width="5.46269" height="5.46269" rx="2.58729" fill="#7D97F1"/>
<rect x="860" y="185.701" width="5.46269" height="5.46269" rx="2.58729" fill="#7D97F1"/>
<rect x="881.852" y="185.701" width="5.46269" height="5.46269" rx="2.58729" fill="#7D97F1"/>
<rect x="903.702" y="185.701" width="5.46269" height="5.46269" rx="2.58729" fill="#7D97F1"/>
<rect x="925.552" y="185.701" width="5.46269" height="5.46269" rx="2.58729" fill="#7D97F1"/>
<rect x="947.402" y="185.701" width="5.46269" height="5.46269" rx="2.58729" fill="#7D97F1"/>
<rect x="969.254" y="185.701" width="5.46269" height="5.46269" rx="2.58729" fill="#7D97F1"/>
<rect x="991.105" y="185.701" width="5.46269" height="5.46269" rx="2.58729" fill="#7D97F1"/>
<rect x="1012.96" y="185.701" width="5.46269" height="5.46269" rx="2.58729" fill="#7D97F1"/>
<rect x="1034.81" y="185.701" width="5.46269" height="5.46269" rx="2.58729" fill="#7D97F1"/>
<rect x="1056.66" y="185.701" width="5.46269" height="5.46269" rx="2.58729" fill="#7D97F1"/>
<rect x="860" y="207.553" width="5.46269" height="5.46269" rx="2.58729" fill="#7D97F1"/>
<rect x="881.852" y="207.553" width="5.46269" height="5.46269" rx="2.58729" fill="#7D97F1"/>
<rect x="903.702" y="207.553" width="5.46269" height="5.46269" rx="2.58729" fill="#7D97F1"/>
<rect x="925.552" y="207.553" width="5.46269" height="5.46269" rx="2.58729" fill="#7D97F1"/>
<rect x="947.402" y="207.553" width="5.46269" height="5.46269" rx="2.58729" fill="#7D97F1"/>
<rect x="969.254" y="207.553" width="5.46269" height="5.46269" rx="2.58729" fill="#7D97F1"/>
<rect x="991.105" y="207.553" width="5.46269" height="5.46269" rx="2.58729" fill="#7D97F1"/>
<rect x="1012.96" y="207.553" width="5.46269" height="5.46269" rx="2.58729" fill="#7D97F1"/>
<rect x="1034.81" y="207.553" width="5.46269" height="5.46269" rx="2.58729" fill="#7D97F1"/>
<rect x="1056.66" y="207.553" width="5.46269" height="5.46269" rx="2.58729" fill="#7D97F1"/>
<rect x="860" y="229.403" width="5.46269" height="5.46269" rx="2.58729" fill="#7D97F1"/>
<rect x="881.852" y="229.403" width="5.46269" height="5.46269" rx="2.58729" fill="#7D97F1"/>
<rect x="903.702" y="229.403" width="5.46269" height="5.46269" rx="2.58729" fill="#7D97F1"/>
<rect x="925.552" y="229.403" width="5.46269" height="5.46269" rx="2.58729" fill="#7D97F1"/>
<rect x="947.402" y="229.403" width="5.46269" height="5.46269" rx="2.58729" fill="#7D97F1"/>
<rect x="969.254" y="229.403" width="5.46269" height="5.46269" rx="2.58729" fill="#7D97F1"/>
<rect x="991.105" y="229.403" width="5.46269" height="5.46269" rx="2.58729" fill="#7D97F1"/>
<rect x="1012.96" y="229.403" width="5.46269" height="5.46269" rx="2.58729" fill="#7D97F1"/>
<rect x="1034.81" y="229.403" width="5.46269" height="5.46269" rx="2.58729" fill="#7D97F1"/>
<rect x="1056.66" y="229.403" width="5.46269" height="5.46269" rx="2.58729" fill="#7D97F1"/>
<rect x="860" y="251.254" width="5.46269" height="5.46269" rx="2.58729" fill="#7D97F1"/>
<rect x="881.852" y="251.254" width="5.46269" height="5.46269" rx="2.58729" fill="#7D97F1"/>
<rect x="903.702" y="251.254" width="5.46269" height="5.46269" rx="2.58729" fill="#7D97F1"/>
<rect x="925.552" y="251.254" width="5.46269" height="5.46269" rx="2.58729" fill="#7D97F1"/>
<rect x="947.402" y="251.254" width="5.46269" height="5.46269" rx="2.58729" fill="#7D97F1"/>
<rect x="969.254" y="251.254" width="5.46269" height="5.46269" rx="2.58729" fill="#7D97F1"/>
<rect x="991.105" y="251.254" width="5.46269" height="5.46269" rx="2.58729" fill="#7D97F1"/>
<rect x="1012.96" y="251.254" width="5.46269" height="5.46269" rx="2.58729" fill="#7D97F1"/>
<rect x="1034.81" y="251.254" width="5.46269" height="5.46269" rx="2.58729" fill="#7D97F1"/>
<rect x="1056.66" y="251.254" width="5.46269" height="5.46269" rx="2.58729" fill="#7D97F1"/>
<rect x="860" y="273.104" width="5.46269" height="5.46269" rx="2.58729" fill="#7D97F1"/>
<rect x="860" y="294.179" width="5.46269" height="5.46269" rx="2.58729" fill="#7D97F1"/>
<rect x="860" y="315.252" width="5.46269" height="5.46269" rx="2.58729" fill="#7D97F1"/>
<rect x="881.852" y="273.104" width="5.46269" height="5.46269" rx="2.58729" fill="#7D97F1"/>
<rect x="881.852" y="294.179" width="5.46269" height="5.46269" rx="2.58729" fill="#7D97F1"/>
<rect x="881.852" y="315.252" width="5.46269" height="5.46269" rx="2.58729" fill="#7D97F1"/>
<rect x="903.702" y="273.104" width="5.46269" height="5.46269" rx="2.58729" fill="#7D97F1"/>
<rect x="903.702" y="294.179" width="5.46269" height="5.46269" rx="2.58729" fill="#7D97F1"/>
<rect x="903.702" y="315.252" width="5.46269" height="5.46269" rx="2.58729" fill="#7D97F1"/>
<rect x="925.552" y="273.104" width="5.46269" height="5.46269" rx="2.58729" fill="#7D97F1"/>
<rect x="925.552" y="294.179" width="5.46269" height="5.46269" rx="2.58729" fill="#7D97F1"/>
<rect x="925.552" y="315.252" width="5.46269" height="5.46269" rx="2.58729" fill="#7D97F1"/>
<rect x="947.402" y="273.104" width="5.46269" height="5.46269" rx="2.58729" fill="#7D97F1"/>
<rect x="947.402" y="294.179" width="5.46269" height="5.46269" rx="2.58729" fill="#7D97F1"/>
<rect x="947.402" y="315.252" width="5.46269" height="5.46269" rx="2.58729" fill="#7D97F1"/>
<rect x="969.254" y="273.104" width="5.46269" height="5.46269" rx="2.58729" fill="#7D97F1"/>
<rect x="969.254" y="294.179" width="5.46269" height="5.46269" rx="2.58729" fill="#7D97F1"/>
<rect x="969.254" y="315.252" width="5.46269" height="5.46269" rx="2.58729" fill="#7D97F1"/>
<rect x="991.105" y="273.104" width="5.46269" height="5.46269" rx="2.58729" fill="#7D97F1"/>
<rect x="991.105" y="294.179" width="5.46269" height="5.46269" rx="2.58729" fill="#7D97F1"/>
<rect x="991.105" y="315.252" width="5.46269" height="5.46269" rx="2.58729" fill="#7D97F1"/>
<rect x="1012.96" y="273.104" width="5.46269" height="5.46269" rx="2.58729" fill="#7D97F1"/>
<rect x="1012.96" y="294.179" width="5.46269" height="5.46269" rx="2.58729" fill="#7D97F1"/>
<rect x="1012.96" y="315.252" width="5.46269" height="5.46269" rx="2.58729" fill="#7D97F1"/>
<rect x="1034.81" y="273.104" width="5.46269" height="5.46269" rx="2.58729" fill="#7D97F1"/>
<rect x="1034.81" y="294.179" width="5.46269" height="5.46269" rx="2.58729" fill="#7D97F1"/>
<rect x="1034.81" y="315.252" width="5.46269" height="5.46269" rx="2.58729" fill="#7D97F1"/>
<rect x="1056.66" y="273.104" width="5.46269" height="5.46269" rx="2.58729" fill="#7D97F1"/>
<rect x="1056.66" y="294.179" width="5.46269" height="5.46269" rx="2.58729" fill="#7D97F1"/>
<rect x="1056.66" y="315.252" width="5.46269" height="5.46269" rx="2.58729" fill="#7D97F1"/>
</g>
<defs>
<clipPath id="clip0_1_11">
<rect width="1200" height="328" rx="20" fill="white"/>
</clipPath>
</defs>
</svg>
