<svg width="380" height="353" viewBox="0 0 380 353" fill="none" xmlns="http://www.w3.org/2000/svg">
<path d="M174.18 286.454C174.18 286.326 175.205 285.685 177.127 284.404C179.05 283.122 181.998 281.328 185.843 279.021C193.405 274.407 204.299 267.87 217.628 259.796L218.013 259.539L218.397 259.667C229.035 264.153 241.339 269.28 254.669 274.919L255.053 275.047L255.182 275.56C258.898 290.94 263 307.73 267.229 325.417L267.357 326.186L266.717 326.571C251.208 335.671 236.469 344.386 223.011 352.333L222.627 352.717L222.242 352.589C208.913 346.821 196.609 341.566 185.971 337.081L185.587 336.952L185.458 336.568C181.87 321.188 178.922 308.756 176.999 300.04C175.974 295.682 175.333 292.35 174.82 290.043C174.436 287.736 174.18 286.454 174.18 286.454C174.308 286.454 174.564 287.608 175.205 289.915C175.846 292.222 176.743 295.554 177.768 299.784C179.947 308.371 183.023 320.803 186.868 336.055C186.74 335.927 186.612 335.671 186.484 335.543C197.122 340.028 209.426 345.155 222.883 350.795C222.627 350.795 222.371 350.795 221.986 350.795C235.444 342.72 250.311 334.005 265.691 324.905C265.563 325.289 265.435 325.674 265.179 326.058C260.949 308.371 256.976 291.581 253.259 276.201C253.387 276.457 253.643 276.585 253.772 276.842C240.442 271.074 228.138 265.819 217.628 261.334C217.885 261.334 218.141 261.334 218.269 261.334C204.812 269.152 193.789 275.56 186.099 279.918C182.254 282.097 179.306 283.763 177.256 284.916C175.333 285.942 174.308 286.583 174.18 286.454Z" fill="#8786EB"/>
<path d="M222.499 351.692C222.243 351.82 220.833 346.821 218.654 339.003C216.603 331.057 213.784 320.034 210.836 307.858C210.323 305.936 209.939 303.885 209.426 302.091C209.682 302.347 209.81 302.603 210.067 302.732C199.813 298.374 190.842 294.401 184.433 291.453C178.025 288.505 174.18 286.711 174.308 286.454C174.436 286.198 178.409 287.736 185.074 290.299C191.611 292.863 200.711 296.58 210.964 300.937L211.477 301.194L211.605 301.706C212.117 303.501 212.502 305.551 213.015 307.474C215.962 319.65 218.526 330.672 220.192 338.747C221.858 346.693 222.755 351.692 222.499 351.692Z" fill="#8786EB"/>
<path d="M210.451 301.834C210.194 301.322 219.679 295.17 231.855 287.992C243.903 280.815 254.028 275.432 254.284 275.945C254.54 276.457 245.056 282.609 232.88 289.787C220.832 296.964 210.835 302.347 210.451 301.834Z" fill="#8786EB"/>
<g opacity="0.87">
<g opacity="0.87">
<g opacity="0.87">
<g opacity="0.87">
<path opacity="0.87" d="M196.096 15.1238L209.041 65.4936L164.439 92.1524L151.622 41.7826L196.096 15.1238Z" fill="url(#paint0_linear_1_214)"/>
</g>
<g opacity="0.87">
<path opacity="0.87" d="M164.439 92.1524L127.142 77.0287L114.197 26.6588L151.622 41.7826L164.439 92.1524Z" fill="url(#paint1_linear_1_214)"/>
</g>
<g opacity="0.87">
<path opacity="0.87" d="M151.622 41.7826L114.197 26.6588L158.8 0L196.097 15.1238L151.622 41.7826Z" fill="url(#paint2_linear_1_214)"/>
</g>
</g>
</g>
<g opacity="0.87">
<path opacity="0.87" d="M196.097 15.1238L158.8 0L114.197 26.6588L127.142 77.0287L164.567 92.1524L209.041 65.4936L196.097 15.1238Z" fill="url(#paint3_linear_1_214)"/>
</g>
</g>
<path d="M143.291 62.0331C143.419 62.2894 140.215 64.4683 134.96 67.6725C129.705 71.0048 122.272 75.3625 113.941 80.1047C105.738 84.8469 98.1761 89.0764 92.6649 92.0243C87.1537 94.9721 83.6932 96.7665 83.565 96.5102C83.4368 96.2538 86.641 94.075 91.8959 90.8708C97.1508 87.5384 104.584 83.1807 112.915 78.4385C121.118 73.6963 128.68 69.4668 134.191 66.5189C139.702 63.4429 143.163 61.7767 143.291 62.0331Z" fill="#8786EB"/>
<g opacity="0.87">
<g opacity="0.87">
<g opacity="0.87">
<g opacity="0.87">
<path opacity="0.87" d="M123.81 220.833L136.755 271.202L92.1525 297.861L79.3357 247.491L123.81 220.833Z" fill="#4EC5FF"/>
</g>
<g opacity="0.87">
<path opacity="0.87" d="M92.1528 297.861L54.856 282.738L41.9111 232.368L79.336 247.491L92.1528 297.861Z" fill="#1B5AA6"/>
</g>
<g opacity="0.87">
<path opacity="0.87" d="M79.3361 247.491L41.9111 232.368L86.5134 205.709L123.81 220.833L79.3361 247.491Z" fill="#349DDC"/>
</g>
</g>
</g>
<g opacity="0.87">
<path opacity="0.87" d="M123.81 220.833L86.5131 205.709L41.9109 232.368L54.8558 282.738L92.2807 297.861L136.755 271.202L123.81 220.833Z" fill="#635EA3"/>
</g>
</g>
<g opacity="0.87">
<g opacity="0.87">
<g opacity="0.87">
<g opacity="0.87">
<path opacity="0.87" d="M366.816 212.374L379.632 262.743L335.158 289.402L322.213 239.032L366.816 212.374Z" fill="url(#paint4_linear_1_214)"/>
</g>
<g opacity="0.87">
<path opacity="0.87" d="M335.158 289.402L297.862 274.279L284.917 223.909L322.213 239.032L335.158 289.402Z" fill="url(#paint5_linear_1_214)"/>
</g>
<g opacity="0.87">
<path opacity="0.87" d="M322.213 239.032L284.917 223.909L329.391 197.25L366.816 212.374L322.213 239.032Z" fill="url(#paint6_linear_1_214)"/>
</g>
</g>
</g>
<g opacity="0.87">
<path opacity="0.87" d="M366.816 212.374L329.391 197.25L284.917 223.909L297.862 274.279L335.158 289.53L379.632 262.743L366.816 212.374Z" fill="url(#paint7_linear_1_214)"/>
</g>
</g>
<g opacity="0.87">
<g opacity="0.87">
<g opacity="0.87">
<g opacity="0.87">
<path opacity="0.87" d="M236.982 155.595L249.927 205.965L205.453 232.624L192.508 182.254L236.982 155.595Z" fill="url(#paint8_linear_1_214)"/>
</g>
<g opacity="0.87">
<path opacity="0.87" d="M205.453 232.624L168.028 217.372L155.211 167.002L192.508 182.254L205.453 232.624Z" fill="url(#paint9_linear_1_214)"/>
</g>
<g opacity="0.87">
<path opacity="0.87" d="M192.508 182.254L155.211 167.002L199.685 140.343L236.982 155.595L192.508 182.254Z" fill="url(#paint10_linear_1_214)"/>
</g>
</g>
</g>
<g opacity="0.87">
<path opacity="0.87" d="M236.982 155.595L199.685 140.343L155.211 167.002L168.028 217.372L205.453 232.624L249.927 205.965L236.982 155.595Z" fill="url(#paint11_linear_1_214)"/>
</g>
</g>
<path d="M180.332 201.223C180.46 201.479 177.64 203.402 172.898 206.35C168.156 209.298 161.619 213.143 154.314 217.372C147.008 221.602 140.344 225.319 135.473 228.01C130.603 230.573 127.527 232.111 127.399 231.855C127.27 231.599 130.09 229.676 134.832 226.728C139.575 223.781 146.111 219.935 153.417 215.706C160.722 211.476 167.387 207.76 172.257 205.196C177.128 202.377 180.204 200.967 180.332 201.223Z" fill="#8786EB"/>
<path d="M312.344 261.334C312.473 261.59 309.525 263.512 304.654 266.588C299.784 269.664 292.991 273.638 285.429 278.124C277.867 282.481 270.946 286.454 265.82 289.146C260.693 291.837 257.489 293.375 257.361 293.247C257.232 292.991 260.18 291.068 265.051 287.992C269.921 284.916 276.714 280.943 284.404 276.457C291.966 272.1 298.887 268.126 304.013 265.435C309.012 262.615 312.216 261.077 312.344 261.334Z" fill="#8786EB"/>
<path d="M196.096 164.054C195.84 164.183 194.558 159.697 192.636 152.648C190.713 145.47 188.278 135.601 185.587 124.707C182.895 113.685 180.716 103.816 179.178 96.6383C177.64 89.4609 176.743 84.9751 177.128 84.8469C177.384 84.7187 178.666 89.2046 180.588 96.2538C182.511 103.431 184.946 113.3 187.637 124.194C190.329 135.089 192.508 145.086 194.046 152.263C195.584 159.569 196.353 164.054 196.096 164.054Z" fill="#8786EB"/>
<path d="M80.6176 228.138C80.3612 228.266 79.0796 223.909 77.2852 216.988C75.4909 210.067 73.0557 200.454 70.4923 189.944C67.929 179.306 65.7501 169.694 64.2121 162.645C62.6741 155.595 61.9051 151.238 62.1614 151.238C62.4177 151.11 63.6994 155.467 65.4938 162.388C67.2881 169.309 69.7233 178.922 72.2867 189.56C74.85 200.198 77.0289 209.81 78.5669 216.859C80.1049 223.78 80.8739 228.138 80.6176 228.138Z" fill="#8786EB"/>
<path d="M327.34 216.603C327.084 216.731 325.802 212.63 324.136 206.093C322.341 199.557 320.034 190.457 317.599 180.46C315.164 170.463 313.113 161.235 311.703 154.698C310.294 148.033 309.525 143.932 309.781 143.932C310.037 143.804 311.319 147.905 312.985 154.442C314.779 160.978 317.086 170.078 319.522 180.075C321.957 190.072 324.008 199.3 325.417 205.837C326.955 212.374 327.596 216.603 327.34 216.603Z" fill="#8786EB"/>
<path d="M175.846 289.146C175.718 289.402 171.873 287.864 165.849 285.301C159.825 282.738 151.494 278.893 142.394 274.663C133.294 270.433 125.091 266.46 119.196 263.512C113.3 260.565 109.711 258.642 109.84 258.386C109.968 258.129 113.813 259.667 119.837 262.231C125.86 264.794 134.191 268.639 143.291 272.869C152.391 277.098 160.594 281.071 166.49 284.019C172.385 286.839 175.974 288.89 175.846 289.146Z" fill="#8786EB"/>
<path d="M287.608 222.242C287.48 222.499 283.763 221.217 277.611 218.782C271.587 216.475 263.256 213.014 254.156 209.169C245.056 205.324 236.725 201.736 230.83 199.044C224.934 196.353 221.345 194.558 221.345 194.302C221.474 194.046 225.19 195.327 231.342 197.762C237.366 200.07 245.697 203.53 254.925 207.375C264.025 211.22 272.356 214.809 278.252 217.5C284.147 220.192 287.736 221.986 287.608 222.242Z" fill="#8786EB"/>
<path d="M223.14 194.43C223.14 195.455 222.243 196.353 221.217 196.353C220.192 196.353 219.295 195.455 219.295 194.43C219.295 193.405 220.192 192.508 221.217 192.508C222.371 192.508 223.14 193.405 223.14 194.43Z" fill="#8786EB"/>
<path d="M198.019 164.054C198.019 165.08 197.122 165.977 196.096 165.977C195.071 165.977 194.174 165.08 194.174 164.054C194.174 163.029 195.071 162.132 196.096 162.132C197.122 162.132 198.019 163.029 198.019 164.054Z" fill="#8786EB"/>
<path d="M182.254 201.223C182.254 202.248 181.357 203.146 180.332 203.146C179.306 203.146 178.409 202.248 178.409 201.223C178.409 200.198 179.306 199.3 180.332 199.3C181.357 199.172 182.254 200.069 182.254 201.223Z" fill="#8786EB"/>
<path d="M112.916 258.386C112.916 259.411 112.019 260.308 110.993 260.308C109.968 260.308 109.071 259.411 109.071 258.386C109.071 257.36 109.968 256.463 110.993 256.463C112.019 256.463 112.916 257.36 112.916 258.386Z" fill="#8786EB"/>
<path d="M82.5397 228.138C82.5397 229.164 81.6425 230.061 80.6171 230.061C79.5918 230.061 78.6946 229.164 78.6946 228.138C78.6946 227.113 79.5918 226.216 80.6171 226.216C81.6425 226.216 82.5397 227.113 82.5397 228.138Z" fill="#8786EB"/>
<path d="M329.39 216.603C329.39 217.628 328.493 218.526 327.468 218.526C326.443 218.526 325.545 217.628 325.545 216.603C325.545 215.578 326.443 214.681 327.468 214.681C328.493 214.681 329.39 215.578 329.39 216.603Z" fill="#8786EB"/>
<path d="M145.214 62.6739C145.214 63.6993 144.317 64.5964 143.291 64.5964C142.266 64.5964 141.369 63.6993 141.369 62.6739C141.369 61.6486 142.266 60.7514 143.291 60.7514C144.317 60.6232 145.214 61.5204 145.214 62.6739Z" fill="#8786EB"/>
<path d="M314.395 261.334C314.395 262.359 313.498 263.256 312.472 263.256C311.447 263.256 310.55 262.359 310.55 261.334C310.55 260.308 311.447 259.411 312.472 259.411C313.498 259.283 314.395 260.18 314.395 261.334Z" fill="#8786EB"/>
<path d="M0 93.306C0 93.1778 1.02536 92.5369 2.94788 91.2553C4.87039 89.9736 7.81823 88.1793 11.6633 85.8722C19.2251 81.2582 30.1194 74.7217 43.4488 66.6471L43.8333 66.3908L44.2178 66.5189C54.8557 71.0048 67.1598 76.1315 80.4892 81.7709L80.8737 81.899L81.0019 82.4117C84.7187 97.7918 88.8201 114.582 93.0496 132.269L93.1778 133.038L92.537 133.422C77.0287 142.522 62.2894 151.238 48.8318 159.184L48.4473 159.44L48.0628 159.312C34.7334 153.545 22.4293 148.29 11.7914 143.804L11.4069 143.676L11.2788 143.291C7.69007 127.911 4.74221 115.479 2.8197 106.764C1.79436 102.406 1.15351 99.0735 0.640838 96.7665C0.128168 94.5876 0 93.306 0 93.306C0.128168 93.306 0.384526 94.4595 1.02536 96.7665C1.6662 99.0735 2.56337 102.406 3.58871 106.635C5.76756 115.223 8.84359 127.655 12.6886 142.907C12.5604 142.779 12.4323 142.522 12.3041 142.394C22.942 146.88 35.2461 152.007 48.7037 157.646C48.4473 157.646 48.191 157.646 47.8065 157.646C61.2641 149.571 76.1315 140.856 91.5116 131.756C91.3835 132.141 91.2553 132.525 90.9989 132.91C86.7694 115.223 82.7962 98.4327 79.0794 83.0526C79.2075 83.3089 79.4639 83.4371 79.592 83.6934C66.2626 77.9259 53.9586 72.671 43.4488 68.1851C43.7052 68.1851 43.9615 68.1851 44.0897 68.1851C30.6321 76.0033 19.6097 82.4117 11.9196 86.7694C8.07458 88.9483 5.12673 90.6144 3.07605 91.7679C1.15354 92.7933 0.128168 93.4341 0 93.306Z" fill="#8786EB"/>
<path d="M48.3193 158.543C48.063 158.671 46.6532 153.673 44.4743 145.855C42.4236 137.908 39.604 126.886 36.6561 114.71C36.1434 112.787 35.7589 110.737 35.2462 108.942C35.5026 109.199 35.6308 109.455 35.8871 109.583C25.6337 105.225 16.662 101.252 10.2536 98.3044C3.8452 95.3566 0.000187206 93.5623 0.128355 93.3059C0.256522 93.0496 4.22971 94.5876 10.8944 97.1509C17.431 99.7143 26.5309 103.431 36.7843 107.789L37.2969 108.045L37.4251 108.558C37.9378 110.352 38.3223 112.403 38.835 114.325C41.7828 126.501 44.3462 137.524 46.0123 145.598C47.6785 153.545 48.5757 158.543 48.3193 158.543Z" fill="#8786EB"/>
<path d="M36.2714 108.686C36.0151 108.173 45.4995 102.021 57.6754 94.8439C69.7231 87.6665 79.8484 82.2835 80.1047 82.7962C80.361 83.3088 70.8767 89.4609 58.7007 96.6383C46.653 103.816 36.5278 109.199 36.2714 108.686Z" fill="#8786EB"/>
<path d="M254.797 81.2582C254.797 81.13 255.822 80.4892 257.745 79.2075C259.667 77.9259 262.615 76.1315 266.46 73.8245C274.022 69.2105 284.916 62.6739 298.246 54.5994L298.63 54.343L299.015 54.4712C309.653 58.9571 321.957 64.0838 335.286 69.7231L335.671 69.8513L335.799 70.364C339.516 85.7441 343.617 102.534 347.847 120.221L347.975 120.99L347.334 121.375C331.826 130.475 317.086 139.19 303.629 147.136L303.244 147.393L302.86 147.264C289.53 141.497 277.226 136.242 266.588 131.756L266.204 131.628L266.076 131.244C262.487 115.863 259.539 103.431 257.617 94.7158C256.591 90.3581 255.951 87.0257 255.438 84.7187C254.925 82.5399 254.669 81.2582 254.797 81.2582C254.925 81.2582 255.182 82.4117 255.822 84.7187C256.463 87.0257 257.36 90.3581 258.386 94.5876C260.565 103.175 263.641 115.607 267.486 130.859C267.357 130.731 267.229 130.475 267.101 130.346C277.739 134.832 290.043 139.959 303.501 145.598C303.244 145.598 302.988 145.598 302.604 145.598C316.061 137.524 330.929 128.808 346.309 119.708C346.18 120.093 346.052 120.477 345.796 120.862C341.566 103.175 337.593 86.3849 333.876 71.0048C334.005 71.2611 334.261 71.3893 334.389 71.6456C321.06 65.8781 308.756 60.6233 298.246 56.1374C298.502 56.1374 298.758 56.1374 298.887 56.1374C285.429 63.9556 274.407 70.364 266.717 74.7217C262.872 76.9005 259.924 78.5667 257.873 79.7202C255.951 80.7455 254.797 81.3864 254.797 81.2582Z" fill="#8786EB"/>
<path d="M303.116 146.496C302.86 146.624 301.45 141.625 299.271 133.807C297.22 125.861 294.401 114.838 291.453 102.662C290.94 100.74 290.556 98.689 290.043 96.8947C290.299 97.151 290.427 97.4074 290.684 97.5355C280.43 93.1778 271.459 89.2046 265.05 86.2568C258.642 83.3089 254.797 81.5146 254.925 81.2583C255.053 81.0019 259.026 82.5399 265.691 85.1033C272.228 87.6666 281.328 91.3835 291.581 95.7412L292.094 95.9975L292.222 96.5102C292.734 98.3045 293.119 100.355 293.632 102.278C296.58 114.454 299.143 125.476 300.809 133.551C302.347 141.497 303.372 146.496 303.116 146.496Z" fill="#8786EB"/>
<path d="M291.068 96.6383C290.812 96.1257 300.296 89.9736 312.472 82.7962C324.52 75.6189 334.645 70.2358 334.902 70.7485C335.158 71.2612 325.674 77.4132 313.498 84.5906C301.322 91.768 291.325 97.151 291.068 96.6383Z" fill="#8786EB"/>
<defs>
<linearGradient id="paint0_linear_1_214" x1="180.332" y1="15.1238" x2="180.332" y2="92.1524" gradientUnits="userSpaceOnUse">
<stop stop-color="#7974B9"/>
<stop offset="1" stop-color="#333243"/>
</linearGradient>
<linearGradient id="paint1_linear_1_214" x1="139.318" y1="26.6588" x2="139.318" y2="92.1524" gradientUnits="userSpaceOnUse">
<stop stop-color="#7974B9"/>
<stop offset="1" stop-color="#333243"/>
</linearGradient>
<linearGradient id="paint2_linear_1_214" x1="155.147" y1="0" x2="155.147" y2="41.7826" gradientUnits="userSpaceOnUse">
<stop stop-color="#7974B9"/>
<stop offset="1" stop-color="#333243"/>
</linearGradient>
<linearGradient id="paint3_linear_1_214" x1="161.619" y1="0" x2="161.619" y2="92.1524" gradientUnits="userSpaceOnUse">
<stop stop-color="#7974B9"/>
<stop offset="1" stop-color="#333243"/>
</linearGradient>
<linearGradient id="paint4_linear_1_214" x1="350.923" y1="212.374" x2="350.923" y2="289.402" gradientUnits="userSpaceOnUse">
<stop stop-color="#7974B9"/>
<stop offset="1" stop-color="#333243"/>
</linearGradient>
<linearGradient id="paint5_linear_1_214" x1="310.037" y1="223.909" x2="310.037" y2="289.402" gradientUnits="userSpaceOnUse">
<stop stop-color="#7974B9"/>
<stop offset="1" stop-color="#333243"/>
</linearGradient>
<linearGradient id="paint6_linear_1_214" x1="325.866" y1="197.25" x2="325.866" y2="239.032" gradientUnits="userSpaceOnUse">
<stop stop-color="#7974B9"/>
<stop offset="1" stop-color="#333243"/>
</linearGradient>
<linearGradient id="paint7_linear_1_214" x1="332.274" y1="197.25" x2="332.274" y2="289.53" gradientUnits="userSpaceOnUse">
<stop stop-color="#7974B9"/>
<stop offset="1" stop-color="#333243"/>
</linearGradient>
<linearGradient id="paint8_linear_1_214" x1="221.217" y1="155.595" x2="221.217" y2="232.624" gradientUnits="userSpaceOnUse">
<stop stop-color="#7974B9"/>
<stop offset="1" stop-color="#333243"/>
</linearGradient>
<linearGradient id="paint9_linear_1_214" x1="180.332" y1="167.002" x2="180.332" y2="232.624" gradientUnits="userSpaceOnUse">
<stop stop-color="#7974B9"/>
<stop offset="1" stop-color="#333243"/>
</linearGradient>
<linearGradient id="paint10_linear_1_214" x1="196.097" y1="140.343" x2="196.097" y2="182.254" gradientUnits="userSpaceOnUse">
<stop stop-color="#7974B9"/>
<stop offset="1" stop-color="#333243"/>
</linearGradient>
<linearGradient id="paint11_linear_1_214" x1="202.569" y1="140.343" x2="202.569" y2="232.624" gradientUnits="userSpaceOnUse">
<stop stop-color="#7974B9"/>
<stop offset="1" stop-color="#333243"/>
</linearGradient>
</defs>
</svg>
