<svg width="20" height="19" viewBox="0 0 20 19" fill="none" xmlns="http://www.w3.org/2000/svg">
<path d="M1.5 19C1.1 19 0.75 18.85 0.45 18.55C0.15 18.25 0 17.9 0 17.5V5.175C0 4.775 0.15 4.425 0.45 4.125C0.75 3.825 1.1 3.675 1.5 3.675H6.25V1.5C6.25 1.1 6.4 0.75 6.7 0.45C7 0.15 7.35 0 7.75 0H12.25C12.65 0 13 0.15 13.3 0.45C13.6 0.75 13.75 1.1 13.75 1.5V3.675H18.5C18.9 3.675 19.25 3.825 19.55 4.125C19.85 4.425 20 4.775 20 5.175V17.5C20 17.9 19.85 18.25 19.55 18.55C19.25 18.85 18.9 19 18.5 19H1.5ZM7.75 3.675H12.25V1.5H7.75V3.675ZM1.5 17.5H18.5V5.175H1.5V17.5ZM1.5 17.5V5.175V17.5Z" fill="#373737"/>
</svg>
