<svg width="121" height="121" viewBox="0 0 121 121" fill="none" xmlns="http://www.w3.org/2000/svg">
<path d="M60.2196 0C57.3078 0 54.406 1.14465 52.1117 3.43898L3.43882 52.1118C-1.14481 56.6955 -1.14481 63.7491 3.43882 68.3328L7.66601 72.565L47.8795 31.6487C51.1113 28.4312 55.486 26.6248 60.0464 26.6248C64.6068 26.6248 68.9815 28.4312 72.2134 31.6487L112.773 72.2135L117 67.9813C121.589 63.7491 121.594 56.6955 117.362 52.1118L68.3376 3.43898C67.2792 2.35736 66.0166 1.49648 64.6232 0.906169C63.2297 0.31586 61.733 0.00785884 60.2196 0ZM60.2196 32.4469C57.3078 32.4469 54.406 33.5915 52.1117 35.8809L3.43882 84.5587C-1.14481 89.1424 -1.14481 96.196 3.43882 100.775L19.6598 117.001C24.2484 121.584 31.2971 121.584 35.8857 117.001L60.2196 92.6717L84.5586 117.001C89.1422 121.584 96.1959 121.584 100.78 117.001L117 100.78C121.589 96.5475 121.594 89.1424 117.362 84.5587L68.3376 35.8809C67.2788 34.8001 66.016 33.9402 64.6226 33.3507C63.2291 32.7613 61.7326 32.4541 60.2196 32.4469Z" fill="#FF3F56"/>
</svg>
