<svg width="16" height="16" viewBox="0 0 16 16" fill="none" xmlns="http://www.w3.org/2000/svg">
<path d="M7.99662 0.00332642C7.60995 0.00332642 7.22462 0.155326 6.91996 0.459993L0.456622 6.92333C-0.152045 7.53199 -0.152045 8.46866 0.456622 9.07733L1.01796 9.63933L6.35795 4.20599C6.78712 3.77874 7.36804 3.53887 7.97362 3.53887C8.5792 3.53887 9.16013 3.77874 9.58929 4.20599L14.9753 9.59266L15.5366 9.03066C16.146 8.46866 16.1466 7.53199 15.5846 6.92333L9.07462 0.459993C8.93407 0.316364 8.76642 0.202046 8.58137 0.123658C8.39633 0.0452699 8.19758 0.00437 7.99662 0.00332642ZM7.99662 4.31199C7.60995 4.31199 7.22462 4.46399 6.91996 4.76799L0.456622 11.232C-0.152045 11.8407 -0.152045 12.7773 0.456622 13.3853L2.61062 15.54C3.21995 16.1487 4.15596 16.1487 4.76529 15.54L7.99662 12.3093L11.2286 15.54C11.8373 16.1487 12.774 16.1487 13.3826 15.54L15.5366 13.386C16.146 12.824 16.1466 11.8407 15.5846 11.232L9.07462 4.76799C8.93401 4.62448 8.76633 4.51029 8.5813 4.43202C8.39626 4.35374 8.19753 4.31295 7.99662 4.31199Z" fill="#FF3F56"/>
</svg>
