<svg width="13" height="18" viewBox="0 0 13 18" fill="none" xmlns="http://www.w3.org/2000/svg">
<path d="M11.375 0C12.2721 0 13 0.755508 13 1.6875V16.3125C13 17.2441 12.2721 18 11.375 18H8.125V15.1875C8.125 14.2559 7.39714 13.5 6.5 13.5C5.60286 13.5 4.875 14.2559 4.875 15.1875V18H1.625C0.727526 18 0 17.2441 0 16.3125V1.6875C0 0.755508 0.727526 0 1.625 0H11.375ZM2.16667 9.5625C2.16667 9.87187 2.40906 10.125 2.70833 10.125H3.79167C4.08958 10.125 4.33333 9.87187 4.33333 9.5625V8.4375C4.33333 8.12813 4.08958 7.875 3.79167 7.875H2.70833C2.40906 7.875 2.16667 8.12813 2.16667 8.4375V9.5625ZM5.95833 7.875C5.66042 7.875 5.41667 8.12813 5.41667 8.4375V9.5625C5.41667 9.87187 5.66042 10.125 5.95833 10.125H7.04167C7.33958 10.125 7.58333 9.87187 7.58333 9.5625V8.4375C7.58333 8.12813 7.33958 7.875 7.04167 7.875H5.95833ZM8.66667 9.5625C8.66667 9.87187 8.91042 10.125 9.20833 10.125H10.2917C10.5896 10.125 10.8333 9.87187 10.8333 9.5625V8.4375C10.8333 8.12813 10.5896 7.875 10.2917 7.875H9.20833C8.91042 7.875 8.66667 8.12813 8.66667 8.4375V9.5625ZM2.70833 3.375C2.40906 3.375 2.16667 3.62812 2.16667 3.9375V5.0625C2.16667 5.37187 2.40906 5.625 2.70833 5.625H3.79167C4.08958 5.625 4.33333 5.37187 4.33333 5.0625V3.9375C4.33333 3.62812 4.08958 3.375 3.79167 3.375H2.70833ZM5.41667 5.0625C5.41667 5.37187 5.66042 5.625 5.95833 5.625H7.04167C7.33958 5.625 7.58333 5.37187 7.58333 5.0625V3.9375C7.58333 3.62812 7.33958 3.375 7.04167 3.375H5.95833C5.66042 3.375 5.41667 3.62812 5.41667 3.9375V5.0625ZM9.20833 3.375C8.91042 3.375 8.66667 3.62812 8.66667 3.9375V5.0625C8.66667 5.37187 8.91042 5.625 9.20833 5.625H10.2917C10.5896 5.625 10.8333 5.37187 10.8333 5.0625V3.9375C10.8333 3.62812 10.5896 3.375 10.2917 3.375H9.20833Z" fill="#373737"/>
</svg>
