<svg width="24" height="24" viewBox="0 0 24 24" fill="none" xmlns="http://www.w3.org/2000/svg">
<circle cx="12" cy="12" r="12" fill="#635EA3"/>
<path d="M16.6606 11.7504C16.6128 10.8321 16.2934 9.94879 15.743 9.21227C15.5753 9.39289 15.396 9.56241 15.2063 9.71977C14.6235 10.2038 13.9723 10.599 13.2737 10.8923C13.3712 11.0964 13.4604 11.2942 13.5392 11.4809V11.4826C13.5614 11.5348 13.5828 11.5873 13.6033 11.6401C14.4865 11.5409 15.4175 11.5771 16.3199 11.699C16.4401 11.7154 16.5532 11.7329 16.6606 11.7504V11.7504ZM11.186 7.40452C11.7545 8.20554 12.2787 9.03706 12.7563 9.89535C13.4697 9.61419 14.0595 9.25952 14.5343 8.8646C14.6991 8.72876 14.8543 8.5816 14.9987 8.42419C14.1592 7.71819 13.0972 7.3318 12.0003 7.33335C11.7273 7.33317 11.4549 7.35678 11.186 7.40394V7.40452ZM7.48124 10.8316C7.87862 10.8216 8.27553 10.7976 8.67124 10.7599C9.6277 10.6743 10.576 10.514 11.5074 10.2804C11.0206 9.43464 10.4951 8.61185 9.93241 7.8146C9.33141 8.11234 8.80148 8.53584 8.37855 9.0564C7.95563 9.57695 7.6496 10.1824 7.48124 10.8316ZM8.37374 14.9371C8.60008 14.6064 8.89758 14.2342 9.29249 13.8294C10.1407 12.9602 11.1417 12.2835 12.3002 11.9102L12.3363 11.8997C12.2401 11.6874 12.1497 11.4978 12.0587 11.3193C10.9877 11.6314 9.85949 11.8262 8.73541 11.9271C8.18708 11.9767 7.69533 11.9983 7.33366 12.0018C7.33263 13.0708 7.70016 14.1075 8.37433 14.9371H8.37374ZM13.7532 16.3254C13.5283 15.191 13.2099 14.0771 12.8012 12.9952C11.6334 13.4193 10.703 14.0394 9.98374 14.779C9.69348 15.0721 9.43589 15.3958 9.21549 15.7444C10.0198 16.3446 10.9968 16.6681 12.0003 16.6667C12.6011 16.6675 13.1964 16.5521 13.7532 16.3266V16.3254ZM14.8458 15.6984C15.7566 14.9982 16.377 13.9867 16.5882 12.8575C16.3899 12.8079 16.1385 12.7584 15.862 12.7199C15.2472 12.6313 14.6235 12.6249 14.007 12.7006C14.3541 13.6799 14.6344 14.6817 14.8458 15.6989V15.6984ZM12.0003 17.8334C8.77858 17.8334 6.16699 15.2218 6.16699 12C6.16699 8.77827 8.77858 6.16669 12.0003 6.16669C15.2221 6.16669 17.8337 8.77827 17.8337 12C17.8337 15.2218 15.2221 17.8334 12.0003 17.8334Z" fill="white"/>
</svg>
