<svg width="136" height="159" viewBox="0 0 136 159" fill="none" xmlns="http://www.w3.org/2000/svg">
<path d="M132.884 57.0872C134.128 61.3743 135.017 65.8113 135.52 70.3645C134.973 70.4213 134.574 70.9087 134.628 71.4563C134.874 73.979 135 76.5372 135 79.125C135 81.7128 134.874 84.271 134.628 86.7937C134.574 87.3413 134.973 87.8287 135.52 87.8855C135.017 92.4387 134.128 96.8757 132.884 101.163C132.358 101.006 131.803 101.304 131.643 101.831C130.141 106.774 128.162 111.51 125.758 115.985C125.497 116.47 125.678 117.073 126.16 117.336C123.964 121.303 121.437 125.062 118.615 128.575C118.189 128.228 117.563 128.29 117.213 128.715C113.956 132.667 110.318 136.295 106.355 139.542C105.93 139.89 105.866 140.517 106.211 140.944C102.692 143.755 98.9266 146.272 94.9534 148.459C94.6916 147.976 94.0885 147.794 93.6032 148.054C89.1234 150.446 84.3832 152.417 79.4362 153.911C78.9096 154.07 78.6107 154.625 78.7663 155.152C74.4779 156.388 70.04 157.273 65.486 157.772C65.4296 157.226 64.9424 156.827 64.3947 156.88C61.8717 157.125 59.3133 157.25 56.7253 157.25C54.1373 157.25 51.5789 157.125 49.0558 156.88C48.5082 156.827 48.021 157.226 47.9645 157.772C43.4105 157.273 38.9726 156.388 34.6842 155.152C34.8398 154.625 34.541 154.07 34.0143 153.911C29.0673 152.417 24.3272 150.446 19.8474 148.054C19.3621 147.794 18.759 147.976 18.4972 148.459C14.524 146.272 10.7589 143.755 7.23907 140.944C7.58465 140.517 7.52093 139.89 7.09534 139.541C3.13235 136.295 -0.505518 132.667 -3.76208 128.715C-4.11194 128.29 -4.73873 128.228 -5.16488 128.575C-7.98615 125.062 -10.5134 121.303 -12.7093 117.336C-12.2269 117.073 -12.0468 116.47 -12.3071 115.985C-14.711 111.51 -16.6906 106.774 -18.1925 101.831C-18.3524 101.304 -18.9073 101.006 -19.4339 101.163C-20.6769 96.8757 -21.5665 92.4387 -22.0689 87.8855C-21.5225 87.8287 -21.1236 87.3413 -21.1771 86.7937C-21.4233 84.271 -21.5493 81.7128 -21.5493 79.125C-21.5493 76.5372 -21.4233 73.979 -21.1771 71.4563C-21.1236 70.9087 -21.5225 70.4213 -22.0689 70.3645C-21.5665 65.8113 -20.6769 61.3743 -19.4339 57.0872C-18.9073 57.2437 -18.3524 56.9457 -18.1925 56.4193C-16.6906 51.4762 -14.711 46.7402 -12.3071 42.2649C-12.0468 41.7802 -12.2269 41.1768 -12.7093 40.9138C-10.5134 36.947 -7.98615 33.1885 -5.16488 29.6753C-4.73873 30.0221 -4.11194 29.9601 -3.76208 29.5355C-0.505514 25.5831 3.13235 21.9554 7.09534 18.7085C7.52093 18.3598 7.58465 17.7332 7.23908 17.3061C10.7589 14.4954 14.524 11.978 18.4972 9.79096C18.759 10.2739 19.3621 10.4555 19.8474 10.1964C24.3272 7.80365 29.0673 5.83342 34.0143 4.33886C34.541 4.17975 34.8398 3.62535 34.6842 3.09848C38.9726 1.86209 43.4105 0.977385 47.9645 0.477684C48.021 1.02419 48.5082 1.42332 49.0558 1.37017C51.5789 1.12533 54.1373 1 56.7253 1C59.3133 1 61.8717 1.12533 64.3948 1.37018C64.9424 1.42332 65.4296 1.02419 65.486 0.477685C70.0401 0.977387 74.478 1.86209 78.7664 3.09848C78.6108 3.62536 78.9096 4.17976 79.4362 4.33887C84.3833 5.83342 89.1234 7.80366 93.6032 10.1964C94.0885 10.4556 94.6916 10.274 94.9534 9.79096C98.9266 11.978 102.692 14.4954 106.212 17.3061C105.866 17.7332 105.93 18.3598 106.355 18.7085C110.318 21.9554 113.956 25.5831 117.213 29.5355C117.563 29.9601 118.189 30.0221 118.615 29.6753C121.437 33.1885 123.964 36.947 126.16 40.9138C125.678 41.1768 125.497 41.7803 125.758 42.2649C128.162 46.7402 130.141 51.4762 131.643 56.4193C131.803 56.9457 132.358 57.2437 132.884 57.0872Z" stroke="#6D4ECB" stroke-opacity="0.13" stroke-width="2" stroke-linecap="round" stroke-linejoin="round" stroke-dasharray="15 15"/>
</svg>
