<svg width="19" height="15" viewBox="0 0 19 15" fill="none" xmlns="http://www.w3.org/2000/svg">
<path d="M2.0625 14.5C1.7125 14.5 1.40625 14.3687 1.14375 14.1062C0.88125 13.8437 0.75 13.5375 0.75 13.1875V1.8125C0.75 1.4625 0.88125 1.15625 1.14375 0.89375C1.40625 0.63125 1.7125 0.5 2.0625 0.5H16.9375C17.2875 0.5 17.5938 0.63125 17.8562 0.89375C18.1187 1.15625 18.25 1.4625 18.25 1.8125V13.1875C18.25 13.5375 18.1187 13.8437 17.8562 14.1062C17.5938 14.3687 17.2875 14.5 16.9375 14.5H2.0625ZM9.5 7.89375L2.0625 3.01562V13.1875H16.9375V3.01562L9.5 7.89375ZM9.5 6.58125L16.85 1.8125H2.17188L9.5 6.58125ZM2.0625 3.01562V1.8125V3.01562V13.1875V3.01562Z" fill="#373737"/>
</svg>
