<svg width="685" height="498" viewBox="0 0 685 498" fill="none" xmlns="http://www.w3.org/2000/svg">
<path d="M196.284 103.273H117.945V181.583H196.284V103.273Z" fill="#635EA3"/>
<path d="M117.945 103.273L139.989 78.4972H218.328L196.346 103.273H117.945Z" fill="#6C66B0"/>
<path d="M196.346 103.273V181.583L218.328 156.87V78.4972L196.346 103.273Z" fill="#7671B7"/>
<path d="M277.051 131.846H270.949V129.729H277.051V131.846ZM266.714 131.846H260.425V129.729H266.714V131.846ZM256.252 131.846H249.963V129.729H256.252V131.846ZM245.728 131.846H239.439V129.729H245.728V131.846ZM235.266 131.846H228.977V129.729H235.266V131.846ZM224.742 131.846H218.453V129.729H224.742V131.846ZM214.281 131.846H207.991V129.729H214.281V131.846Z" fill="#7DB5DB"/>
<path d="M381.171 84.162H273.128V192.166H381.171V84.162Z" fill="#635EA3"/>
<path d="M273.128 84.162L303.517 50.049H411.56L381.234 84.162H273.128Z" fill="#6C66B0"/>
<path d="M381.234 84.1619V192.166L411.56 158.053V50.049L381.234 84.1619Z" fill="#7671B7"/>
<path d="M348.416 130.289V114.229C348.416 110.867 347.357 107.63 345.302 104.891C343.247 102.152 340.507 100.16 337.269 99.1642C335.09 98.4795 332.91 98.4795 330.793 98.4795H324.628C321.763 98.4795 319.21 99.0397 316.906 100.16C313.917 101.592 311.364 104.144 309.869 107.194C308.748 109.435 308.188 111.863 308.188 114.415V130.351H302.583V165.958C302.583 170.752 306.506 174.673 311.301 174.673H344.057C348.852 174.673 352.775 170.752 352.775 165.958V130.351H348.416V130.289ZM313.045 114.166C313.045 112.859 313.17 111.988 313.606 110.68C313.917 109.684 314.726 108.19 315.411 107.381C316.346 106.261 317.217 105.514 318.463 104.767C319.646 104.082 320.767 103.646 322.324 103.397C322.386 103.397 322.573 103.335 323.133 103.335C323.382 103.335 323.569 103.335 323.881 103.335H332.536C333.844 103.335 334.716 103.459 336.024 103.895C337.02 104.206 338.515 105.016 339.324 105.7C340.445 106.634 341.192 107.506 341.94 108.751C342.625 109.933 343.061 111.054 343.31 112.61C343.31 112.672 343.372 112.859 343.372 113.419C343.372 113.668 343.372 113.855 343.372 114.166V130.227H312.921V114.166H313.045ZM329.298 153.073V161.663C329.298 162.286 328.551 162.846 327.617 162.846H327.555C326.621 162.846 325.873 162.348 325.873 161.663V153.073C323.009 152.326 320.954 149.773 320.954 146.661C320.954 142.988 323.881 140.062 327.555 140.062C331.229 140.062 334.156 142.988 334.156 146.661C334.218 149.773 332.163 152.326 329.298 153.073Z" fill="white"/>
<path d="M465.489 125.185H459.386V123.068H465.489V125.185ZM455.151 125.185H448.862V123.068H455.151V125.185ZM444.69 125.185H438.4V123.068H444.69V125.185ZM434.166 125.185H427.876V123.068H434.166V125.185ZM423.704 125.185H417.414V123.068H423.704V125.185ZM413.18 125.185H406.89V123.068H413.18V125.185ZM402.718 125.185H396.428V123.068H402.718V125.185Z" fill="#7DB5DB"/>
<path d="M532.058 100.845H464.056V168.822H532.058V100.845Z" fill="#635EA3"/>
<path d="M464.056 100.845L483.174 79.3688H551.176L532.058 100.845H464.056Z" fill="#6C66B0"/>
<path d="M532.058 100.845V168.822L551.176 147.346V79.3688L532.058 100.845Z" fill="#7671B7"/>
<path d="M152.257 444.278L151.883 448.262L143.788 451.748L140.363 447.515L144.597 443.78L152.631 440.294L152.257 444.278Z" fill="#373737"/>
<path d="M159.045 363.478L152.817 443.033L145.033 444.091L138.557 376.301L133.264 354.763L159.045 363.478Z" fill="#373737"/>
<path d="M177.602 342.624L182.272 437.12L175.173 438.489L160.415 366.964L152.257 346.235L177.602 342.624Z" fill="#373737"/>
<path d="M175.796 441.602L184.265 444.154L187.316 439.423L182.708 436.124L175.049 437.555L175.796 441.602Z" fill="#151F2D"/>
<path d="M167.576 240.534C161.847 235.803 147.96 238.542 140.674 238.542C141.359 238.542 133.762 279.191 133.513 282.74C132.641 295.688 128.655 308.76 123.113 320.588C120.809 325.568 118.007 330.423 116.325 335.652C113.585 344.367 113.585 354.638 114.333 363.602C122.179 365.781 129.465 369.765 137.56 370.823C144.161 371.695 150.887 370.45 157.488 369.89C165.334 369.205 173.243 369.392 181.151 368.769C188.998 368.147 196.969 366.715 203.943 362.98C200.83 356.942 198.401 350.592 196.408 344.118C194.415 337.706 191.862 330.548 191.177 323.825C190.555 317.786 190.43 311.624 189.558 305.461C188.562 298.302 187.316 291.206 185.573 284.171C183.642 276.141 181.027 268.298 177.851 260.641C175.422 254.852 172.558 245.327 168.012 240.845C167.887 240.783 167.763 240.659 167.576 240.534Z" fill="#FFBA41"/>
<path d="M155.37 218.497C158.982 219.182 163.528 222.295 164.4 226.092C164.836 227.959 164.213 229.64 164.774 231.632C165.832 235.492 161.099 241.219 165.77 243.895C168.136 245.265 171.125 244.829 173.865 244.331C174.177 244.269 174.55 244.207 174.799 244.02C175.235 243.646 175.298 243.024 175.111 242.526C174.924 242.028 174.613 241.53 174.301 241.094C171.125 236.301 171.873 229.453 170.627 223.975C169.382 218.56 166.455 213.082 161.099 210.903C158.422 212.646 156.429 215.509 155.806 218.622L155.37 218.497Z" fill="#3B455A"/>
<path d="M159.916 241.966C163.404 240.472 165.77 236.923 166.517 233.188C167.265 229.453 166.704 225.594 165.645 221.921C162.22 209.72 146.901 213.206 143.352 223.664C140.238 232.69 149.766 246.323 159.916 241.966Z" fill="#EAC1A4"/>
<path d="M142.106 248.689C143.85 247.63 145.531 246.51 146.528 244.518C148.147 241.281 147.462 236.301 147.649 232.753C147.835 229.08 148.209 225.034 150.7 222.357C152.381 220.614 154.374 220.116 156.678 219.867C158.235 219.68 158.36 220.303 159.605 219.369C160.539 218.622 161.286 216.63 161.411 215.447C161.66 213.517 160.726 211.588 159.294 210.156C157.176 208.039 154.748 207.106 151.821 207.292C141.546 207.915 134.384 214.7 132.329 224.909C131.333 229.827 132.828 235.118 131.769 239.849C131.084 242.775 129.403 244.829 128.967 247.942C127.721 256.034 124.234 266.492 125.23 274.647C125.293 274.958 125.355 275.269 125.604 275.456C126.102 275.83 126.725 275.269 127.099 274.771C129.216 271.846 131.333 268.92 133.45 265.994C134.26 264.874 135.132 263.691 135.63 262.321C136.813 259.022 135.692 254.914 137.809 252.05C138.93 250.618 140.549 249.685 142.106 248.689Z" fill="#3B455A"/>
<path d="M125.978 326.875C125.666 328.929 127.348 334.158 129.278 335.341C133.7 337.955 132.081 331.357 132.081 328.929C132.952 329.178 133.762 329.427 134.634 329.489C135.443 329.551 133.077 322.455 132.33 321.832C130.461 320.276 129.154 321.085 126.85 321.334C126.538 323.14 126.227 325.007 125.978 326.875Z" fill="#FFBA41"/>
<path d="M131.52 252.175L108.292 292.762L124.857 328.244L130.461 320.836L124.545 289.089L146.528 275.643L144.099 249.56L131.52 252.175Z" fill="#FFBA41"/>
<path d="M170.752 244.393L191.364 277.324L202.698 261.637L213.346 263.38L208.302 288.902L194.229 299.298L170.752 285.229V244.393Z" fill="#FFBA41"/>
<path d="M322.386 248.689L313.294 251.801L298.535 273.838L279.729 261.201L273.688 268.36L283.216 282.428L300.341 294.691L322.386 271.597V248.689Z" fill="#CCCCCC"/>
<path d="M364.482 199.76L365.167 189.862L357.134 183.637L353.771 188.057L357.383 194.469L356.138 197.83L359.687 203.184L364.482 199.76Z" fill="#EAC1A4"/>
<path d="M300.964 312.121L300.341 368.146L306.319 440.232H314.415L324.129 373.749L335.276 307.079L300.964 312.121Z" fill="#373737"/>
<path d="M314.415 443.656L305.635 448.075L301.213 443.656L305.635 439.298H314.415V443.656Z" fill="#151F2D"/>
<path d="M356.636 312.121L356.823 344.554L351.343 440.232H343.247L329.609 376.737L322.386 307.079L356.636 312.121Z" fill="#373737"/>
<path d="M343.247 443.656L352.028 448.075L356.449 443.656L352.028 439.298H343.247V443.656Z" fill="#151F2D"/>
<path d="M365.105 331.668C365.292 336.835 365.167 343.682 362.988 343.931C362.552 343.993 362.178 343.807 361.804 343.62C358.068 341.815 355.328 339.2 351.654 337.457C347.793 335.59 343.372 334.656 339.013 333.971C332.599 332.913 325.998 332.353 319.521 332.29C313.917 332.228 308.125 334.78 302.894 336.15C300.839 336.71 299.22 338.142 297.539 339.325C295.048 341.005 293.989 341.69 294.301 338.204C294.861 332.477 295.422 326.812 296.107 321.085C297.477 309.756 299.407 298.426 302.645 287.408C303.891 283.237 305.323 279.067 306.693 274.958C308.437 269.916 310.18 264.874 311.862 259.831C314.041 253.544 317.653 249.187 324.005 246.946C329.485 245.078 336.335 244.518 341.69 247.195C347.606 250.12 350.471 260.205 353.335 265.558C355.889 270.227 359.064 283.051 359.998 288.155C361.119 294.256 362.178 300.294 362.988 306.394C363.922 313.117 364.544 319.778 364.731 326.439C364.856 327.124 364.98 329.178 365.105 331.668Z" fill="#CCCCCC"/>
<path d="M329.111 248.315C329.236 248.44 329.36 248.502 329.547 248.564C329.858 248.689 330.232 248.627 330.606 248.564C332.038 248.378 333.532 248.191 334.965 248.066C334.467 243.647 337.082 242.588 339.635 239.787C342.188 236.861 341.441 233.002 341.254 229.454C341.192 228.458 341.192 227.462 340.756 226.528C340.009 224.972 338.327 224.1 336.646 223.602C332.412 222.295 327.554 222.606 323.88 225.034C322.884 225.656 321.95 226.466 321.451 227.524C320.642 229.142 320.829 231.072 321.078 232.877C321.451 235.616 322.261 238.355 323.818 240.721C325.25 242.9 328.052 243.958 328.364 246.572C328.426 247.133 328.613 247.88 329.111 248.315Z" fill="#EAC1A4"/>
<path d="M321.14 229.64C321.389 230.761 321.888 231.881 321.639 233.002C319.895 232.379 318.712 230.574 318.089 228.769C317.778 227.96 317.591 227.026 317.653 226.154C317.715 225.283 318.089 224.411 318.836 223.913C319.833 223.229 321.576 223.478 321.825 224.723C322.074 225.968 320.767 227.96 321.14 229.64Z" fill="#3B455A"/>
<path d="M311.737 219.805C311.799 218.497 312.297 217.253 313.481 216.443C314.539 215.759 315.722 215.198 316.345 214.078C316.843 213.206 316.906 212.148 317.404 211.276C318.276 209.72 320.144 209.284 321.825 208.724C325.935 207.417 328.177 205.861 332.536 207.541C335.65 208.724 339.635 208.911 342.5 210.654C343.683 211.401 344.742 212.584 345.551 213.891C348.478 218.435 349.163 224.847 347.295 229.578C346.859 230.636 346.361 231.632 345.738 232.566C344.617 234.433 343.372 236.737 341.317 237.67C341.192 236.799 340.507 236.301 340.32 235.43C340.196 234.807 340.196 234.184 340.258 233.5C340.383 231.01 341.13 227.088 338.639 225.843C335.463 224.287 329.609 225.719 326.558 227.026C323.88 228.208 319.334 229.702 316.47 228.457C313.792 227.337 311.612 222.668 311.737 219.805Z" fill="#3B455A"/>
<path d="M339.262 246.634L367.098 238.48L356.823 203.682L365.292 197.581L385.779 237.857L380.113 251.801L353.522 265.558L339.262 246.634Z" fill="#CCCCCC"/>
<path d="M516.864 242.464L508.706 242.775L484.482 265.807L448.488 260.952L446.06 269.791L481.43 282.428H492.141L511.072 270.85L516.864 242.464Z" fill="#F4F4F4"/>
<path d="M448.55 266.43L443.755 270.04L439.957 270.289L439.645 269.044L441.7 267.737L434.29 267.55L432.982 264.189L441.14 260.578L449.36 261.388L448.55 266.43Z" fill="#EAC1A4"/>
<path d="M500.05 430.459L493.325 435.252L491.083 438.925C491.083 438.925 493.636 440.045 495.006 440.356C496.438 440.668 507.398 438.925 507.398 438.925V432.451L500.05 430.459Z" fill="#151F2D"/>
<path d="M552.484 432.513L549.993 437.057C549.993 437.057 548.436 442.784 549.806 442.411C551.176 442.037 558.711 440.73 558.96 439.734C559.271 438.738 562.51 434.878 562.946 434.194C563.319 433.509 561.7 428.84 561.7 428.84L552.484 432.513Z" fill="#151F2D"/>
<path d="M506.277 325.879L528.073 390.93L552.421 432.513L561.887 429.774L545.696 382.339C545.696 382.339 543.766 334.718 540.527 320.712L506.277 325.879Z" fill="#373737"/>
<path d="M489.028 335.714L497.497 432.451H507.585L510.699 382.962L516.552 339.138L494.383 313.18L489.028 335.714Z" fill="#373737"/>
<path d="M488.716 273.775C489.775 268.795 490.149 263.442 492.64 258.773C495.13 254.104 499.801 250.618 503.35 246.634C504.907 244.954 506.526 243.211 508.768 242.401C510.325 241.841 512.069 241.779 513.688 241.779C518.794 241.654 523.838 241.53 528.945 241.405C530.813 241.343 532.743 241.343 534.425 241.966C536.978 242.962 538.41 245.327 539.655 247.444C542.831 252.984 543.454 259.147 543.703 265.434C543.703 265.496 547.689 344.242 544.513 342.748C540.59 340.881 536.106 339.947 531.685 339.262C525.457 338.266 519.168 337.644 512.816 337.457L501.669 338.204H494.944C490.896 338.578 491.27 339.823 487.097 339.574C484.544 339.449 487.533 279.502 488.716 273.775Z" fill="#F4F4F4"/>
<path d="M517.922 244.393C520.413 244.269 522.966 244.144 525.457 244.082C525.582 242.09 525.582 240.036 525.395 238.044C527.512 237.421 530.003 236.488 530.501 234.309C530.626 233.624 530.564 232.939 530.501 232.255C530.19 229.391 529.816 226.528 529.505 223.664C529.381 222.668 529.256 221.672 528.758 220.801C527.886 219.244 526.142 218.497 524.399 218.124C520.04 217.128 515.182 217.813 511.633 220.489C510.699 221.236 509.827 222.108 509.329 223.166C508.644 224.847 508.955 226.777 509.329 228.582C509.64 230.263 510.014 231.881 510.325 233.562C510.699 235.492 511.322 237.67 513.065 238.48C513.999 238.915 515.12 238.853 515.992 239.476C517.549 240.409 517.175 242.713 517.922 244.393Z" fill="#EAC1A4"/>
<path d="M503.911 207.915C504.472 207.79 505.032 207.728 505.592 207.417C507.398 206.608 508.706 205.051 510.637 204.304C514.56 202.81 519.479 202.997 523.34 204.616C527.014 206.172 532.058 206.732 535.359 208.849C536.729 209.72 537.787 211.027 538.597 212.459C541.399 217.377 541.026 223.913 537.725 228.457C536.978 229.453 536.106 230.387 535.234 231.321C533.366 233.126 531.124 235.429 528.633 235.99C528.696 233.811 531.062 227.026 529.505 225.158C527.388 222.668 523.278 222.73 520.351 222.979C516.864 223.291 513.937 222.17 510.45 222.357C508.644 222.419 506.651 222.793 505.281 221.672C503.724 220.365 500.362 216.132 499.552 214.264C498.867 212.646 499.303 210.654 500.548 209.347C501.669 208.226 502.79 208.102 503.911 207.915Z" fill="#3B455A"/>
<path d="M518.607 244.331C518.358 246.199 517.798 248.253 517.798 248.253C517.798 248.253 503.724 288.715 502.416 291.952C502.105 292.699 501.98 293.446 501.98 294.256L505.219 303.718L511.633 295.812L520.289 250.494L522.406 248.689L523.153 244.082L518.607 244.331Z" fill="#635EA3"/>
<path d="M281.161 316.852L208.302 310.627C205.562 310.378 203.507 307.951 203.756 305.212L204.504 296.559C204.753 293.82 207.181 291.766 209.921 292.015L282.78 298.24C285.52 298.489 287.575 300.916 287.326 303.655L286.579 312.308C286.33 315.047 283.901 317.101 281.161 316.852Z" fill="#635EA3"/>
<path d="M210.482 263.815L160.975 258.026C146.528 256.345 133.388 266.741 131.644 281.183L128.78 305.461C127.099 319.903 137.498 333.037 151.945 334.78L201.452 340.57C215.899 342.25 229.039 331.855 230.783 317.413L233.647 293.135C235.328 278.693 224.867 265.558 210.482 263.815ZM218.079 291.33L215.214 315.607C214.529 321.397 209.049 325.692 203.258 325.007L153.751 319.218C147.96 318.533 143.663 313.055 144.348 307.266L147.213 282.988C147.898 277.199 153.378 272.904 159.169 273.589L208.676 279.378C214.405 280.063 218.764 285.541 218.079 291.33Z" fill="#635EA3"/>
<path d="M334.093 268.795H284.212C269.703 268.795 257.809 280.685 257.809 295.189V319.654C257.809 334.158 269.703 346.048 284.212 346.048H334.093C348.603 346.048 360.497 334.158 360.497 319.654V295.189C360.497 280.685 348.603 268.795 334.093 268.795ZM344.866 319.716C344.866 325.567 339.947 330.485 334.093 330.485H284.212C278.359 330.485 273.439 325.567 273.439 319.716V295.252C273.439 289.4 278.359 284.482 284.212 284.482H334.093C339.947 284.482 344.866 289.4 344.866 295.252V319.716Z" fill="#635EA3"/>
<path d="M493.138 311.561L491.705 287.159C490.833 272.655 478.254 261.512 463.745 262.384L413.989 265.372C399.479 266.243 388.333 278.818 389.204 293.322L390.637 317.724C391.508 332.228 404.088 343.371 418.597 342.499L468.353 339.511C482.863 338.64 494.009 326.065 493.138 311.561ZM467.419 323.824L417.663 326.812C411.872 327.186 406.641 322.517 406.267 316.728L404.835 292.326C404.461 286.537 409.132 281.308 414.923 280.934L464.679 277.946C470.47 277.573 475.701 282.241 476.075 288.031L477.507 312.433C477.881 318.284 473.21 323.513 467.419 323.824Z" fill="#635EA3"/>
<path d="M408.758 313.802H335.65C332.91 313.802 330.668 311.561 330.668 308.822V300.107C330.668 297.368 332.91 295.127 335.65 295.127H408.758C411.498 295.127 413.74 297.368 413.74 300.107V308.822C413.74 311.561 411.498 313.802 408.758 313.802Z" fill="#635EA3"/>
<path d="M525.52 263.815L521.846 286.288L481.555 296.746V307.453L529.754 302.348L538.099 288.902L537.289 254.104L525.52 263.815Z" fill="#F4F4F4"/>
<path d="M481.555 305.398L476.947 307.453L467.481 305.336L469.101 300.232L476.449 299.796L477.881 297.306L481.493 298.24L481.555 305.398Z" fill="#EAC1A4"/>
<path d="M276.927 261.512L267.648 264.998L265.344 274.896L270.762 276.079L275.121 270.165L278.733 269.916L282.095 264.438L276.927 261.512Z" fill="#EAC1A4"/>
<path d="M202.698 261.637L211.291 260.828L216.834 267.737L213.035 270.725L207.368 267.675L204.441 268.858L199.771 265.87L202.698 261.637Z" fill="#EAC1A4"/>
</svg>
