<svg width="551" height="556" viewBox="0 0 551 556" fill="none" xmlns="http://www.w3.org/2000/svg">
<g opacity="0.95">
<path opacity="0.28" d="M137.75 556H129.057C102.701 542.684 78.7341 525.309 57.6272 504.181C33.3543 479.884 14.0249 451.806 0.138794 420.614V410.967C26.2446 474.796 75.6513 526.699 137.75 556ZM57.6272 109.893C83.2054 84.2895 112.977 64.1901 146.165 50.1511C180.491 35.6117 216.984 28.2448 254.56 28.2448C292.163 28.2448 328.628 35.6117 362.982 50.1511C396.142 64.1901 425.942 84.2895 451.52 109.893C477.098 135.497 497.177 165.299 511.202 198.52C525.727 232.881 533.087 269.41 533.087 307.051C533.087 344.692 525.727 381.194 511.202 415.554C497.177 448.748 477.098 478.577 451.52 504.181C430.413 525.309 406.446 542.684 380.09 556H371.397C464.629 511.993 529.338 416.944 529.338 307.051C529.338 155.374 406.057 31.97 254.532 31.97C139.722 31.97 41.1583 102.804 0.110995 203.107V193.46C14.0249 162.296 33.3543 134.191 57.6272 109.893Z" fill="url(#paint0_linear_15_2039)"/>
</g>
<path opacity="0.95" d="M304.716 284.644H418.61C427.608 284.644 434.912 277.333 434.912 268.325V154.318C434.912 145.31 427.608 137.999 418.61 137.999H304.716C295.718 137.999 288.414 145.31 288.414 154.318V268.325C288.442 277.36 295.718 284.644 304.716 284.644Z" fill="url(#paint1_linear_15_2039)"/>
<path d="M327.767 251.256H395.587V254.62H327.767V251.256Z" fill="#96BFE6"/>
<path d="M337.376 261.848H385.978V265.212H337.376V261.848Z" fill="#96BFE6"/>
<path opacity="0.95" d="M83.0387 424.423H245.145C255.754 424.423 264.335 415.832 264.335 405.213V208.083C264.335 197.463 255.754 188.873 245.145 188.873H83.0387C72.4297 188.873 63.8481 197.463 63.8481 208.083V405.213C63.8481 415.832 72.4574 424.423 83.0387 424.423Z" fill="url(#paint2_linear_15_2039)"/>
<path d="M157.524 327.845H173.437V330.792H157.524V327.845Z" fill="#4598E6"/>
<path d="M141.277 354.839H233.814V360.538H141.277V354.839Z" fill="#96BFE6"/>
<path d="M158.996 382.25H233.814V387.949H158.996V382.25Z" fill="#96BFE6"/>
<path d="M189.962 368.544H233.814V374.243H189.962V368.544Z" fill="#96BFE6"/>
<path d="M117.06 212.364V215.255H100.091V231.185H97.2026V212.364H117.06ZM232.203 231.185H229.315V215.255H212.346V212.364H232.175V231.185H232.203ZM100.119 313.362V329.291H117.087V332.182H97.2581V313.362H100.119ZM229.315 313.362H232.203V332.182H212.374V329.291H229.343V313.362H229.315Z" fill="#4598E6"/>
<path d="M106.201 388.394C115.56 388.394 123.169 380.777 123.169 371.408C123.169 362.039 115.56 354.422 106.201 354.422C96.8414 354.422 89.2319 362.039 89.2319 371.408C89.2319 380.777 96.8692 388.394 106.201 388.394ZM106.201 357.73C113.755 357.73 119.865 363.874 119.865 371.408C119.865 378.97 113.727 385.086 106.201 385.086C98.6744 385.086 92.5367 378.942 92.5367 371.408C92.5367 363.846 98.6744 357.73 106.201 357.73Z" fill="#4598E6"/>
<path d="M107.284 378.08L115.004 370.379L112.671 368.044L107.284 373.437L99.7575 365.876L97.4246 368.211L107.284 378.08Z" fill="#4598E6"/>
<path opacity="0.95" d="M179.825 180.756H260.669C268.057 180.756 274.056 174.751 274.056 167.356V97.1332C274.056 89.7384 268.057 83.7336 260.669 83.7336H179.825C172.437 83.7336 166.438 89.7384 166.438 97.1332V167.328C166.411 174.751 172.409 180.756 179.825 180.756Z" fill="url(#paint3_linear_15_2039)"/>
<path d="M216.373 162.408H224.899V163.992H216.373V162.408Z" fill="#4598E6"/>
<path d="M214.957 102.248C214.957 102.248 209.874 105.028 211.485 111.895C213.096 118.762 213.707 119.651 212.402 122.431C211.096 125.211 209.93 136.832 211.346 138.944C212.735 141.057 226.899 128.575 228.482 118.567C230.065 108.559 226.51 104.333 225.26 102.749C223.983 101.192 219.428 99.6908 214.957 102.248Z" fill="#344052"/>
<path d="M205.403 158.96H210.847C211.096 156.264 211.346 154.401 211.291 154.123C211.208 153.678 216.706 139.25 217.206 138.055C217.734 136.859 219.734 133.662 220.011 130.66C220.289 127.658 216.345 126.434 216.345 126.434C211.041 127.38 209.264 134.719 209.264 134.719C209.264 134.719 207.042 149.592 205.903 153.762C205.625 154.846 205.487 156.736 205.403 158.96Z" fill="#EEA886"/>
<path d="M208.153 138.305L216.262 141.724C216.262 141.724 223.705 123.237 217.456 125.295C211.235 127.352 208.43 131.244 208.153 138.305Z" fill="#635EA3"/>
<path d="M209.958 147.006C210.208 148.841 211.152 155.346 210.958 157.098C210.93 157.376 210.791 158.043 210.624 158.96H230.148C229.62 157.098 229.148 155.458 228.871 154.512C227.926 151.371 228.843 150.509 229.315 148.007C229.509 147.034 230.148 145.144 230.87 143.031C231.12 142.336 231.342 141.585 231.592 140.863C232.453 138.194 232.842 135.469 233.092 133.885C234.258 126.379 228.482 125.656 228.482 125.656C226.343 125.267 222.594 124.099 222.594 124.099L216.734 125.322C216.734 125.322 216.179 125.545 215.373 126.129C214.985 126.407 214.54 126.796 214.04 127.296C213.402 127.963 212.124 129.854 210.847 131.911C210.458 132.55 210.069 133.19 209.708 133.829C208.514 135.886 207.653 137.554 207.681 139.445C207.653 141.307 209.708 145.172 209.958 147.006Z" fill="#635EA3"/>
<path d="M216.707 125.322C216.707 125.322 213.041 131.605 214.401 132.078C215.762 132.55 222.983 130.966 225.788 125.017C225.788 125.017 221.039 122.848 216.707 125.322Z" fill="#EEA886"/>
<path d="M217.234 128.186C217.234 128.186 220.511 129.576 223.455 125.017C223.455 125.017 222.65 119.846 224.344 116.843C226.038 113.841 216.984 120.43 216.984 120.43C216.984 120.43 217.123 121.041 217.29 121.959C217.373 122.431 217.456 122.959 217.512 123.543C217.568 124.016 217.595 124.516 217.623 125.017C217.651 126.184 217.568 127.352 217.234 128.186Z" fill="#EEA886"/>
<path d="M225.343 135.247C226.01 138.722 230.842 143.059 230.842 143.059C231.092 142.364 231.315 141.613 231.564 140.89C228.232 138.722 225.343 135.247 225.343 135.247Z" fill="#635EA3"/>
<path d="M226.565 137.999C226.871 139.25 228.287 152.038 228.121 152.483C228.037 152.733 227.343 155.68 226.677 158.988H232.981C233.62 156.875 234.008 155.124 233.925 154.123C233.536 149.814 234.98 136.053 234.98 136.053C234.98 136.053 236.286 127.741 229.398 126.685C229.398 126.685 225.316 127.213 225.066 130.243C224.788 133.245 226.232 136.72 226.565 137.999Z" fill="#EEA886"/>
<path d="M235.453 139.751L226.899 141.752C226.899 141.752 220.122 128.547 226.232 126.157C232.675 123.627 237.008 132.551 235.453 139.751Z" fill="#635EA3"/>
<path d="M215.734 102.971C215.734 102.971 208.292 105.696 213.013 118.539C217.734 131.383 227.343 116.343 225.899 108.448C224.427 100.58 215.734 102.971 215.734 102.971Z" fill="#EEA987"/>
<path d="M211.874 110.783C211.874 110.783 215.79 114.286 222.094 114.453C222.094 114.453 223.566 118.039 223.816 119.151C223.816 119.151 230.037 108.448 222.872 103.055C215.706 97.6614 209.235 108.531 211.874 110.783Z" fill="#344052"/>
<path d="M221.233 115.231C221.233 114.286 221.733 112.09 223.149 112.618C224.566 113.146 223.288 117.622 222.344 117.399C222.372 117.399 221.233 117.483 221.233 115.231Z" fill="#EEA987"/>
<path d="M217.595 124.794C221.094 123.821 222.427 120.485 222.483 120.374C219.65 124.044 217.512 123.515 217.512 123.515C217.567 124.016 217.567 124.322 217.595 124.794Z" fill="#A77860"/>
<path d="M194.655 101.275V102.832H185.546V111.395H183.991V101.303H194.655V101.275ZM256.448 111.367H254.893V102.804H245.784V101.248H256.421V111.367H256.448ZM185.546 155.485V164.048H194.655V165.605H184.018V155.513H185.546V155.485ZM254.921 155.485H256.476V165.577H245.839V164.02H254.949V155.485H254.921Z" fill="#4598E6"/>
<path d="M355.956 234.882H367.37V236.995H355.956V234.882Z" fill="#4598E6"/>
<path d="M327.517 153.261V155.319H315.353V166.744H313.298V153.261H327.517ZM410.056 166.744H408.001V155.319H395.837V153.261H410.056V166.744ZM315.353 225.68V237.106H327.517V239.163H313.298V225.68H315.353ZM408.001 225.68H410.056V239.163H395.837V237.106H408.001V225.68Z" fill="#4598E6"/>
<path d="M361.316 116.815C361.316 116.815 354.123 112.201 347.652 120.402C341.181 128.603 343.514 136.47 344.847 143.837C346.18 151.148 352.706 167.828 349.957 175.195C347.18 182.562 350.734 186.399 350.734 186.399C350.734 186.399 373.008 192.098 370.397 158.571C367.814 125.044 361.316 116.815 361.316 116.815Z" fill="#163342"/>
<path d="M374.869 191.153C374.869 191.153 381.395 208.444 387.56 224.568H404.279C401.724 216.673 399.141 208.25 398.836 206.721C398.281 203.718 398.031 194.822 394.615 188.567C391.199 182.312 383.034 179.866 383.034 179.866C369.592 180.478 374.869 191.153 374.869 191.153Z" fill="#635EA3"/>
<path d="M332.988 208.027C332.988 208.027 335.599 216.506 338.098 224.568H392.615C392.837 223.873 393.143 223.123 393.476 222.317C397.475 213.059 399.419 205.192 397.475 199.938C395.531 194.683 384.478 180.283 381.617 179.727C378.757 179.143 370.564 175.279 370.564 175.279C365.204 174.473 357.567 174.862 354.928 175.807C352.318 176.725 337.682 178.198 332.322 182.368C326.156 187.15 332.988 208.027 332.988 208.027Z" fill="#EDDAD3"/>
<path d="M373.174 193.599L378.173 187.761L373.841 172.36C373.841 172.332 372.369 180.922 373.174 193.599Z" fill="#D6C5BE"/>
<path d="M374.48 165.771C374.48 165.771 372.841 180.867 373.175 185.759C373.175 185.759 364.649 194.322 354.928 175.751C354.928 175.751 359.011 168.106 355.928 157.681C352.873 147.284 374.48 165.771 374.48 165.771Z" fill="#EEA886"/>
<path d="M373.174 185.787V193.599L363.343 186.26L373.174 185.787Z" fill="#EEA886"/>
<path d="M373.174 193.599L369.092 188.54L355.345 174.834L350.901 179.115L373.174 193.599Z" fill="#D6C5BE"/>
<path d="M327.267 194.183C327.267 194.183 329.628 202.912 335.988 224.54H364.371C365.26 213.17 365.732 204.107 365.537 201.355C364.982 193.655 353.456 176.141 353.456 176.141C353.456 176.141 346.263 177.002 338.543 178.698C329.739 180.589 327.267 194.183 327.267 194.183Z" fill="#635EA3"/>
<path d="M376.646 177.976C383.672 186.399 386.172 204.886 386.561 224.568H392.865C400.197 209.251 398.225 202.273 398.225 202.273C394.393 189.179 383.034 179.866 383.034 179.866L376.646 177.976Z" fill="#635EA3"/>
<path d="M378.174 187.733L384.45 189.485L373.841 172.332L378.174 187.733Z" fill="#FAE6DE"/>
<path d="M369.092 188.54L363.343 196.073L351.623 176.391L355.345 174.834L369.092 188.54Z" fill="#FAE6DE"/>
<path d="M374.146 169.107L373.841 172.082C373.841 172.082 367.065 173.416 358.205 162.574C358.177 162.546 364.482 170.247 374.146 169.107Z" fill="#A77860"/>
<path d="M372.425 169.33C375.091 169.218 382.562 168.357 386.227 151.148C390.727 130.132 380.784 119.234 372.286 117.205C363.788 115.175 355.928 118.15 351.568 129.131C351.568 129.131 348.374 137.693 353.54 152.955C358.705 168.218 369.536 169.413 372.425 169.33Z" fill="#EEA987"/>
<path d="M365.593 130.827C365.593 130.827 377.007 131.549 387.644 147.507C387.644 147.507 392.615 128.297 379.618 119.512C366.62 110.755 357.511 118.289 354.345 122.097C354.345 122.097 349.79 123.154 349.651 131.772C349.513 140.418 343.708 153.428 356.428 159.628C356.428 159.628 355.206 149.758 356.345 147.507C357.483 145.255 361.371 146.812 365.593 130.827Z" fill="#163342"/>
<path d="M356.983 143.698C356.4 142.197 354.845 141.613 353.984 143.198C353.123 144.81 354.15 151.01 356.455 151.705C358.733 152.4 358.15 146.728 356.983 143.698Z" fill="#EEA987"/>
<path d="M316.242 224.568H334.821C336.765 219.787 338.598 215.533 339.792 212.475C343.819 202.356 359.816 183.285 349.624 176.947C349.624 176.947 336.265 176.141 329.545 183.925C322.851 191.736 323.212 200.994 321.491 205.025C320.269 208.027 317.797 218.285 316.242 224.568Z" fill="#635EA3"/>
<path d="M100.841 302.353H121.531C122.253 297.349 122.781 293.735 122.781 293.735C122.781 293.735 123.086 297.098 123.559 302.353H210.569C210.958 298.572 211.319 296.237 211.485 296.153C211.735 296.014 212.652 298.544 213.846 302.353H237.286C231.176 278 222.539 248.81 217.179 246.753C208.125 243.278 171.188 231.88 171.188 231.88H150.109C150.109 231.88 112.644 242.583 109.173 254.203C106.701 262.487 103.452 280.752 100.841 302.353Z" fill="#635EA3"/>
<path d="M123.059 286.507L123.753 286.368C123.725 286.173 120.309 267.436 125.142 256.816L124.503 256.538C119.559 267.353 123.031 286.312 123.059 286.507Z" fill="#635EA3"/>
<path d="M123.197 282.726C123.225 282.587 125.225 268.048 129.585 262.599L129.057 262.154C124.558 267.742 122.586 282.003 122.503 282.615L123.197 282.726Z" fill="#635EA3"/>
<path d="M159.69 163.408C159.69 163.408 140 166.522 142.999 197.352C145.999 228.182 163.356 225.653 164.523 225.625C165.689 225.597 181.964 226.181 183.241 188.54C183.241 188.54 183.797 160.712 159.69 163.408Z" fill="#EEA987"/>
<path d="M150.497 216.534C150.497 216.534 151.025 229.211 149.803 231.963C148.581 234.715 166.05 243.528 176.714 233.687C176.714 233.687 174.132 219.898 174.854 215.033C175.576 210.168 150.497 216.534 150.497 216.534Z" fill="#EEA987"/>
<path d="M142.694 188.623C142.694 188.623 140.527 186.316 139.75 188.651C138.972 190.986 143.083 201.411 142.833 201.884C142.833 201.884 143.221 202.801 143.749 202.301C144.249 201.8 142.694 188.623 142.694 188.623Z" fill="#EEA987"/>
<path d="M183.019 188.234C183.019 188.234 185.13 185.899 185.963 188.206C186.796 190.513 182.852 201.022 183.158 201.494C183.158 201.494 182.769 202.412 182.241 201.911C181.714 201.439 183.019 188.234 183.019 188.234Z" fill="#EEA987"/>
<path d="M142.721 193.349L145.526 197.13C145.526 197.13 145.443 188.873 145.887 187.567C146.332 186.26 145.36 181.756 145.721 180.811C146.109 179.866 159.19 183.341 180.658 181.228C180.658 181.228 178.27 188.679 179.658 189.207C181.047 189.735 180.38 198.881 180.38 198.881L182.685 196.268C182.685 196.268 185.296 180.644 185.046 178.031C184.713 174.556 185.907 158.321 155.719 161.129C152.275 161.435 148.942 162.686 146.193 164.798C143.082 167.161 139.889 170.859 140.194 175.946C140.583 182.618 142.721 193.349 142.721 193.349Z" fill="#424242"/>
<path d="M149.831 231.963C149.831 231.963 145.388 232.908 163.967 250.728C163.967 250.728 177.159 236.133 176.715 233.687C176.298 231.24 149.831 231.963 149.831 231.963Z" fill="#EEA987"/>
<path d="M213.485 302.353H237.952C234.147 287.813 229.565 272.468 226.732 262.627C221.844 245.696 215.151 245.224 215.151 245.224L211.513 296.153C211.513 296.153 212.318 298.628 213.485 302.353Z" fill="#373737"/>
<path d="M163.967 250.728L158.996 260.542L143.277 235.8L149.831 231.963L163.967 250.728Z" fill="#373737"/>
<path d="M100.258 302.353H121.725C122.281 297.905 122.642 294.986 122.642 294.986C122.642 294.986 122.697 297.821 122.781 302.353H153.386C153.358 300.991 153.275 299.712 153.164 298.544C150.609 274.136 149.859 231.963 149.859 231.963C149.859 231.963 117.143 236.356 109.228 254.203C104.59 264.489 101.896 285.089 100.258 302.353Z" fill="#373737"/>
<path d="M163.967 250.728L170.994 260.542L181.158 242.36L176.715 233.687L163.967 250.728Z" fill="#373737"/>
<path d="M176.715 233.687C176.715 233.687 180.492 249.866 182.352 273.33C182.88 280.002 185.269 290.51 188.462 302.353H210.874L211.513 296.153L215.151 245.224L176.715 233.687Z" fill="#373737"/>
<path d="M150.581 225.68L139.666 231.963L151.081 269.271L150.581 225.68Z" fill="#373737"/>
<path d="M175.659 227.209L176.714 233.687L183.935 267.798L187.629 231.88L175.659 227.209Z" fill="#373737"/>
<path d="M173.41 221.622C173.41 221.622 169.244 226.209 162.967 225.708C156.719 225.208 152.331 221.399 152.331 221.399C152.331 221.399 154.997 227.932 163.217 228.321C171.466 228.738 173.41 221.622 173.41 221.622Z" fill="#A77860"/>
<path d="M393.393 244.612C397.892 246.419 395.337 255.704 395.781 272.607C396.226 289.509 408.668 292.567 408.668 292.567C408.668 292.567 403.196 286.09 402.086 280.168C400.975 274.247 413.278 259.263 407.89 247.503C403.752 238.413 392.865 244.251 392.865 244.251L393.393 244.612Z" fill="#754836"/>
<path d="M321.824 335.101C321.824 335.101 324.046 334.323 325.351 334.573C326.656 334.823 322.879 328.096 322.879 328.096L321.824 335.101Z" fill="#EEA886"/>
<path d="M322.879 328.096C322.879 328.096 319.408 325.038 318.852 324.565C318.297 324.12 316.325 323.926 314.048 323.898C311.77 323.87 308.688 324.871 308.466 325.177C308.243 325.51 307.882 325.733 307.882 326.733C307.882 327.734 308.466 328.596 308.466 328.596C308.466 328.596 307.882 329.847 308.66 330.848C308.66 330.848 308.188 332.043 309.243 333.044C309.243 333.044 308.799 334.239 309.632 334.879C309.632 334.879 311.604 335.073 312.326 335.351C313.048 335.629 317.158 335.768 321.157 335.268C321.13 335.268 325.545 334.906 322.879 328.096Z" fill="#EEA886"/>
<path d="M316.159 329.013C316.159 329.013 317.047 331.181 317.603 331.654C318.158 332.127 314.076 334.823 314.076 334.823C314.076 334.823 313.548 330.181 316.159 329.013Z" fill="#CF8C6C"/>
<path d="M309.049 325.177C309.049 325.177 314.825 325.371 314.909 326.317C314.992 327.262 314.464 327.651 314.464 327.651L316.797 328.819C316.797 328.819 317.908 330.459 315.797 331.209C315.797 331.209 316.992 332.627 314.881 333.1C314.881 333.1 315.242 334.406 314.298 334.796C313.353 335.185 309.632 334.907 309.632 334.907C309.632 334.907 308.604 334.573 308.965 333.128C308.965 333.128 308.021 332.21 308.521 330.904C308.521 330.904 307.771 330.042 308.299 328.652C308.299 328.652 306.91 326.622 308.438 325.232C308.466 325.177 308.799 325.149 309.049 325.177Z" fill="#DB9C7C"/>
<path d="M314.937 326.261C314.937 326.261 313.992 320.868 314.27 318.532C314.326 318.004 314.326 317.81 314.826 317.671C315.353 317.532 316.214 319.366 316.77 321.006C317.353 322.619 318.88 324.648 318.88 324.648C318.88 324.648 318.964 326.288 314.937 326.261Z" fill="#EEA886"/>
<path d="M404.28 500.595C404.28 500.595 398.059 509.713 395.865 511.659C395.865 511.659 391.504 513.911 391.393 515.718C391.143 519.137 390.838 522.306 396.559 522.473C402.28 522.64 405.974 521.278 407.029 517.803C408.084 514.328 410.584 511.353 410.584 511.353V518.609H411.861C411.861 518.609 412.195 511.603 412.278 510.297C412.361 509.018 413.194 504.042 410.473 501.846C407.751 499.649 404.28 500.595 404.28 500.595Z" fill="#162D40"/>
<path d="M395.032 512.104C395.032 512.104 398.114 512.966 401.808 512.048C405.474 511.131 409.029 502.318 410.084 501.568L411.028 498.009H403.863C403.863 498.009 403.808 500.65 402.641 502.902C401.475 505.154 395.032 512.104 395.032 512.104Z" fill="#EEA886"/>
<path d="M363.816 497.175C363.816 497.175 362.872 499.399 361.122 501.679C359.817 503.375 355.817 510.297 354.04 510.797C352.263 511.27 346.791 512.243 346.319 515.301C345.847 518.359 345.597 520.555 350.985 520.777C356.373 521.028 359.928 521.333 362.51 517.553C365.093 513.772 369.204 511.02 369.204 511.02V520.916H371.286C371.286 520.916 372.259 510.63 372.814 509.908C373.369 509.185 374.841 501.29 369.842 497.175C364.816 493.061 363.816 497.175 363.816 497.175Z" fill="#162D40"/>
<path d="M354.04 510.797C354.04 510.797 358.872 512.02 360.733 510.797C362.594 509.574 368.898 498.927 370.981 498.287C370.981 498.287 368.954 494.173 363.843 497.175C363.816 497.175 355.401 509.046 354.04 510.797Z" fill="#EEA886"/>
<path d="M407.029 349.085C407.029 349.085 413.833 357.953 415.694 368.489C417.555 379.025 414.611 414.331 414.694 419.53C414.777 424.728 419.499 441.325 418.554 451.111C417.61 460.896 412.306 501.401 412.306 501.401L400.502 501.178C400.502 501.178 402.863 457.06 402.252 452.945C401.641 448.831 399.725 431.345 399.475 429.649C399.225 427.953 386.033 383.167 386.033 375.578C386.005 367.989 390.588 336.714 407.029 349.085Z" fill="#373737"/>
<path d="M372.786 352.56C372.786 352.56 361.594 395.344 360.261 401.265C358.928 407.187 356.262 414.943 356.401 416.027C356.539 417.111 357.817 435.376 357.817 435.376L361.011 497.537H372.814C372.814 497.537 376.591 457.977 377.202 449.999C377.813 442.02 372.842 429.677 374.064 426.285C375.286 422.894 393.532 383.835 393.532 383.835C393.532 383.835 407.307 340.133 372.786 352.56Z" fill="#373737"/>
<path d="M375.925 288.425C375.925 288.425 369.009 289.231 366.093 293.262C363.177 297.293 362.205 303.409 361.566 305.439C360.928 307.468 351.957 326.594 351.374 327.067C350.791 327.54 342.598 327.234 337.682 327.373C330.767 327.567 322.546 327.401 322.546 327.401L323.546 337.297C323.546 337.297 356.429 338.076 358.706 335.49C363.733 329.791 375.036 309.914 375.036 309.914C375.036 309.914 386.811 293.763 375.925 288.425Z" fill="#635EA3"/>
<path d="M384.062 285.367C384.062 285.367 378.257 288.119 376.258 288.508C374.258 288.898 366.426 299.072 365.066 302.77C363.705 306.467 365.066 312.055 367.898 318.588C370.731 325.121 368.065 327.289 369.343 333.822C370.62 340.355 371.759 354.172 371.509 357.814C371.259 361.455 404.085 362.123 411.584 355.506C411.584 355.506 404.058 344.22 403.086 342.607C402.114 340.995 402.919 332.21 403.808 329.958C404.696 327.706 413.972 309.525 413.972 309.525C413.972 309.525 415.417 293.735 411.056 290.343C407.279 287.396 396.948 286.34 395.087 285.701C393.227 285.089 387.839 284.811 384.062 285.367Z" fill="#EDDAD3"/>
<path d="M382.201 298.322L378.674 294.18L381.729 283.31C381.757 283.31 382.784 289.37 382.201 298.322Z" fill="#D6C5BE"/>
<path d="M381.285 278.667C381.285 278.667 382.451 289.315 382.201 292.79C382.201 292.79 388.228 298.822 395.087 285.728C395.087 285.728 392.199 280.335 394.365 272.968C396.559 265.629 381.285 278.667 381.285 278.667Z" fill="#EEA886"/>
<path d="M382.201 292.79V298.322L389.144 293.123L382.201 292.79Z" fill="#EEA886"/>
<path d="M382.201 298.322L385.089 294.736L394.782 285.061L397.92 288.091L382.201 298.322Z" fill="#D6C5BE"/>
<path d="M393.365 363.068C396.087 376.162 415.861 361.595 415.861 361.595C415.861 361.595 403.03 340.05 408.14 322.814C408.168 322.675 408.223 322.536 408.251 322.397C408.584 321.312 408.89 320.284 409.223 319.283C413.889 305.049 418.11 301.713 418.11 301.713C418.11 301.713 412.167 288.647 406.668 287.786C401.169 286.924 396.143 285.979 396.143 285.979C396.143 285.979 388.005 298.35 387.616 303.798C387.228 309.247 390.644 349.974 393.365 363.068Z" fill="#635EA3"/>
<path d="M363.816 304.326C363.816 304.326 365.121 316.67 367.62 322.813C367.62 322.813 368.676 335.879 368.509 340.466C368.342 345.053 367.259 362.428 367.259 362.428L372.925 365.737C374.064 366.404 375.48 365.486 375.313 364.152C373.703 350.919 368.509 300.74 379.757 287.257L375.23 288.592C375.23 288.62 365.954 297.293 363.816 304.326Z" fill="#635EA3"/>
<path d="M378.674 294.18L374.23 295.403L381.756 283.31L378.674 294.18Z" fill="#FAE6DE"/>
<path d="M385.089 294.736L389.144 300.073L397.448 286.229L394.782 285.061L385.089 294.736Z" fill="#FAE6DE"/>
<path d="M365.593 324.315C365.593 324.315 362.955 316.003 364.51 310.137C364.51 310.137 364.288 315.335 367.398 322.174L365.593 324.315Z" fill="#635EA3"/>
<path d="M385.478 244.306C381.229 243.889 371.703 245.585 369.703 256.816C369.703 256.816 369.898 259.874 370.537 262.293C371.175 264.712 368.676 271.662 369.231 272.051C369.787 272.412 372.064 272.968 372.064 272.968C372.064 272.968 374.175 280.78 376.896 280.836C379.59 280.891 389.921 279.279 395.198 269.91C400.447 260.569 402.613 245.947 385.478 244.306Z" fill="#EEA886"/>
<path d="M369.703 256.789C369.703 256.789 376.396 261.82 383.201 263.099C390.005 264.378 393.698 276.221 393.698 276.221C393.698 276.221 405.141 259.013 397.198 248.032C389.283 237.106 368.842 243.584 369.703 256.789Z" fill="#754836"/>
<path d="M386.061 262.932C386.172 261.598 387.728 259.68 389.81 261.598C391.893 263.516 388.672 269.688 386.922 268.993C385.2 268.298 385.978 264.295 386.061 262.932Z" fill="#EEA886"/>
<path d="M381.284 280.224C381.451 281.058 381.59 282.031 381.729 283.032C387.45 279.779 390.449 275.609 390.449 275.609C387.117 278.334 381.284 280.224 381.284 280.224Z" fill="#A77860"/>
<path d="M376.036 336.602L400.059 378.275L426.803 362.846L403.808 320.534L376.036 336.602Z" fill="#524B49"/>
<path d="M387.95 364.291C387.95 364.291 389.033 364.291 389.533 364.069C389.533 364.069 390.366 363.568 390.977 363.263C391.171 363.151 391.338 363.096 391.477 363.04C391.977 362.873 393.087 362.651 394.171 361.9C395.226 361.15 399.003 356.813 399.003 356.813L397.226 354.116L395.92 351.336C395.92 351.336 388.005 351.837 386.95 352.421C386.839 352.476 386.755 352.532 386.644 352.587C385.783 353.171 385.395 353.95 384.978 354.311C384.839 354.45 383.395 355.84 383.451 356.424C383.506 357.258 383.895 357.786 384.395 358.064C384.395 358.064 384.589 359.676 385.395 360.427C385.395 360.427 385.533 361.928 386.783 362.568C386.755 362.568 387.061 364.069 387.95 364.291Z" fill="#EEA886"/>
<path d="M403.558 287.591C403.558 287.591 411.528 286.563 415.722 294.625C419.916 302.687 419.888 306.106 420.443 310.054C420.971 313.779 423.359 323.898 423.609 324.954C423.859 326.011 429.247 338.493 426.775 342.858C424.276 347.25 399.003 360.149 399.17 361.122C399.336 362.095 394.782 351.364 394.782 351.364C394.782 351.364 405.002 345.665 406.668 343.914C409.39 341.05 415.139 337.992 413.945 334.434C412.556 330.264 408.39 316.253 407.446 314.196C406.502 312.111 397.42 290.204 403.558 287.591Z" fill="#635EA3"/>
<path d="M404.252 305.744C404.557 313.473 408.251 322.397 408.251 322.397C408.584 321.312 408.89 320.284 409.223 319.283C407.14 313.445 404.252 305.744 404.252 305.744Z" fill="#872929"/>
<path d="M243.09 312.111L217.428 326.233L191.656 285.645L222.844 274.803L243.09 312.111Z" fill="#373737"/>
<path d="M241.479 310.915L217.484 324.12L193.378 286.146L222.511 275.999L241.479 310.915Z" fill="white"/>
<path d="M250.255 303.799C250.255 303.799 245.784 301.658 243.84 300.546C241.868 299.434 236.841 297.905 236.424 297.516C236.008 297.127 221.483 296.265 220.594 295.486C219.705 294.736 218.845 297.266 222.622 298.1C226.399 298.934 231.647 300.935 231.925 302.409C232.203 303.882 228.065 304.243 227.621 305.439C227.204 306.662 227.732 306.384 228.343 306.634C228.954 306.884 233.286 304.494 235.202 305.161C237.119 305.856 240.035 304.911 241.507 305.411C242.979 305.911 250.088 308.302 250.088 308.302L250.255 303.799Z" fill="#EEA886"/>
<path d="M216.178 321.146C216.178 321.146 212.429 317.754 210.596 316.364C208.791 314.946 205.375 310.776 204.875 310.554C204.375 310.304 197.877 296.932 196.794 296.404C195.71 295.876 197.793 294.069 200.043 297.293C202.292 300.518 206.236 304.688 207.736 304.382C209.235 304.077 207.958 300.018 208.93 299.156C209.902 298.294 209.874 298.906 210.346 299.351C210.818 299.795 210.235 304.855 211.624 306.384C213.012 307.913 213.262 311.054 214.29 312.25C215.318 313.445 220.372 319.228 220.372 319.228L216.178 321.146Z" fill="#EEA886"/>
<path d="M296.996 501.846C296.996 501.846 297.801 507.489 297.912 508.323C298.023 509.157 306.938 507.823 306.938 507.823L307.66 501.095C307.66 501.123 298.134 501.067 296.996 501.846Z" fill="#635EA3"/>
<path d="M297.829 507.628C297.829 507.628 294.996 511.02 292.274 512.521C289.525 513.994 285.248 514.578 283.609 516.135C282.443 517.247 279.36 522.001 290.719 521.917C302.078 521.834 307.549 522.584 308.771 520.75C309.993 518.915 307.021 507.267 307.021 507.267C307.021 507.267 304.328 508.212 297.829 507.628Z" fill="#373737"/>
<path d="M233.036 501.846C233.036 501.846 233.842 507.489 233.953 508.323C234.064 509.157 242.979 507.823 242.979 507.823L243.701 501.095C243.701 501.123 234.147 501.067 233.036 501.846Z" fill="#635EA3"/>
<path d="M233.842 507.628C233.842 507.628 231.009 511.02 228.287 512.521C225.538 513.994 215.484 515.217 213.873 516.746C212.707 517.858 210.763 522.306 226.76 521.889C238.119 521.584 243.59 522.557 244.812 520.722C246.034 518.887 243.062 507.239 243.062 507.239C243.062 507.239 240.507 508.267 233.842 507.628Z" fill="#373737"/>
<path d="M289.608 356.924C289.608 356.924 297.995 370.268 297.384 382.334C296.773 394.399 300.439 407.576 301.689 420.169C303.105 434.208 308.854 467.457 309.049 474.991C309.271 482.497 308.16 506.488 308.16 506.488L296.662 506.739C296.662 506.739 286.998 448.609 284.498 442.687C281.999 436.766 269.584 394.482 269.168 389.728C268.724 384.975 289.608 356.924 289.608 356.924Z" fill="#373737"/>
<path d="M245.451 358.731C245.451 358.731 239.118 391.786 238.285 399.18C237.452 406.575 236.897 434.903 236.48 439.518C236.064 444.133 233.703 499.9 231.481 506.739H246.2C246.2 506.739 257.504 466.206 257.504 447.024C257.504 427.842 266.224 405.324 271.862 392.675C277.5 380.026 290.386 379.72 293.857 356.257C293.83 356.257 250.144 351.281 245.451 358.731Z" fill="#373737"/>
<path d="M275.611 244.751C275.611 244.751 264.363 240.554 259.17 249.116C253.976 257.706 254.476 274.886 260.142 276.999C265.807 279.112 274.333 278 277.249 272.635C280.166 267.269 282.776 259.513 282.665 254.315C282.526 249.116 278.555 246.253 275.611 244.751Z" fill="#EEA886"/>
<path d="M261.364 277.388C261.364 277.388 261.836 280.419 261.058 281.92C260.281 283.421 275.639 283.449 275.639 283.449C275.639 283.449 276.889 275.303 279.249 268.409C281.638 261.542 261.364 277.388 261.364 277.388Z" fill="#EEA886"/>
<path d="M279.249 268.437C279.249 268.437 278.194 270.188 273.861 269.521C269.529 268.854 264.252 263.071 262.447 262.432C260.642 261.793 260.614 260.736 260.614 260.736L259.475 262.404L257.559 262.515C257.559 262.515 259.308 257.372 256.67 255.26C254.032 253.147 259.42 238.58 273.306 243.417C273.306 243.417 283.97 246.364 283.581 252.424C283.193 258.484 281.637 265.407 279.249 268.437Z" fill="#3A3F47"/>
<path d="M260.142 281.753C260.142 281.753 260.198 278.89 261.475 278.612C262.78 278.334 275.806 277.083 277.389 277.722V281.058C277.389 281.058 274.334 282.948 260.142 281.753Z" fill="#E2D2CA"/>
<path d="M260.92 258.512C261.17 257.484 263.753 254.592 264.752 257.706C265.752 260.82 263.253 265.017 261.864 264.656C260.475 264.295 260.309 261.098 260.92 258.512Z" fill="#EEA886"/>
<path d="M208.486 315.586C208.402 315.642 208.402 315.642 208.486 315.586V315.586Z" fill="#635EA3"/>
<path d="M299.078 388.728C299.078 388.728 292.163 390.757 280.388 392.064C268.612 393.37 239.174 391.591 239.007 390.201C238.813 388.811 245.339 338.354 244.978 335.741C244.617 333.155 244.395 323.87 244.395 323.87C244.256 326.4 241.673 336.769 238.563 342.413C237.424 344.442 233.647 350.864 231.842 349.391C223.038 342.357 209.374 315.808 208.513 315.586C209.235 315.28 214.984 312.611 215.79 312.361C216.484 312.138 222.844 318.866 226.704 323.036C228.426 324.899 229.648 326.261 229.648 326.261C230.759 323.759 234.814 307.968 236.063 302.492C238.896 290.176 238.48 289.648 238.48 289.648C247.089 287.035 260.17 281.725 260.17 281.725L277.416 281.03C277.416 281.03 293.246 284.533 299.495 287.341C300.078 287.619 300.078 301.491 301.717 305.133L296.551 316.058C296.551 316.058 293.552 337.687 292.941 347.306C292.635 351.726 299.078 388.728 299.078 388.728Z" fill="#635EA3"/>
<path d="M302.411 323.147C301.967 324.593 299.912 325.844 298.579 326.372C297.718 326.706 296.773 326.817 295.829 326.65L295.163 326.511L283.332 324.315C283.332 324.315 280.749 294.485 299.495 287.341C299.967 287.508 306.549 309.803 302.411 323.147Z" fill="#635EA3"/>
<path d="M298.579 326.372C297.718 326.706 296.773 326.817 295.829 326.65L295.163 326.511L296.329 311.277L298.579 326.372Z" fill="#702222"/>
<path d="M229.62 326.261L228.176 332.377C228.176 332.377 226.621 326.233 226.676 323.036C228.398 324.899 229.62 326.261 229.62 326.261Z" fill="#702222"/>
<path d="M278.805 245.78C278.805 245.78 293.552 243.917 279.055 268.604L278.805 245.78Z" fill="#3A3F47"/>
<path d="M203.542 283.477L202.042 280.891L213.846 276.805L215.345 279.362L203.542 283.477Z" fill="#373737"/>
<g opacity="0.95">
<path opacity="0.95" d="M102.146 164.048H93.759L96.3417 158.738H104.701L102.146 164.048Z" fill="url(#paint4_linear_15_2039)"/>
<path opacity="0.95" d="M106.062 164.048H104.062L106.617 158.738H108.617L106.062 164.048Z" fill="url(#paint5_linear_15_2039)"/>
<path opacity="0.95" d="M134.973 157.709H101.091L102.201 155.068H136.111L134.973 157.709Z" fill="url(#paint6_linear_15_2039)"/>
</g>
<path d="M284.054 51.43H296.857C297.301 51.43 297.634 51.0686 297.634 50.6516V47.8715C297.634 47.4267 297.273 47.0931 296.857 47.0931H284.054C283.609 47.0931 283.276 47.4545 283.276 47.8715V50.6516C283.276 51.0964 283.637 51.43 284.054 51.43Z" fill="url(#paint7_linear_15_2039)"/>
<path d="M284.054 61.8272H296.857C297.301 61.8272 297.634 61.4658 297.634 61.0488V58.2688C297.634 57.824 297.273 57.4904 296.857 57.4904H284.054C283.609 57.4904 283.276 57.8518 283.276 58.2688V61.0488C283.276 61.4936 283.637 61.8272 284.054 61.8272Z" fill="url(#paint8_linear_15_2039)"/>
<path d="M284.054 72.2244H296.857C297.301 72.2244 297.634 71.863 297.634 71.446V68.666C297.634 68.2212 297.273 67.8876 296.857 67.8876H284.054C283.609 67.8876 283.276 68.249 283.276 68.666V71.446C283.276 71.863 283.637 72.2244 284.054 72.2244Z" fill="url(#paint9_linear_15_2039)"/>
<path d="M274.056 51.43H276.583C277.027 51.43 277.36 51.0686 277.36 50.6516V47.8715C277.36 47.4267 276.999 47.0931 276.583 47.0931H274.056C273.611 47.0931 273.278 47.4545 273.278 47.8715V50.6516C273.25 51.0964 273.611 51.43 274.056 51.43Z" fill="url(#paint10_linear_15_2039)"/>
<path d="M274.056 61.8272H276.583C277.027 61.8272 277.36 61.4658 277.36 61.0488V58.2688C277.36 57.824 276.999 57.4904 276.583 57.4904H274.056C273.611 57.4904 273.278 57.8518 273.278 58.2688V61.0488C273.25 61.4936 273.611 61.8272 274.056 61.8272Z" fill="url(#paint11_linear_15_2039)"/>
<path d="M274.056 72.2244H276.583C277.027 72.2244 277.36 71.863 277.36 71.446V68.666C277.36 68.2212 276.999 67.8876 276.583 67.8876H274.056C273.611 67.8876 273.278 68.249 273.278 68.666V71.446C273.25 71.863 273.611 72.2244 274.056 72.2244Z" fill="url(#paint12_linear_15_2039)"/>
<path d="M336.321 306.634H321.296L325.879 297.099H340.903L336.321 306.634Z" fill="url(#paint13_linear_15_2039)"/>
<path d="M343.347 306.634H339.765L344.375 297.099H347.958L343.347 306.634Z" fill="url(#paint14_linear_15_2039)"/>
<defs>
<linearGradient id="paint0_linear_15_2039" x1="58.299" y1="237.818" x2="686.336" y2="454.612" gradientUnits="userSpaceOnUse">
<stop stop-color="#D1D7E0"/>
<stop offset="1" stop-color="#EBEBFF"/>
</linearGradient>
<linearGradient id="paint1_linear_15_2039" x1="351.213" y1="401.159" x2="362.675" y2="193.618" gradientUnits="userSpaceOnUse">
<stop stop-color="#D1D7E0"/>
<stop offset="1" stop-color="#EBEBFF"/>
</linearGradient>
<linearGradient id="paint2_linear_15_2039" x1="164.092" y1="459.018" x2="164.092" y2="245.352" gradientUnits="userSpaceOnUse">
<stop stop-color="#D1D7E0"/>
<stop offset="1" stop-color="#EBEBFF"/>
</linearGradient>
<linearGradient id="paint3_linear_15_2039" x1="220.231" y1="194.99" x2="220.231" y2="106.981" gradientUnits="userSpaceOnUse">
<stop stop-color="#D1D7E0"/>
<stop offset="1" stop-color="#EBEBFF"/>
</linearGradient>
<linearGradient id="paint4_linear_15_2039" x1="104.7" y1="161.399" x2="93.7669" y2="161.399" gradientUnits="userSpaceOnUse">
<stop stop-color="#D1D7E0"/>
<stop offset="1" stop-color="#EBEBFF"/>
</linearGradient>
<linearGradient id="paint5_linear_15_2039" x1="108.617" y1="161.399" x2="104.06" y2="161.399" gradientUnits="userSpaceOnUse">
<stop stop-color="#D1D7E0"/>
<stop offset="1" stop-color="#EBEBFF"/>
</linearGradient>
<linearGradient id="paint6_linear_15_2039" x1="136.101" y1="156.393" x2="101.08" y2="156.393" gradientUnits="userSpaceOnUse">
<stop stop-color="#D1D7E0"/>
<stop offset="1" stop-color="#EBEBFF"/>
</linearGradient>
<linearGradient id="paint7_linear_15_2039" x1="297.643" y1="49.2749" x2="283.279" y2="49.2749" gradientUnits="userSpaceOnUse">
<stop stop-color="#D1D7E0"/>
<stop offset="1" stop-color="#EBEBFF"/>
</linearGradient>
<linearGradient id="paint8_linear_15_2039" x1="297.643" y1="59.6653" x2="283.279" y2="59.6653" gradientUnits="userSpaceOnUse">
<stop stop-color="#D1D7E0"/>
<stop offset="1" stop-color="#EBEBFF"/>
</linearGradient>
<linearGradient id="paint9_linear_15_2039" x1="297.643" y1="70.0559" x2="283.279" y2="70.0559" gradientUnits="userSpaceOnUse">
<stop stop-color="#D1D7E0"/>
<stop offset="1" stop-color="#EBEBFF"/>
</linearGradient>
<linearGradient id="paint10_linear_15_2039" x1="277.348" y1="49.2749" x2="273.261" y2="49.2749" gradientUnits="userSpaceOnUse">
<stop stop-color="#D1D7E0"/>
<stop offset="1" stop-color="#EBEBFF"/>
</linearGradient>
<linearGradient id="paint11_linear_15_2039" x1="277.348" y1="59.6653" x2="273.261" y2="59.6653" gradientUnits="userSpaceOnUse">
<stop stop-color="#D1D7E0"/>
<stop offset="1" stop-color="#EBEBFF"/>
</linearGradient>
<linearGradient id="paint12_linear_15_2039" x1="277.348" y1="70.0559" x2="273.261" y2="70.0559" gradientUnits="userSpaceOnUse">
<stop stop-color="#D1D7E0"/>
<stop offset="1" stop-color="#EBEBFF"/>
</linearGradient>
<linearGradient id="paint13_linear_15_2039" x1="340.915" y1="301.862" x2="321.29" y2="301.862" gradientUnits="userSpaceOnUse">
<stop stop-color="#D1D7E0"/>
<stop offset="1" stop-color="#EBEBFF"/>
</linearGradient>
<linearGradient id="paint14_linear_15_2039" x1="347.946" y1="301.862" x2="339.766" y2="301.862" gradientUnits="userSpaceOnUse">
<stop stop-color="#D1D7E0"/>
<stop offset="1" stop-color="#EBEBFF"/>
</linearGradient>
</defs>
</svg>
