<svg width="44" height="44" viewBox="0 0 44 44" fill="none" xmlns="http://www.w3.org/2000/svg">
<rect width="44" height="44" rx="22" fill="#635EA3"/>
<rect x="4" y="4" width="36" height="36" rx="18" fill="#635EA3"/>
<path d="M20.5547 20.6016H21.5859C22.0911 20.6016 22.5078 20.5182 22.8359 20.3516C23.1693 20.1797 23.4167 19.9479 23.5781 19.6562C23.7448 19.3594 23.8281 19.026 23.8281 18.6562C23.8281 18.2188 23.7552 17.8516 23.6094 17.5547C23.4635 17.2578 23.2448 17.0339 22.9531 16.8828C22.6615 16.7318 22.2917 16.6562 21.8438 16.6562C21.4375 16.6562 21.0781 16.737 20.7656 16.8984C20.4583 17.0547 20.2161 17.2786 20.0391 17.5703C19.8672 17.862 19.7812 18.2057 19.7812 18.6016H18.3359C18.3359 18.0234 18.4818 17.4974 18.7734 17.0234C19.0651 16.5495 19.474 16.1719 20 15.8906C20.5312 15.6094 21.1458 15.4688 21.8438 15.4688C22.5312 15.4688 23.1328 15.5911 23.6484 15.8359C24.1641 16.0755 24.5651 16.4349 24.8516 16.9141C25.138 17.388 25.2812 17.9792 25.2812 18.6875C25.2812 18.974 25.2135 19.2812 25.0781 19.6094C24.9479 19.9323 24.7422 20.2344 24.4609 20.5156C24.1849 20.7969 23.8255 21.0286 23.3828 21.2109C22.9401 21.388 22.4089 21.4766 21.7891 21.4766H20.5547V20.6016ZM20.5547 21.7891V20.9219H21.7891C22.513 20.9219 23.112 21.0078 23.5859 21.1797C24.0599 21.3516 24.4323 21.5807 24.7031 21.8672C24.9792 22.1536 25.1719 22.4688 25.2812 22.8125C25.3958 23.151 25.4531 23.4896 25.4531 23.8281C25.4531 24.3594 25.362 24.8307 25.1797 25.2422C25.0026 25.6536 24.75 26.0026 24.4219 26.2891C24.099 26.5755 23.7188 26.7917 23.2812 26.9375C22.8438 27.0833 22.3672 27.1562 21.8516 27.1562C21.3568 27.1562 20.8906 27.0859 20.4531 26.9453C20.0208 26.8047 19.638 26.6016 19.3047 26.3359C18.9714 26.0651 18.7109 25.7344 18.5234 25.3438C18.3359 24.9479 18.2422 24.4974 18.2422 23.9922H19.6875C19.6875 24.388 19.7734 24.7344 19.9453 25.0312C20.1224 25.3281 20.3724 25.5599 20.6953 25.7266C21.0234 25.888 21.4089 25.9688 21.8516 25.9688C22.2943 25.9688 22.6745 25.8932 22.9922 25.7422C23.3151 25.5859 23.5625 25.3516 23.7344 25.0391C23.9115 24.7266 24 24.3333 24 23.8594C24 23.3854 23.901 22.9974 23.7031 22.6953C23.5052 22.388 23.224 22.1615 22.8594 22.0156C22.5 21.8646 22.0755 21.7891 21.5859 21.7891H20.5547Z" fill="white"/>
<rect x="4" y="4" width="36" height="36" rx="18" stroke="white" stroke-width="4"/>
</svg>
