<svg width="44" height="44" viewBox="0 0 44 44" fill="none" xmlns="http://www.w3.org/2000/svg">
<rect width="44" height="44" rx="22" fill="#635EA3"/>
<rect x="4" y="4" width="36" height="36" rx="18" fill="#635EA3"/>
<path d="M25.8984 25.8125V27H18.4531V25.9609L22.1797 21.8125C22.638 21.3021 22.9922 20.8698 23.2422 20.5156C23.4974 20.1562 23.6745 19.8359 23.7734 19.5547C23.8776 19.2682 23.9297 18.9766 23.9297 18.6797C23.9297 18.3047 23.8516 17.9661 23.6953 17.6641C23.5443 17.3568 23.3203 17.112 23.0234 16.9297C22.7266 16.7474 22.3672 16.6562 21.9453 16.6562C21.4401 16.6562 21.0182 16.7552 20.6797 16.9531C20.3464 17.1458 20.0964 17.4167 19.9297 17.7656C19.763 18.1146 19.6797 18.5156 19.6797 18.9688H18.2344C18.2344 18.3281 18.375 17.7422 18.6562 17.2109C18.9375 16.6797 19.3542 16.2578 19.9062 15.9453C20.4583 15.6276 21.138 15.4688 21.9453 15.4688C22.6641 15.4688 23.2786 15.5964 23.7891 15.8516C24.2995 16.1016 24.6901 16.4557 24.9609 16.9141C25.237 17.3672 25.375 17.8984 25.375 18.5078C25.375 18.8411 25.3177 19.1797 25.2031 19.5234C25.0938 19.862 24.9401 20.2005 24.7422 20.5391C24.5495 20.8776 24.3229 21.2109 24.0625 21.5391C23.8073 21.8672 23.5339 22.1901 23.2422 22.5078L20.1953 25.8125H25.8984Z" fill="white"/>
<rect x="4" y="4" width="36" height="36" rx="18" stroke="white" stroke-width="4"/>
</svg>
