<svg width="1437" height="696" viewBox="0 0 1437 696" fill="none" xmlns="http://www.w3.org/2000/svg">
<mask id="mask0_501_1795" style="mask-type:alpha" maskUnits="userSpaceOnUse" x="0" y="0" width="1437" height="696">
<rect y="0.917236" width="1437" height="694.782" fill="#C4C4C4"/>
</mask>
<g mask="url(#mask0_501_1795)">
<circle cx="1209.5" cy="624.5" r="341.5" fill="url(#paint0_linear_501_1795)"/>
<circle cx="1178.5" cy="592.5" r="341.5" fill="url(#paint1_linear_501_1795)" fill-opacity="0.94"/>
<g opacity="0.05" filter="url(#filter0_f_501_1795)">
<path d="M105 495.976C215.457 495.976 305 400.849 305 283.504C305 166.16 215.457 71.0328 105 71.0328C-5.45695 71.0328 -95 166.16 -95 283.504C-95 400.849 -5.45695 495.976 105 495.976Z" fill="#635EA3"/>
</g>
<path fill-rule="evenodd" clip-rule="evenodd" d="M414.886 -120.339C414.892 -120.616 414.899 -120.893 414.905 -121.169C414.968 -123.939 415 -126.716 415 -129.5C415 -132.284 414.968 -135.061 414.905 -137.831C414.899 -138.107 414.892 -138.384 414.886 -138.661C414.879 -138.937 414.871 -139.214 414.864 -139.491C413.949 -139.468 413.224 -138.709 413.245 -137.793C413.308 -135.036 413.339 -132.272 413.339 -129.5C413.339 -126.728 413.308 -123.964 413.245 -121.207C413.224 -120.292 413.949 -119.532 414.864 -119.509C414.871 -119.786 414.879 -120.063 414.886 -120.339ZM414.259 -106.238C413.346 -106.299 412.556 -105.608 412.493 -104.695C412.115 -99.1729 411.612 -93.6855 410.986 -88.2354C410.882 -87.3256 411.533 -86.5032 412.443 -86.3968C412.475 -86.6715 412.508 -86.9463 412.54 -87.2213C412.572 -87.4961 412.604 -87.771 412.636 -88.046C413.264 -93.5213 413.77 -99.0341 414.15 -104.581C414.169 -104.857 414.187 -105.134 414.206 -105.41C414.224 -105.686 414.242 -105.962 414.259 -106.238ZM410.623 -73.2377C409.719 -73.3819 408.869 -72.7673 408.722 -71.8633C407.838 -66.4043 406.831 -60.9867 405.703 -55.6135C405.515 -54.7173 406.088 -53.8381 406.983 -53.6481C407.041 -53.9186 407.099 -54.1893 407.157 -54.46C407.214 -54.7307 407.271 -55.0014 407.328 -55.2723C408.461 -60.6706 409.473 -66.1135 410.361 -71.5979C410.406 -71.8711 410.45 -72.1443 410.493 -72.4177C410.537 -72.6909 410.58 -72.9642 410.623 -73.2377ZM403.952 -40.713C403.066 -40.9405 402.162 -40.4074 401.932 -39.5209C400.546 -34.1701 399.04 -28.8679 397.416 -23.6174C397.145 -22.7425 397.634 -21.814 398.508 -21.5415C398.591 -21.8055 398.674 -22.0696 398.756 -22.3338C398.838 -22.598 398.92 -22.8623 399.002 -23.1267C400.634 -28.4017 402.148 -33.7288 403.54 -39.1045C403.609 -39.3724 403.678 -39.6404 403.747 -39.9085C403.816 -40.1766 403.884 -40.4447 403.952 -40.713ZM394.285 -8.9385C393.424 -9.24741 392.474 -8.80077 392.163 -7.93945C390.287 -2.74398 388.294 2.39565 386.187 7.47619C385.836 8.32211 386.237 9.29207 387.081 9.64461C387.188 9.38952 387.295 9.13422 387.402 8.87882C387.509 8.62347 387.615 8.36792 387.721 8.11226C389.838 3.00795 391.84 -2.1557 393.725 -7.37544C393.819 -7.63571 393.913 -7.89607 394.006 -8.15664C394.1 -8.41711 394.193 -8.67773 394.285 -8.9385ZM381.707 21.7991C380.878 21.4115 379.891 21.768 379.501 22.5967C377.152 27.5922 374.691 32.5244 372.12 37.3904C371.693 38.2002 372.001 39.2031 372.81 39.6324C372.94 39.3883 373.07 39.144 373.2 38.8996C373.33 38.6552 373.459 38.4107 373.589 38.1659C376.171 33.2774 378.643 28.3221 381.004 23.3034C381.121 23.0529 381.239 22.8023 381.356 22.5516C381.473 22.3009 381.59 22.0501 381.707 21.7991ZM366.333 51.236C365.543 50.7734 364.527 51.037 364.063 51.8261C361.263 56.5802 358.356 61.264 355.346 65.874C354.846 66.6409 355.06 67.6679 355.826 68.1701C355.978 67.939 356.13 67.7079 356.282 67.4765C356.434 67.2451 356.585 67.0136 356.737 66.7818C359.761 62.1504 362.681 57.4449 365.493 52.6687C365.634 52.4303 365.774 52.1917 365.914 51.9529C366.054 51.7141 366.193 51.4751 366.333 51.236ZM348.306 79.1265C347.562 78.593 346.527 78.7619 345.991 79.5049C342.767 83.9788 339.441 88.3751 336.019 92.6906C335.449 93.4081 335.569 94.4507 336.285 95.0211C336.458 94.8051 336.63 94.5888 336.803 94.3724C336.975 94.1559 337.148 93.9393 337.319 93.7225C340.758 89.387 344.099 84.9704 347.338 80.4758C347.5 80.2513 347.662 80.0266 347.823 79.8017C347.984 79.5768 348.145 79.3518 348.306 79.1265ZM327.79 105.24C327.098 104.64 326.051 104.713 325.45 105.404C321.83 109.561 318.115 113.634 314.309 117.618C313.676 118.281 313.699 119.33 314.36 119.964C314.552 119.764 314.744 119.565 314.935 119.365C315.127 119.165 315.318 118.966 315.51 118.765C319.333 114.762 323.065 110.671 326.702 106.495C326.884 106.286 327.065 106.077 327.247 105.868C327.428 105.659 327.609 105.449 327.79 105.24ZM304.964 129.36C304.33 128.699 303.281 128.676 302.619 129.309C298.634 133.115 294.561 136.83 290.404 140.45C289.713 141.051 289.64 142.098 290.24 142.79C290.449 142.609 290.659 142.428 290.868 142.247C291.077 142.065 291.286 141.884 291.495 141.702C295.671 138.065 299.762 134.333 303.765 130.51C303.966 130.318 304.165 130.127 304.365 129.935C304.565 129.744 304.764 129.552 304.964 129.36ZM280.021 151.285C279.451 150.569 278.408 150.449 277.691 151.018C273.375 154.441 268.979 157.767 264.505 160.991C263.762 161.527 263.593 162.562 264.127 163.306C264.352 163.145 264.577 162.984 264.802 162.823C265.027 162.662 265.251 162.5 265.476 162.338C269.97 159.099 274.387 155.758 278.723 152.319C278.939 152.148 279.156 151.975 279.372 151.803C279.589 151.63 279.805 151.458 280.021 151.285ZM253.17 170.826C252.668 170.06 251.641 169.846 250.874 170.346C246.264 173.356 241.58 176.263 236.826 179.063C236.037 179.527 235.773 180.543 236.236 181.333C236.475 181.193 236.714 181.054 236.953 180.914C237.192 180.774 237.43 180.634 237.669 180.493C242.445 177.681 247.15 174.761 251.782 171.737C252.014 171.585 252.245 171.434 252.476 171.282C252.708 171.13 252.939 170.978 253.17 170.826ZM224.632 187.81C224.203 187.001 223.2 186.693 222.39 187.12C217.524 189.691 212.592 192.152 207.597 194.501C206.768 194.891 206.411 195.878 206.799 196.707C207.05 196.59 207.301 196.473 207.552 196.356C207.802 196.239 208.053 196.121 208.303 196.004C213.322 193.643 218.277 191.171 223.166 188.589C223.411 188.459 223.655 188.33 223.9 188.2C224.144 188.07 224.388 187.94 224.632 187.81ZM194.645 202.081C194.292 201.237 193.322 200.836 192.476 201.187C187.396 203.294 182.256 205.287 177.061 207.163C176.199 207.474 175.753 208.424 176.061 209.285C176.322 209.193 176.583 209.1 176.843 209.006C177.104 208.913 177.364 208.819 177.625 208.725C182.844 206.84 188.008 204.838 193.112 202.721C193.368 202.615 193.623 202.509 193.879 202.402C194.134 202.295 194.39 202.188 194.645 202.081ZM163.458 213.508C163.186 212.634 162.258 212.145 161.383 212.416C156.132 214.04 150.83 215.546 145.479 216.932C144.593 217.162 144.06 218.066 144.287 218.952C144.555 218.884 144.823 218.816 145.091 218.747C145.36 218.678 145.628 218.609 145.895 218.54C151.271 217.148 156.598 215.634 161.873 214.002C162.138 213.92 162.402 213.838 162.666 213.756C162.93 213.674 163.194 213.591 163.458 213.508ZM131.352 221.983C131.162 221.088 130.283 220.515 129.387 220.703C124.013 221.831 118.596 222.838 113.137 223.722C112.233 223.869 111.618 224.719 111.762 225.623C112.036 225.58 112.309 225.537 112.582 225.493C112.856 225.45 113.129 225.406 113.402 225.361C118.887 224.473 124.329 223.461 129.728 222.328C129.999 222.271 130.269 222.214 130.54 222.157C130.811 222.099 131.081 222.041 131.352 221.983ZM98.6033 227.443C98.4968 226.533 97.6745 225.882 96.7646 225.986C91.3146 226.612 85.8272 227.115 80.3053 227.493C79.3916 227.556 78.7013 228.346 78.7618 229.259C79.0381 229.242 79.3142 229.224 79.5903 229.206C79.8665 229.187 80.1427 229.169 80.4187 229.15C85.966 228.77 91.4787 228.264 96.9541 227.636C97.229 227.604 97.504 227.572 97.7788 227.54C98.0537 227.508 98.3285 227.475 98.6033 227.443ZM65.4907 229.864C65.4678 228.949 64.7085 228.224 63.793 228.245C61.0362 228.308 58.2718 228.339 55.5 228.339C52.7282 228.339 49.9638 228.308 47.2072 228.245C46.2916 228.224 45.5323 228.949 45.5094 229.864C45.786 229.871 46.0626 229.879 46.3394 229.886C46.616 229.892 46.8926 229.899 47.1694 229.905C49.9386 229.968 52.7156 230 55.5 230C58.2844 230 61.0614 229.968 63.8307 229.905C64.1075 229.899 64.3841 229.892 64.6607 229.886C64.9374 229.879 65.2141 229.871 65.4907 229.864ZM32.2383 229.259C32.2987 228.346 31.6084 227.556 30.6948 227.493C25.1729 227.115 19.6855 226.612 14.2354 225.986C13.3256 225.882 12.5032 226.533 12.3967 227.443C12.6715 227.475 12.9463 227.508 13.2212 227.54C13.496 227.572 13.771 227.604 14.046 227.636C19.5213 228.264 25.034 228.77 30.5814 229.15C30.8574 229.169 31.1335 229.187 31.4098 229.206C31.6858 229.224 31.962 229.242 32.2383 229.259ZM-0.762338 225.623C-0.618092 224.719 -1.23267 223.869 -2.13669 223.722C-7.59572 222.838 -13.0133 221.831 -18.3865 220.703C-19.2828 220.515 -20.1619 221.088 -20.352 221.983C-20.0814 222.041 -19.8107 222.099 -19.54 222.157C-19.2693 222.214 -18.9985 222.271 -18.7277 222.328C-13.3294 223.461 -7.88651 224.473 -2.40209 225.361C-2.12896 225.406 -1.85572 225.45 -1.58236 225.493C-1.30912 225.537 -1.03578 225.58 -0.762338 225.623ZM-33.287 218.952C-33.0596 218.066 -33.5926 217.162 -34.4792 216.932C-39.8299 215.546 -45.1321 214.04 -50.3826 212.416C-51.2575 212.145 -52.186 212.634 -52.4585 213.508C-52.1945 213.591 -51.9304 213.674 -51.6662 213.756C-51.402 213.838 -51.1377 213.92 -50.8733 214.002C-45.5983 215.634 -40.2713 217.148 -34.8955 218.54C-34.6276 218.609 -34.3596 218.678 -34.0915 218.747C-33.8235 218.816 -33.5553 218.884 -33.287 218.952ZM-65.0615 209.285C-64.7526 208.424 -65.1993 207.474 -66.0606 207.163C-71.256 205.287 -76.3956 203.294 -81.4762 201.187C-82.3221 200.836 -83.2921 201.237 -83.6446 202.081C-83.3895 202.188 -83.1342 202.295 -82.8788 202.402C-82.6234 202.509 -82.3679 202.615 -82.1123 202.721C-77.008 204.838 -71.8444 206.84 -66.6246 208.725C-66.3643 208.819 -66.1039 208.913 -65.8434 209.006C-65.5829 209.1 -65.3223 209.193 -65.0615 209.285ZM-95.7991 196.707C-95.4115 195.878 -95.768 194.891 -96.5968 194.501C-101.592 192.152 -106.524 189.691 -111.39 187.12C-112.2 186.693 -113.203 187.001 -113.632 187.81C-113.388 187.94 -113.144 188.07 -112.9 188.2C-112.655 188.33 -112.411 188.459 -112.166 188.589C-107.277 191.171 -102.322 193.643 -97.3034 196.004C-97.053 196.121 -96.8024 196.239 -96.5516 196.356C-96.301 196.473 -96.0501 196.59 -95.7991 196.707ZM-125.236 181.333C-124.773 180.543 -125.037 179.527 -125.826 179.063C-130.58 176.263 -135.264 173.356 -139.874 170.346C-140.641 169.846 -141.668 170.06 -142.17 170.826C-141.939 170.978 -141.708 171.13 -141.477 171.282C-141.245 171.434 -141.014 171.585 -140.782 171.737C-136.15 174.761 -131.445 177.681 -126.669 180.493C-126.43 180.634 -126.192 180.774 -125.953 180.914C-125.714 181.054 -125.475 181.193 -125.236 181.333ZM-153.127 163.306C-152.593 162.562 -152.762 161.527 -153.505 160.991C-157.979 157.767 -162.375 154.441 -166.691 151.019C-167.408 150.449 -168.451 150.569 -169.021 151.285C-168.805 151.458 -168.589 151.63 -168.372 151.803C-168.156 151.975 -167.939 152.148 -167.723 152.319C-163.387 155.758 -158.97 159.099 -154.476 162.338C-154.251 162.5 -154.027 162.662 -153.802 162.823C-153.577 162.984 -153.352 163.145 -153.127 163.306ZM-179.24 142.79C-178.64 142.098 -178.713 141.051 -179.404 140.45C-183.561 136.83 -187.634 133.115 -191.619 129.309C-192.281 128.676 -193.33 128.699 -193.964 129.36C-193.764 129.552 -193.565 129.744 -193.365 129.935C-193.165 130.127 -192.966 130.318 -192.765 130.51C-188.762 134.333 -184.671 138.065 -180.495 141.702C-180.286 141.884 -180.077 142.065 -179.868 142.247C-179.659 142.428 -179.449 142.609 -179.24 142.79ZM-203.36 119.964C-202.699 119.33 -202.676 118.281 -203.309 117.619C-207.115 113.634 -210.83 109.561 -214.45 105.404C-215.051 104.713 -216.098 104.64 -216.79 105.24C-216.609 105.449 -216.428 105.659 -216.247 105.868C-216.065 106.077 -215.884 106.286 -215.702 106.495C-212.065 110.671 -208.333 114.762 -204.51 118.765C-204.318 118.966 -204.127 119.165 -203.935 119.365C-203.744 119.565 -203.552 119.764 -203.36 119.964ZM-225.285 95.0211C-224.569 94.4507 -224.449 93.4081 -225.019 92.6906C-228.441 88.3751 -231.767 83.9788 -234.991 79.5049C-235.527 78.762 -236.562 78.593 -237.306 79.1265C-237.145 79.3518 -236.984 79.5768 -236.823 79.8017C-236.662 80.0266 -236.5 80.2514 -236.338 80.4759C-233.099 84.9704 -229.758 89.3871 -226.319 93.7225C-226.148 93.9394 -225.975 94.1559 -225.803 94.3724C-225.63 94.5888 -225.458 94.8051 -225.285 95.0211ZM-244.826 68.1701C-244.06 67.668 -243.846 66.6409 -244.346 65.8741C-247.356 61.264 -250.263 56.5802 -253.063 51.8262C-253.527 51.0371 -254.543 50.7734 -255.333 51.2361C-255.193 51.4752 -255.054 51.7141 -254.914 51.9529C-254.774 52.1917 -254.634 52.4303 -254.493 52.6688C-251.681 57.445 -248.761 62.1504 -245.737 66.7818C-245.585 67.0136 -245.434 67.2452 -245.282 67.4765C-245.13 67.7079 -244.978 67.9391 -244.826 68.1701ZM-261.81 39.6324C-261.001 39.203 -260.693 38.2002 -261.12 37.3904C-263.691 32.5244 -266.152 27.5922 -268.501 22.5967C-268.891 21.768 -269.878 21.4114 -270.707 21.7991C-270.59 22.0501 -270.473 22.3009 -270.356 22.5516C-270.239 22.8023 -270.121 23.0529 -270.004 23.3033C-267.644 28.322 -265.171 33.2774 -262.589 38.1659C-262.459 38.4106 -262.33 38.6552 -262.2 38.8996C-262.07 39.144 -261.94 39.3883 -261.81 39.6324ZM-276.081 9.64461C-275.237 9.29207 -274.836 8.32211 -275.187 7.47614C-277.294 2.3956 -279.287 -2.74398 -281.163 -7.93945C-281.474 -8.80077 -282.424 -9.24741 -283.286 -8.9385C-283.193 -8.67773 -283.1 -8.41711 -283.006 -8.15664C-282.913 -7.89612 -282.819 -7.63571 -282.725 -7.37544C-280.84 -2.1557 -278.838 3.00795 -276.721 8.11221C-276.615 8.36787 -276.509 8.62342 -276.402 8.87882C-276.295 9.13422 -276.189 9.38952 -276.081 9.64461ZM-287.508 -21.5415C-286.634 -21.814 -286.145 -22.7425 -286.416 -23.6174C-288.04 -28.8679 -289.547 -34.1701 -290.932 -39.5209C-291.162 -40.4074 -292.066 -40.9404 -292.952 -40.713C-292.884 -40.4447 -292.816 -40.1766 -292.747 -39.9085C-292.678 -39.6404 -292.609 -39.3724 -292.54 -39.1045C-291.148 -33.7288 -289.634 -28.4017 -288.002 -23.1267C-287.921 -22.8623 -287.838 -22.598 -287.756 -22.3338C-287.674 -22.0696 -287.591 -21.8055 -287.508 -21.5415ZM-295.983 -53.6481C-295.088 -53.8381 -294.515 -54.7173 -294.703 -55.6135C-295.831 -60.9867 -296.838 -66.4043 -297.722 -71.8633C-297.869 -72.7673 -298.719 -73.3819 -299.623 -73.2377C-299.58 -72.9642 -299.537 -72.6909 -299.493 -72.4176C-299.45 -72.1443 -299.406 -71.8711 -299.361 -71.5979C-298.473 -66.1135 -297.461 -60.6706 -296.328 -55.2723C-296.271 -55.0014 -296.214 -54.7306 -296.157 -54.46C-296.099 -54.1892 -296.041 -53.9186 -295.983 -53.6481ZM-301.443 -86.3967C-300.533 -86.5032 -299.882 -87.3255 -299.986 -88.2354C-300.612 -93.6854 -301.115 -99.1728 -301.493 -104.695C-301.556 -105.608 -302.346 -106.299 -303.259 -106.238C-303.242 -105.962 -303.224 -105.686 -303.206 -105.41C-303.187 -105.133 -303.169 -104.857 -303.15 -104.581C-302.77 -99.034 -302.264 -93.5213 -301.636 -88.046C-301.604 -87.771 -301.572 -87.496 -301.54 -87.2212C-301.508 -86.9463 -301.475 -86.6715 -301.443 -86.3967ZM-303.864 -119.509C-302.949 -119.532 -302.224 -120.291 -302.245 -121.207C-302.308 -123.964 -302.339 -126.728 -302.339 -129.5C-302.339 -132.272 -302.308 -135.036 -302.245 -137.793C-302.224 -138.708 -302.949 -139.468 -303.864 -139.491C-303.871 -139.214 -303.879 -138.937 -303.886 -138.661C-303.892 -138.384 -303.899 -138.107 -303.905 -137.831C-303.968 -135.061 -304 -132.284 -304 -129.5C-304 -126.716 -303.968 -123.939 -303.905 -121.169C-303.899 -120.893 -303.892 -120.616 -303.886 -120.339C-303.879 -120.063 -303.871 -119.786 -303.864 -119.509ZM-303.259 -152.762C-302.346 -152.701 -301.556 -153.392 -301.493 -154.305C-301.115 -159.827 -300.612 -165.315 -299.986 -170.765C-299.882 -171.674 -300.533 -172.497 -301.443 -172.603C-301.475 -172.329 -301.508 -172.054 -301.54 -171.779C-301.572 -171.504 -301.604 -171.229 -301.636 -170.954C-302.264 -165.479 -302.77 -159.966 -303.15 -154.419C-303.169 -154.143 -303.187 -153.866 -303.206 -153.59C-303.224 -153.314 -303.242 -153.038 -303.259 -152.762ZM-299.623 -185.762C-298.719 -185.618 -297.869 -186.233 -297.722 -187.137C-296.838 -192.596 -295.831 -198.013 -294.703 -203.387C-294.515 -204.283 -295.088 -205.162 -295.983 -205.352C-296.041 -205.081 -296.099 -204.811 -296.157 -204.54C-296.214 -204.269 -296.271 -203.999 -296.328 -203.728C-297.461 -198.329 -298.473 -192.887 -299.361 -187.402C-299.406 -187.129 -299.45 -186.856 -299.493 -186.582C-299.537 -186.309 -299.58 -186.036 -299.623 -185.762ZM-292.952 -218.287C-292.066 -218.06 -291.162 -218.593 -290.932 -219.479C-289.547 -224.83 -288.04 -230.132 -286.416 -235.383C-286.145 -236.257 -286.634 -237.186 -287.508 -237.459C-287.591 -237.195 -287.674 -236.93 -287.756 -236.666C-287.838 -236.402 -287.921 -236.138 -288.002 -235.873C-289.634 -230.598 -291.148 -225.271 -292.54 -219.895C-292.609 -219.628 -292.678 -219.36 -292.747 -219.091C-292.816 -218.823 -292.884 -218.555 -292.952 -218.287ZM-283.286 -250.062C-282.424 -249.753 -281.474 -250.199 -281.163 -251.061C-279.287 -256.256 -277.294 -261.396 -275.187 -266.476C-274.836 -267.322 -275.237 -268.292 -276.081 -268.645C-276.188 -268.39 -276.295 -268.134 -276.402 -267.879C-276.509 -267.623 -276.615 -267.368 -276.721 -267.112C-278.838 -262.008 -280.84 -256.844 -282.725 -251.625C-282.819 -251.364 -282.913 -251.104 -283.006 -250.843C-283.1 -250.583 -283.193 -250.322 -283.286 -250.062ZM-270.707 -280.799C-269.878 -280.411 -268.891 -280.768 -268.501 -281.597C-266.152 -286.592 -263.691 -291.524 -261.12 -296.39C-260.693 -297.2 -261.001 -298.203 -261.81 -298.632C-261.94 -298.388 -262.07 -298.144 -262.2 -297.9C-262.33 -297.655 -262.459 -297.411 -262.589 -297.166C-265.171 -292.277 -267.644 -287.322 -270.004 -282.303C-270.121 -282.053 -270.239 -281.802 -270.356 -281.552C-270.473 -281.301 -270.59 -281.05 -270.707 -280.799ZM-255.333 -310.236C-254.543 -309.773 -253.527 -310.037 -253.063 -310.826C-250.263 -315.58 -247.356 -320.264 -244.346 -324.874C-243.846 -325.641 -244.06 -326.668 -244.826 -327.17C-244.978 -326.939 -245.13 -326.708 -245.282 -326.477C-245.434 -326.245 -245.585 -326.014 -245.737 -325.782C-248.761 -321.15 -251.681 -316.445 -254.493 -311.669C-254.634 -311.43 -254.774 -311.192 -254.914 -310.953C-255.054 -310.714 -255.193 -310.475 -255.333 -310.236ZM-237.306 -338.127C-236.562 -337.593 -235.527 -337.762 -234.991 -338.505C-231.767 -342.979 -228.441 -347.375 -225.019 -351.691C-224.449 -352.408 -224.569 -353.451 -225.285 -354.021C-225.458 -353.805 -225.63 -353.589 -225.803 -353.372C-225.975 -353.156 -226.148 -352.939 -226.32 -352.723C-229.758 -348.387 -233.099 -343.97 -236.338 -339.476C-236.5 -339.251 -236.662 -339.027 -236.823 -338.802C-236.984 -338.577 -237.145 -338.352 -237.306 -338.127ZM-216.79 -364.24C-216.098 -363.64 -215.051 -363.713 -214.45 -364.404C-210.83 -368.561 -207.115 -372.634 -203.309 -376.619C-202.676 -377.281 -202.699 -378.33 -203.36 -378.964C-203.552 -378.764 -203.744 -378.565 -203.935 -378.365C-204.127 -378.165 -204.318 -377.966 -204.51 -377.765C-208.333 -373.762 -212.065 -369.671 -215.702 -365.495C-215.884 -365.286 -216.065 -365.077 -216.247 -364.868C-216.428 -364.659 -216.609 -364.449 -216.79 -364.24ZM-193.964 -388.36C-193.33 -387.699 -192.281 -387.676 -191.619 -388.309C-187.634 -392.115 -183.561 -395.83 -179.404 -399.45C-178.713 -400.051 -178.64 -401.098 -179.24 -401.79C-179.449 -401.609 -179.659 -401.428 -179.868 -401.247C-180.077 -401.065 -180.286 -400.884 -180.495 -400.702C-184.671 -397.065 -188.762 -393.333 -192.765 -389.51C-192.966 -389.318 -193.165 -389.127 -193.365 -388.935C-193.565 -388.744 -193.764 -388.552 -193.964 -388.36ZM-169.021 -410.285C-168.451 -409.569 -167.408 -409.449 -166.691 -410.019C-162.375 -413.441 -157.979 -416.767 -153.505 -419.991C-152.762 -420.527 -152.593 -421.562 -153.127 -422.306C-153.352 -422.145 -153.577 -421.984 -153.802 -421.823C-154.027 -421.662 -154.251 -421.5 -154.476 -421.338C-158.97 -418.099 -163.387 -414.758 -167.723 -411.319C-167.939 -411.148 -168.156 -410.975 -168.372 -410.803C-168.589 -410.63 -168.805 -410.458 -169.021 -410.285ZM-142.17 -429.826C-141.668 -429.06 -140.641 -428.846 -139.874 -429.346C-135.264 -432.356 -130.58 -435.263 -125.826 -438.063C-125.037 -438.527 -124.773 -439.543 -125.236 -440.333C-125.475 -440.193 -125.714 -440.054 -125.953 -439.914C-126.192 -439.774 -126.43 -439.634 -126.669 -439.493C-131.445 -436.681 -136.15 -433.761 -140.782 -430.737C-141.014 -430.585 -141.245 -430.434 -141.477 -430.282C-141.708 -430.13 -141.939 -429.978 -142.17 -429.826ZM-113.632 -446.81C-113.203 -446.001 -112.2 -445.693 -111.39 -446.12C-106.524 -448.691 -101.592 -451.152 -96.5967 -453.501C-95.768 -453.891 -95.4114 -454.878 -95.7991 -455.707C-96.0501 -455.59 -96.3009 -455.473 -96.5516 -455.356C-96.8024 -455.239 -97.0529 -455.121 -97.3034 -455.004C-102.322 -452.644 -107.277 -450.171 -112.166 -447.589C-112.411 -447.459 -112.655 -447.33 -112.9 -447.2C-113.144 -447.07 -113.388 -446.94 -113.632 -446.81ZM-83.6446 -461.081C-83.2921 -460.237 -82.3221 -459.836 -81.4762 -460.187C-76.3956 -462.294 -71.256 -464.287 -66.0606 -466.163C-65.1993 -466.474 -64.7526 -467.424 -65.0615 -468.286C-65.3223 -468.193 -65.5829 -468.1 -65.8434 -468.006C-66.1039 -467.913 -66.3643 -467.819 -66.6246 -467.725C-71.8444 -465.84 -77.008 -463.838 -82.1123 -461.721C-82.3679 -461.615 -82.6234 -461.509 -82.8788 -461.402C-83.1342 -461.295 -83.3895 -461.189 -83.6446 -461.081ZM-52.4585 -472.508C-52.186 -471.634 -51.2575 -471.145 -50.3826 -471.416C-45.1321 -473.04 -39.8299 -474.547 -34.4792 -475.932C-33.5926 -476.162 -33.0596 -477.066 -33.287 -477.952C-33.5553 -477.884 -33.8235 -477.816 -34.0915 -477.747C-34.3596 -477.678 -34.6276 -477.609 -34.8955 -477.54C-40.2713 -476.148 -45.5983 -474.634 -50.8733 -473.002C-51.1377 -472.921 -51.402 -472.838 -51.6662 -472.756C-51.9304 -472.674 -52.1945 -472.591 -52.4585 -472.508ZM-20.352 -480.983C-20.1619 -480.088 -19.2828 -479.515 -18.3865 -479.703C-13.0133 -480.831 -7.59574 -481.838 -2.13669 -482.722C-1.23267 -482.869 -0.618092 -483.719 -0.762338 -484.623C-1.03578 -484.58 -1.30914 -484.537 -1.58238 -484.493C-1.85572 -484.45 -2.12896 -484.406 -2.40209 -484.361C-7.88654 -483.473 -13.3294 -482.461 -18.7277 -481.328C-18.9986 -481.271 -19.2693 -481.214 -19.54 -481.157C-19.8108 -481.099 -20.0815 -481.041 -20.352 -480.983ZM12.3967 -486.443C12.5032 -485.533 13.3255 -484.882 14.2353 -484.986C19.6854 -485.612 25.1728 -486.115 30.6947 -486.493C31.6084 -486.556 32.2987 -487.346 32.2382 -488.259C31.9619 -488.242 31.6858 -488.224 31.4097 -488.206C31.1335 -488.187 30.8573 -488.169 30.5813 -488.15C25.034 -487.77 19.5213 -487.264 14.0459 -486.636C13.771 -486.604 13.496 -486.572 13.2212 -486.54C12.9463 -486.508 12.6714 -486.475 12.3967 -486.443ZM45.5093 -488.864C45.5322 -487.949 46.2915 -487.224 47.207 -487.245C49.9637 -487.308 52.7282 -487.339 55.5 -487.339C58.2718 -487.339 61.0362 -487.308 63.7928 -487.245C64.7084 -487.224 65.4677 -487.949 65.4906 -488.864C65.214 -488.871 64.9373 -488.879 64.6606 -488.886C64.384 -488.892 64.1073 -488.899 63.8306 -488.905C61.0613 -488.968 58.2844 -489 55.5 -489C52.7156 -489 49.9385 -488.968 47.1693 -488.905C46.8925 -488.899 46.6159 -488.892 46.3393 -488.886C46.0625 -488.879 45.7859 -488.871 45.5093 -488.864ZM78.7617 -488.259C78.7012 -487.346 79.3915 -486.556 80.3052 -486.493C85.8271 -486.115 91.3145 -485.612 96.7646 -484.986C97.6744 -484.882 98.4968 -485.533 98.6032 -486.443C98.3285 -486.475 98.0537 -486.508 97.7787 -486.54C97.5039 -486.572 97.229 -486.604 96.954 -486.636C91.4787 -487.264 85.9659 -487.77 80.4186 -488.15C80.1426 -488.169 79.8664 -488.187 79.5902 -488.206C79.3142 -488.224 79.038 -488.242 78.7617 -488.259ZM111.762 -484.623C111.618 -483.719 112.233 -482.869 113.137 -482.722C118.596 -481.838 124.013 -480.831 129.387 -479.703C130.283 -479.515 131.162 -480.088 131.352 -480.983C131.081 -481.041 130.811 -481.099 130.54 -481.157C130.269 -481.214 129.999 -481.271 129.728 -481.328C124.329 -482.461 118.887 -483.473 113.402 -484.361C113.129 -484.406 112.856 -484.45 112.582 -484.493C112.309 -484.537 112.036 -484.58 111.762 -484.623ZM144.287 -477.952C144.06 -477.066 144.593 -476.162 145.479 -475.932C150.83 -474.547 156.132 -473.04 161.383 -471.416C162.258 -471.145 163.186 -471.634 163.458 -472.508C163.194 -472.591 162.93 -472.674 162.666 -472.756C162.402 -472.838 162.138 -472.921 161.873 -473.002C156.598 -474.634 151.271 -476.148 145.895 -477.54C145.628 -477.609 145.36 -477.678 145.091 -477.747C144.823 -477.816 144.555 -477.884 144.287 -477.952ZM176.061 -468.286C175.753 -467.424 176.199 -466.474 177.061 -466.163C182.256 -464.287 187.396 -462.294 192.476 -460.187C193.322 -459.836 194.292 -460.237 194.645 -461.081C194.39 -461.189 194.134 -461.295 193.879 -461.402C193.623 -461.509 193.368 -461.615 193.112 -461.721C188.008 -463.838 182.844 -465.84 177.625 -467.725C177.364 -467.819 177.104 -467.913 176.843 -468.006C176.583 -468.1 176.322 -468.193 176.061 -468.286ZM206.799 -455.707C206.411 -454.878 206.768 -453.891 207.597 -453.501C212.592 -451.152 217.524 -448.691 222.39 -446.12C223.2 -445.693 224.203 -446.001 224.632 -446.81C224.388 -446.94 224.144 -447.07 223.9 -447.2C223.655 -447.33 223.411 -447.459 223.166 -447.589C218.277 -450.171 213.322 -452.644 208.303 -455.004C208.053 -455.121 207.802 -455.239 207.552 -455.356C207.301 -455.473 207.05 -455.59 206.799 -455.707ZM236.236 -440.333C235.773 -439.543 236.037 -438.527 236.826 -438.063C241.58 -435.263 246.264 -432.356 250.874 -429.346C251.641 -428.846 252.668 -429.06 253.17 -429.826C252.939 -429.978 252.708 -430.13 252.477 -430.282C252.245 -430.434 252.014 -430.585 251.782 -430.737C247.15 -433.761 242.445 -436.681 237.669 -439.493C237.43 -439.634 237.192 -439.774 236.953 -439.914C236.714 -440.054 236.475 -440.193 236.236 -440.333ZM264.127 -422.306C263.593 -421.562 263.762 -420.527 264.505 -419.991C268.979 -416.767 273.375 -413.441 277.691 -410.019C278.408 -409.449 279.451 -409.569 280.021 -410.285C279.805 -410.458 279.589 -410.63 279.372 -410.803C279.156 -410.975 278.939 -411.148 278.722 -411.32C274.387 -414.758 269.97 -418.099 265.476 -421.338C265.251 -421.5 265.027 -421.662 264.802 -421.823C264.577 -421.984 264.352 -422.145 264.127 -422.306ZM290.24 -401.79C289.64 -401.098 289.713 -400.051 290.404 -399.45C294.561 -395.83 298.634 -392.115 302.618 -388.309C303.281 -387.676 304.33 -387.699 304.964 -388.36C304.764 -388.552 304.565 -388.744 304.365 -388.935C304.165 -389.127 303.966 -389.318 303.765 -389.51C299.762 -393.333 295.671 -397.065 291.495 -400.702C291.286 -400.884 291.077 -401.065 290.868 -401.247C290.659 -401.428 290.449 -401.609 290.24 -401.79ZM314.36 -378.964C313.699 -378.33 313.676 -377.281 314.309 -376.619C318.115 -372.634 321.83 -368.561 325.45 -364.404C326.051 -363.713 327.098 -363.64 327.79 -364.24C327.609 -364.449 327.428 -364.659 327.247 -364.868C327.065 -365.077 326.884 -365.286 326.702 -365.495C323.065 -369.671 319.333 -373.762 315.51 -377.765C315.318 -377.966 315.127 -378.165 314.935 -378.365C314.744 -378.565 314.552 -378.764 314.36 -378.964ZM336.285 -354.021C335.569 -353.451 335.449 -352.408 336.018 -351.691C339.441 -347.375 342.767 -342.979 345.991 -338.505C346.527 -337.762 347.562 -337.593 348.306 -338.127C348.145 -338.352 347.984 -338.577 347.823 -338.802C347.662 -339.027 347.5 -339.251 347.338 -339.476C344.099 -343.97 340.758 -348.387 337.319 -352.723C337.147 -352.939 336.975 -353.156 336.803 -353.372C336.63 -353.589 336.458 -353.805 336.285 -354.021ZM355.826 -327.17C355.06 -326.668 354.846 -325.641 355.346 -324.874C358.356 -320.264 361.263 -315.58 364.063 -310.826C364.527 -310.037 365.543 -309.773 366.333 -310.236C366.193 -310.475 366.054 -310.714 365.914 -310.953C365.774 -311.192 365.634 -311.43 365.493 -311.669C362.681 -316.445 359.761 -321.15 356.737 -325.782C356.585 -326.014 356.434 -326.245 356.282 -326.477C356.13 -326.708 355.978 -326.939 355.826 -327.17ZM372.81 -298.632C372.001 -298.203 371.693 -297.2 372.12 -296.39C374.691 -291.524 377.152 -286.592 379.501 -281.597C379.891 -280.768 380.878 -280.411 381.707 -280.799C381.59 -281.05 381.473 -281.301 381.356 -281.552C381.239 -281.802 381.121 -282.053 381.004 -282.303C378.643 -287.322 376.171 -292.277 373.589 -297.166C373.459 -297.411 373.33 -297.655 373.2 -297.9C373.07 -298.144 372.94 -298.388 372.81 -298.632ZM387.081 -268.645C386.237 -268.292 385.836 -267.322 386.187 -266.476C388.294 -261.396 390.287 -256.256 392.163 -251.061C392.474 -250.199 393.424 -249.753 394.285 -250.061C394.193 -250.322 394.1 -250.583 394.006 -250.843C393.913 -251.104 393.819 -251.364 393.725 -251.625C391.84 -256.844 389.838 -262.008 387.721 -267.112C387.615 -267.368 387.509 -267.623 387.402 -267.879C387.295 -268.134 387.188 -268.389 387.081 -268.645ZM398.508 -237.458C397.634 -237.186 397.145 -236.257 397.416 -235.383C399.04 -230.132 400.546 -224.83 401.932 -219.479C402.162 -218.593 403.066 -218.06 403.952 -218.287C403.884 -218.555 403.816 -218.823 403.747 -219.092C403.678 -219.36 403.609 -219.628 403.54 -219.895C402.148 -225.271 400.634 -230.598 399.002 -235.873C398.92 -236.138 398.838 -236.402 398.756 -236.666C398.674 -236.93 398.591 -237.195 398.508 -237.458ZM406.983 -205.352C406.088 -205.162 405.515 -204.283 405.703 -203.387C406.831 -198.013 407.838 -192.596 408.722 -187.137C408.869 -186.233 409.719 -185.618 410.623 -185.762C410.58 -186.036 410.537 -186.309 410.493 -186.582C410.45 -186.856 410.406 -187.129 410.361 -187.402C409.473 -192.887 408.461 -198.329 407.328 -203.728C407.271 -203.999 407.214 -204.269 407.157 -204.54C407.099 -204.811 407.041 -205.081 406.983 -205.352ZM414.259 -152.762C414.242 -153.038 414.224 -153.314 414.206 -153.59C414.187 -153.867 414.169 -154.143 414.15 -154.419C413.77 -159.966 413.264 -165.479 412.636 -170.954C412.604 -171.229 412.572 -171.504 412.54 -171.779C412.508 -172.054 412.475 -172.329 412.443 -172.603C411.533 -172.497 410.882 -171.674 410.986 -170.765C411.612 -165.315 412.115 -159.827 412.493 -154.305C412.556 -153.392 413.346 -152.701 414.259 -152.762Z" fill="white" fill-opacity="0.5"/>
<path fill-rule="evenodd" clip-rule="evenodd" d="M55.4999 -14.9251C118.778 -14.9251 170.075 -66.2221 170.075 -129.5C170.075 -192.778 118.778 -244.075 55.4999 -244.075C-7.77818 -244.075 -59.0752 -192.778 -59.0752 -129.5C-59.0752 -66.2221 -7.77818 -14.9251 55.4999 -14.9251ZM55.4999 68.1004C164.632 68.1004 253.1 -20.3684 253.1 -129.5C253.1 -238.632 164.632 -327.101 55.4999 -327.101C-53.6318 -327.101 -142.101 -238.632 -142.101 -129.5C-142.101 -20.3684 -53.6318 68.1004 55.4999 68.1004Z" fill="white" fill-opacity="0.2"/>
<g opacity="0.58">
<path d="M129.884 49.0872C131.128 53.3743 132.017 57.8113 132.52 62.3645C131.973 62.4213 131.574 62.9087 131.628 63.4563C131.874 65.979 132 68.5372 132 71.125C132 73.7128 131.874 76.271 131.628 78.7937C131.574 79.3413 131.973 79.8287 132.52 79.8855C132.017 84.4387 131.128 88.8757 129.884 93.1628C129.358 93.0063 128.803 93.3043 128.643 93.8307C127.141 98.7738 125.162 103.51 122.758 107.985C122.497 108.47 122.678 109.073 123.16 109.336C120.964 113.303 118.437 117.062 115.615 120.575C115.189 120.228 114.563 120.29 114.213 120.715C110.956 124.667 107.318 128.295 103.355 131.542C102.93 131.89 102.866 132.517 103.211 132.944C99.6917 135.755 95.9266 138.272 91.9534 140.459C91.6916 139.976 91.0885 139.794 90.6032 140.054C86.1234 142.446 81.3832 144.417 76.4362 145.911C75.9096 146.07 75.6107 146.625 75.7664 147.152C71.4779 148.388 67.04 149.273 62.486 149.772C62.4296 149.226 61.9424 148.827 61.3947 148.88C58.8717 149.125 56.3133 149.25 53.7253 149.25C51.1373 149.25 48.5789 149.125 46.0558 148.88C45.5082 148.827 45.021 149.226 44.9645 149.772C40.4105 149.273 35.9726 148.388 31.6842 147.152C31.8398 146.625 31.541 146.07 31.0143 145.911C26.0673 144.417 21.3272 142.446 16.8474 140.054C16.3621 139.794 15.759 139.976 15.4972 140.459C11.524 138.272 7.75888 135.755 4.23907 132.944C4.58465 132.517 4.52093 131.89 4.09534 131.541C0.132345 128.295 -3.50552 124.667 -6.76208 120.715C-7.11194 120.29 -7.73873 120.228 -8.16488 120.575C-10.9862 117.062 -13.5134 113.303 -15.7093 109.336C-15.2269 109.073 -15.0468 108.47 -15.3071 107.985C-17.711 103.51 -19.6906 98.7738 -21.1925 93.8307C-21.3524 93.3043 -21.9073 93.0063 -22.4339 93.1628C-23.6769 88.8757 -24.5665 84.4387 -25.0689 79.8855C-24.5225 79.8287 -24.1236 79.3413 -24.1771 78.7937C-24.4233 76.271 -24.5493 73.7128 -24.5493 71.125C-24.5493 68.5372 -24.4233 65.979 -24.1771 63.4563C-24.1236 62.9087 -24.5225 62.4213 -25.0689 62.3645C-24.5665 57.8113 -23.6769 53.3743 -22.4339 49.0872C-21.9073 49.2437 -21.3524 48.9457 -21.1925 48.4193C-19.6906 43.4762 -17.711 38.7402 -15.3071 34.2649C-15.0468 33.7802 -15.2269 33.1768 -15.7093 32.9138C-13.5134 28.947 -10.9861 25.1885 -8.16488 21.6753C-7.73873 22.0221 -7.11194 21.9601 -6.76208 21.5355C-3.50551 17.5831 0.132349 13.9554 4.09534 10.7085C4.52093 10.3598 4.58465 9.7332 4.23908 9.30608C7.75889 6.49543 11.524 3.97802 15.4972 1.79096C15.759 2.27395 16.3621 2.45555 16.8474 2.19635C21.3272 -0.196347 26.0673 -2.16658 31.0143 -3.66114C31.541 -3.82025 31.8398 -4.37465 31.6842 -4.90152C35.9726 -6.13791 40.4105 -7.02262 44.9645 -7.52232C45.021 -6.97581 45.5082 -6.57668 46.0558 -6.62983C48.5789 -6.87467 51.1373 -7 53.7253 -7C56.3133 -7 58.8717 -6.87467 61.3948 -6.62982C61.9424 -6.57668 62.4296 -6.97581 62.486 -7.52232C67.04 -7.02261 71.478 -6.13791 75.7664 -4.90152C75.6108 -4.37464 75.9096 -3.82024 76.4362 -3.66113C81.3833 -2.16658 86.1234 -0.196343 90.6032 2.19635C91.0885 2.45555 91.6916 2.27395 91.9534 1.79096C95.9266 3.97803 99.6917 6.49543 103.212 9.30609C102.866 9.7332 102.93 10.3598 103.355 10.7085C107.318 13.9554 110.956 17.5831 114.213 21.5355C114.563 21.9601 115.189 22.0221 115.615 21.6753C118.437 25.1885 120.964 28.947 123.16 32.9138C122.678 33.1768 122.497 33.7803 122.758 34.2649C125.162 38.7402 127.141 43.4762 128.643 48.4193C128.803 48.9457 129.358 49.2437 129.884 49.0872Z" stroke="#6D4ECB" stroke-opacity="0.13" stroke-width="2" stroke-linecap="round" stroke-linejoin="round" stroke-dasharray="15 15"/>
<path fill-rule="evenodd" clip-rule="evenodd" d="M20.0466 151.284C39.5054 151.284 55.2798 135.54 55.2798 116.118C55.2798 96.6957 39.5054 80.951 20.0466 80.951C0.587897 80.951 -15.1865 96.6957 -15.1865 116.118C-15.1865 135.54 0.587897 151.284 20.0466 151.284ZM20.0466 203C68.1212 203 107.093 164.101 107.093 116.118C107.093 68.1339 68.1212 29.2354 20.0466 29.2354C-28.0279 29.2354 -67 68.1339 -67 116.118C-67 164.101 -28.0279 203 20.0466 203Z" fill="#6D4ECB" fill-opacity="0.13"/>
</g>
</g>
<defs>
<filter id="filter0_f_501_1795" x="-122" y="44.0328" width="454" height="478.943" filterUnits="userSpaceOnUse" color-interpolation-filters="sRGB">
<feFlood flood-opacity="0" result="BackgroundImageFix"/>
<feBlend mode="normal" in="SourceGraphic" in2="BackgroundImageFix" result="shape"/>
<feGaussianBlur stdDeviation="13.5" result="effect1_foregroundBlur_501_1795"/>
</filter>
<linearGradient id="paint0_linear_501_1795" x1="1209.5" y1="283" x2="1209.5" y2="966" gradientUnits="userSpaceOnUse">
<stop stop-color="#6E69B4"/>
<stop offset="1" stop-color="#2D2A51"/>
</linearGradient>
<linearGradient id="paint1_linear_501_1795" x1="1178.5" y1="251" x2="1178.5" y2="934" gradientUnits="userSpaceOnUse">
<stop stop-color="#6E69B4"/>
<stop offset="1" stop-color="#2D2A51"/>
</linearGradient>
</defs>
</svg>
