<svg width="46" height="46" viewBox="0 0 46 46" fill="none" xmlns="http://www.w3.org/2000/svg">
<path d="M23 45.5C19.925 45.5 17.0187 44.9094 14.2812 43.7281C11.5437 42.5469 9.15312 40.9344 7.10938 38.8906C5.06562 36.8469 3.45312 34.4562 2.27187 31.7188C1.09062 28.9813 0.5 26.075 0.5 23C0.5 19.8875 1.09062 16.9719 2.27187 14.2531C3.45312 11.5344 5.06562 9.15312 7.10938 7.10938C9.15312 5.06562 11.5437 3.45312 14.2812 2.27187C17.0187 1.09062 19.925 0.5 23 0.5C26.1125 0.5 29.0281 1.09062 31.7469 2.27187C34.4656 3.45312 36.8469 5.06562 38.8906 7.10938C40.9344 9.15312 42.5469 11.5344 43.7281 14.2531C44.9094 16.9719 45.5 19.8875 45.5 23C45.5 26.075 44.9094 28.9813 43.7281 31.7188C42.5469 34.4562 40.9344 36.8469 38.8906 38.8906C36.8469 40.9344 34.4656 42.5469 31.7469 43.7281C29.0281 44.9094 26.1125 45.5 23 45.5ZM34.5312 17.7688L38.4125 16.4187L39.425 12.8187C38.15 10.8313 36.575 9.13438 34.7 7.72813C32.825 6.32188 30.7062 5.24375 28.3438 4.49375L24.6875 6.9125V10.85L34.5312 17.7688ZM11.525 17.7688L21.3125 10.85V6.9125L17.7125 4.49375C15.35 5.24375 13.2312 6.32188 11.3562 7.72813C9.48125 9.13438 7.90625 10.8313 6.63125 12.8187L7.86875 16.4187L11.525 17.7688ZM8.4875 35.7687L11.8625 35.375L14.0562 31.7188L10.5687 20.975L6.575 19.625L3.875 21.8188C3.875 24.5188 4.175 26.9844 4.775 29.2156C5.375 31.4469 6.6125 33.6312 8.4875 35.7687ZM23 42.125C24.0125 42.125 25.0344 42.0312 26.0656 41.8438C27.0969 41.6562 28.175 41.4125 29.3 41.1125L31.1562 37.0625L29.3562 33.9688H16.7L14.9 37.0625L16.7563 41.1125C17.7313 41.4125 18.7625 41.6562 19.85 41.8438C20.9375 42.0312 21.9875 42.125 23 42.125ZM17.0375 30.5938H28.7375L32.1688 20.3L23 13.7188L13.6625 20.3L17.0375 30.5938ZM37.5688 35.7687C39.4062 33.6312 40.625 31.4469 41.225 29.2156C41.825 26.9844 42.125 24.5188 42.125 21.8188L39.425 19.9625L35.4875 20.975L32 31.7188L34.1375 35.375L37.5688 35.7687Z" fill="#373737"/>
</svg>
