<svg width="19" height="19" viewBox="0 0 19 19" fill="none" xmlns="http://www.w3.org/2000/svg">
<path d="M8.55938 11.1188L13.4594 6.21875L12.475 5.23438L8.55938 9.15L6.50312 7.09375L5.51875 8.07812L8.55938 11.1188ZM6 13.875H13V12.5625H6V13.875ZM9.5 18.25C8.26042 18.25 7.10833 18.0276 6.04375 17.5828C4.97917 17.138 4.05312 16.5219 3.26562 15.7344C2.47812 14.9469 1.86198 14.0208 1.41719 12.9563C0.972396 11.8917 0.75 10.7396 0.75 9.5C0.75 8.275 0.972396 7.13021 1.41719 6.06562C1.86198 5.00104 2.47812 4.075 3.26562 3.2875C4.05312 2.5 4.97917 1.88021 6.04375 1.42813C7.10833 0.976042 8.26042 0.75 9.5 0.75C10.725 0.75 11.8698 0.976042 12.9344 1.42813C13.999 1.88021 14.925 2.5 15.7125 3.2875C16.5 4.075 17.1198 5.00104 17.5719 6.06562C18.024 7.13021 18.25 8.275 18.25 9.5C18.25 10.7396 18.024 11.8917 17.5719 12.9563C17.1198 14.0208 16.5 14.9469 15.7125 15.7344C14.925 16.5219 13.999 17.138 12.9344 17.5828C11.8698 18.0276 10.725 18.25 9.5 18.25ZM9.5 16.9375C11.6146 16.9375 13.3828 16.2266 14.8047 14.8047C16.2266 13.3828 16.9375 11.6146 16.9375 9.5C16.9375 7.38542 16.2266 5.61719 14.8047 4.19531C13.3828 2.77344 11.6146 2.0625 9.5 2.0625C7.38542 2.0625 5.61719 2.77344 4.19531 4.19531C2.77344 5.61719 2.0625 7.38542 2.0625 9.5C2.0625 11.6146 2.77344 13.3828 4.19531 14.8047C5.61719 16.2266 7.38542 16.9375 9.5 16.9375Z" fill="#373737"/>
</svg>
