<svg width="24" height="24" viewBox="0 0 24 24" fill="none" xmlns="http://www.w3.org/2000/svg">
<circle cx="12" cy="12" r="12" fill="#635EA3"/>
<path d="M12.0003 6.16669C13.5852 6.16669 13.783 6.17252 14.4048 6.20169C15.0261 6.23085 15.449 6.32827 15.8212 6.47294C16.2062 6.6211 16.5305 6.82177 16.8548 7.14552C17.1514 7.43713 17.381 7.78986 17.5274 8.17919C17.6715 8.55077 17.7695 8.97427 17.7987 9.59552C17.8261 10.2174 17.8337 10.4151 17.8337 12C17.8337 13.5849 17.8278 13.7827 17.7987 14.4045C17.7695 15.0258 17.6715 15.4487 17.5274 15.8209C17.3814 16.2104 17.1518 16.5632 16.8548 16.8545C16.5631 17.151 16.2104 17.3805 15.8212 17.5271C15.4496 17.6712 15.0261 17.7692 14.4048 17.7984C13.783 17.8258 13.5852 17.8334 12.0003 17.8334C10.4154 17.8334 10.2177 17.8275 9.59583 17.7984C8.97458 17.7692 8.55166 17.6712 8.17949 17.5271C7.79002 17.381 7.43722 17.1514 7.14583 16.8545C6.84915 16.563 6.61962 16.2102 6.47324 15.8209C6.32858 15.4493 6.23116 15.0258 6.20199 14.4045C6.17458 13.7827 6.16699 13.5849 6.16699 12C6.16699 10.4151 6.17283 10.2174 6.20199 9.59552C6.23116 8.97369 6.32858 8.55135 6.47324 8.17919C6.61921 7.78963 6.84879 7.43679 7.14583 7.14552C7.4373 6.84874 7.79008 6.6192 8.17949 6.47294C8.55166 6.32827 8.97399 6.23085 9.59583 6.20169C10.2177 6.17427 10.4154 6.16669 12.0003 6.16669ZM12.0003 9.08335C11.2268 9.08335 10.4849 9.39064 9.93793 9.93763C9.39095 10.4846 9.08366 11.2265 9.08366 12C9.08366 12.7736 9.39095 13.5154 9.93793 14.0624C10.4849 14.6094 11.2268 14.9167 12.0003 14.9167C12.7739 14.9167 13.5157 14.6094 14.0627 14.0624C14.6097 13.5154 14.917 12.7736 14.917 12C14.917 11.2265 14.6097 10.4846 14.0627 9.93763C13.5157 9.39064 12.7739 9.08335 12.0003 9.08335V9.08335ZM15.792 8.93752C15.792 8.74413 15.7152 8.55867 15.5784 8.42192C15.4417 8.28518 15.2562 8.20835 15.0628 8.20835C14.8694 8.20835 14.684 8.28518 14.5472 8.42192C14.4105 8.55867 14.3337 8.74413 14.3337 8.93752C14.3337 9.13091 14.4105 9.31637 14.5472 9.45312C14.684 9.58986 14.8694 9.66669 15.0628 9.66669C15.2562 9.66669 15.4417 9.58986 15.5784 9.45312C15.7152 9.31637 15.792 9.13091 15.792 8.93752ZM12.0003 10.25C12.4645 10.25 12.9096 10.4344 13.2378 10.7626C13.566 11.0908 13.7503 11.5359 13.7503 12C13.7503 12.4641 13.566 12.9093 13.2378 13.2375C12.9096 13.5656 12.4645 13.75 12.0003 13.75C11.5362 13.75 11.0911 13.5656 10.7629 13.2375C10.4347 12.9093 10.2503 12.4641 10.2503 12C10.2503 11.5359 10.4347 11.0908 10.7629 10.7626C11.0911 10.4344 11.5362 10.25 12.0003 10.25V10.25Z" fill="white"/>
</svg>
