<svg width="1253" height="713" viewBox="0 0 1253 713" fill="none" xmlns="http://www.w3.org/2000/svg">
<mask id="mask0_1_201" style="mask-type:alpha" maskUnits="userSpaceOnUse" x="672" y="225" width="581" height="488">
<rect x="672.826" y="225.556" width="580" height="487" fill="#8A3C41"/>
</mask>
<g mask="url(#mask0_1_201)">
<rect x="419.424" y="383.269" width="820" height="2" transform="rotate(-34.7596 419.424 383.269)" fill="#635EA3"/>
<rect x="425.126" y="391.485" width="820" height="2" transform="rotate(-34.7596 425.126 391.485)" fill="#635EA3"/>
<rect x="430.827" y="399.7" width="820" height="2" transform="rotate(-34.7596 430.827 399.7)" fill="#635EA3"/>
<rect x="436.528" y="407.916" width="820" height="2" transform="rotate(-34.7596 436.528 407.916)" fill="#635EA3"/>
<rect x="442.23" y="416.131" width="820" height="2" transform="rotate(-34.7596 442.23 416.131)" fill="#635EA3"/>
<rect x="447.931" y="424.347" width="820" height="2" transform="rotate(-34.7596 447.931 424.347)" fill="#635EA3"/>
<rect x="453.632" y="432.562" width="820" height="2" transform="rotate(-34.7596 453.632 432.562)" fill="#635EA3"/>
<rect x="459.334" y="440.778" width="820" height="2" transform="rotate(-34.7596 459.334 440.778)" fill="#635EA3"/>
<rect x="465.035" y="448.994" width="820" height="2" transform="rotate(-34.7596 465.035 448.994)" fill="#635EA3"/>
<rect x="470.736" y="457.209" width="820" height="2" transform="rotate(-34.7596 470.736 457.209)" fill="#635EA3"/>
<rect x="476.438" y="465.425" width="820" height="2" transform="rotate(-34.7596 476.438 465.425)" fill="#635EA3"/>
<rect x="482.139" y="473.64" width="820" height="2" transform="rotate(-34.7596 482.139 473.64)" fill="#635EA3"/>
<rect x="487.84" y="481.856" width="820" height="2" transform="rotate(-34.7596 487.84 481.856)" fill="#635EA3"/>
<rect x="493.542" y="490.071" width="820" height="2" transform="rotate(-34.7596 493.542 490.071)" fill="#635EA3"/>
<rect x="499.243" y="498.287" width="820" height="2" transform="rotate(-34.7596 499.243 498.287)" fill="#635EA3"/>
<rect x="504.944" y="506.502" width="820" height="2" transform="rotate(-34.7596 504.944 506.502)" fill="#635EA3"/>
<rect x="510.646" y="514.718" width="820" height="2" transform="rotate(-34.7596 510.646 514.718)" fill="#635EA3"/>
<rect x="516.347" y="522.933" width="820" height="2" transform="rotate(-34.7596 516.347 522.933)" fill="#635EA3"/>
<rect x="522.048" y="531.149" width="820" height="2" transform="rotate(-34.7596 522.048 531.149)" fill="#635EA3"/>
<rect x="527.75" y="539.364" width="820" height="2" transform="rotate(-34.7596 527.75 539.364)" fill="#635EA3"/>
<rect x="533.451" y="547.58" width="820" height="2" transform="rotate(-34.7596 533.451 547.58)" fill="#635EA3"/>
<rect x="539.152" y="555.795" width="820" height="2" transform="rotate(-34.7596 539.152 555.795)" fill="#635EA3"/>
<rect x="544.854" y="564.011" width="820" height="2" transform="rotate(-34.7596 544.854 564.011)" fill="#635EA3"/>
<rect x="550.555" y="572.226" width="820" height="2" transform="rotate(-34.7596 550.555 572.226)" fill="#635EA3"/>
<rect x="556.256" y="580.442" width="820" height="2" transform="rotate(-34.7596 556.256 580.442)" fill="#635EA3"/>
<rect x="561.958" y="588.657" width="820" height="2" transform="rotate(-34.7596 561.958 588.657)" fill="#635EA3"/>
<rect x="567.659" y="596.873" width="820" height="2" transform="rotate(-34.7596 567.659 596.873)" fill="#635EA3"/>
<rect x="573.36" y="605.088" width="820" height="2" transform="rotate(-34.7596 573.36 605.088)" fill="#635EA3"/>
<rect x="579.062" y="613.304" width="820" height="2" transform="rotate(-34.7596 579.062 613.304)" fill="#635EA3"/>
<rect x="584.763" y="621.519" width="820" height="2" transform="rotate(-34.7596 584.763 621.519)" fill="#635EA3"/>
<rect x="590.465" y="629.735" width="820" height="2" transform="rotate(-34.7596 590.465 629.735)" fill="#635EA3"/>
<rect x="596.166" y="637.95" width="820" height="2" transform="rotate(-34.7596 596.166 637.95)" fill="#635EA3"/>
<rect x="601.867" y="646.166" width="820" height="2" transform="rotate(-34.7596 601.867 646.166)" fill="#635EA3"/>
<rect x="607.569" y="654.381" width="820" height="2" transform="rotate(-34.7596 607.569 654.381)" fill="#635EA3"/>
<rect x="613.27" y="662.597" width="820" height="2" transform="rotate(-34.7596 613.27 662.597)" fill="#635EA3"/>
<rect x="618.971" y="670.812" width="820" height="2" transform="rotate(-34.7596 618.971 670.812)" fill="#635EA3"/>
<rect x="624.673" y="679.028" width="820" height="2" transform="rotate(-34.7596 624.673 679.028)" fill="#635EA3"/>
<rect x="630.374" y="687.243" width="820" height="2" transform="rotate(-34.7596 630.374 687.243)" fill="#635EA3"/>
<rect x="636.075" y="695.459" width="820" height="2" transform="rotate(-34.7596 636.075 695.459)" fill="#635EA3"/>
<rect x="641.777" y="703.674" width="820" height="2" transform="rotate(-34.7596 641.777 703.674)" fill="#635EA3"/>
<rect x="647.478" y="711.89" width="820" height="2" transform="rotate(-34.7596 647.478 711.89)" fill="#635EA3"/>
<rect x="653.179" y="720.106" width="820" height="2" transform="rotate(-34.7596 653.179 720.106)" fill="#635EA3"/>
<rect x="658.881" y="728.321" width="820" height="2" transform="rotate(-34.7596 658.881 728.321)" fill="#635EA3"/>
<rect x="664.582" y="736.537" width="820" height="2" transform="rotate(-34.7596 664.582 736.537)" fill="#635EA3"/>
<rect x="670.283" y="744.752" width="820" height="2" transform="rotate(-34.7596 670.283 744.752)" fill="#635EA3"/>
<rect x="675.985" y="752.968" width="820" height="2" transform="rotate(-34.7596 675.985 752.968)" fill="#635EA3"/>
<rect x="681.686" y="761.183" width="820" height="2" transform="rotate(-34.7596 681.686 761.183)" fill="#635EA3"/>
<rect x="687.387" y="769.399" width="820" height="2" transform="rotate(-34.7596 687.387 769.399)" fill="#635EA3"/>
<rect x="693.089" y="777.614" width="820" height="2" transform="rotate(-34.7596 693.089 777.614)" fill="#635EA3"/>
<rect x="698.79" y="785.83" width="820" height="2" transform="rotate(-34.7596 698.79 785.83)" fill="#635EA3"/>
<rect x="704.492" y="794.045" width="820" height="2" transform="rotate(-34.7596 704.492 794.045)" fill="#635EA3"/>
<rect x="710.193" y="802.261" width="820" height="2" transform="rotate(-34.7596 710.193 802.261)" fill="#635EA3"/>
<rect x="715.894" y="810.476" width="820" height="2" transform="rotate(-34.7596 715.894 810.476)" fill="#635EA3"/>
<rect x="721.595" y="818.692" width="820" height="2" transform="rotate(-34.7596 721.595 818.692)" fill="#635EA3"/>
<rect x="727.297" y="826.907" width="820" height="2" transform="rotate(-34.7596 727.297 826.907)" fill="#635EA3"/>
<rect x="732.998" y="835.123" width="820" height="2" transform="rotate(-34.7596 732.998 835.123)" fill="#635EA3"/>
<rect x="738.699" y="843.338" width="820" height="2" transform="rotate(-34.7596 738.699 843.338)" fill="#635EA3"/>
<rect x="744.401" y="851.554" width="820" height="2" transform="rotate(-34.7596 744.401 851.554)" fill="#635EA3"/>
<rect x="750.102" y="859.769" width="820" height="2" transform="rotate(-34.7596 750.102 859.769)" fill="#635EA3"/>
<rect x="755.803" y="867.985" width="820" height="2" transform="rotate(-34.7596 755.803 867.985)" fill="#635EA3"/>
<rect x="761.505" y="876.2" width="820" height="2" transform="rotate(-34.7596 761.505 876.2)" fill="#635EA3"/>
<rect x="767.206" y="884.416" width="820" height="2" transform="rotate(-34.7596 767.206 884.416)" fill="#635EA3"/>
<rect x="772.907" y="892.631" width="820" height="2" transform="rotate(-34.7596 772.907 892.631)" fill="#635EA3"/>
<rect x="778.609" y="900.847" width="820" height="2" transform="rotate(-34.7596 778.609 900.847)" fill="#635EA3"/>
<rect x="784.31" y="909.062" width="820" height="2" transform="rotate(-34.7596 784.31 909.062)" fill="#635EA3"/>
<rect x="790.011" y="917.278" width="820" height="2" transform="rotate(-34.7596 790.011 917.278)" fill="#635EA3"/>
<rect x="795.713" y="925.493" width="820" height="2" transform="rotate(-34.7596 795.713 925.493)" fill="#635EA3"/>
<rect x="801.414" y="933.709" width="820" height="2" transform="rotate(-34.7596 801.414 933.709)" fill="#635EA3"/>
</g>
<path fill-rule="evenodd" clip-rule="evenodd" d="M39.938 36.6509L37.4387 38.1877C36.6684 38.7505 36.1908 39.3152 35.9366 39.8655L35.9306 39.8785L35.9242 39.8913C35.6968 40.3424 35.6399 40.9205 35.8644 41.6968L52.7103 99.9619C53.1182 101.373 53.7202 102.077 54.3875 102.363C55.1296 102.646 56.2195 102.65 57.7507 102.207L64.7449 100.185C66.7952 99.592 68.4222 98.8181 69.6549 97.8837L69.6605 97.8794C70.8998 96.9563 71.9239 95.6327 72.7141 93.8669L72.7149 93.8652C73.5361 92.0412 74.2099 89.5239 74.7172 86.282C74.7174 86.2809 74.7176 86.2798 74.7177 86.2787L76.0541 77.2414L76.0568 77.2268C76.3193 75.8021 76.847 74.6319 77.7304 73.8447C78.6386 73.01 79.8167 72.6199 81.1786 72.6031C82.5354 72.5865 83.7116 72.9381 84.5957 73.76C85.5141 74.6137 85.9035 75.9017 85.9381 77.4243L85.9382 77.4289L86.3131 99.3159L86.313 99.3264C86.2967 101.344 86.0027 103.014 85.3572 104.262C84.709 105.644 83.4452 106.54 81.7557 107.028C80.7192 107.328 79.6302 107.409 78.4969 107.281C77.5364 107.193 76.4576 107.137 75.2591 107.113L75.2507 107.113C74.1849 107.082 72.8955 107.272 71.3687 107.714L28.9415 119.98C27.3983 120.427 26.0078 120.504 24.8861 120.012L24.8739 120.006L24.8619 120.001C23.7471 119.469 23.018 118.533 22.6599 117.294C22.3624 116.265 22.361 115.265 22.712 114.331C23.0606 113.404 23.7278 112.618 24.6352 111.959L24.6613 111.94L27.1653 110.4C27.988 109.816 28.4574 109.271 28.6775 108.787L28.6794 108.783C28.9122 108.279 28.9587 107.668 28.735 106.894L11.8891 48.6286C11.6646 47.8523 11.3081 47.3938 10.8751 47.1337L10.8487 47.1178L10.8235 47.1001C10.3711 46.7808 9.68569 46.5559 8.69039 46.501L5.75125 46.5351L5.71904 46.533C4.59972 46.4595 3.61618 46.1511 2.82633 45.5526C2.03109 44.9501 1.49886 44.1039 1.20142 43.0751C0.835412 41.8092 0.940964 40.6131 1.6338 39.5885C2.31989 38.574 3.53699 37.8971 5.08022 37.451L35.7156 28.5935C37.248 28.1505 38.6298 28.0712 39.7239 28.5835C40.8505 29.0816 41.5746 30.0348 41.9395 31.2968C42.2369 32.3255 42.2384 33.3252 41.8874 34.2591C41.5387 35.1867 40.8715 35.9724 39.9641 36.6319L39.938 36.6509ZM39.3776 29.3442C38.5554 28.9556 37.4121 28.9729 35.9478 29.3963L5.31233 38.2538C3.84799 38.6771 2.85257 39.2781 2.32606 40.0567C1.79955 40.8353 1.69227 41.764 2.00424 42.843C2.51674 44.6156 3.77327 45.5677 5.77383 45.6991L8.70782 45.6651C9.81 45.7222 10.6759 45.973 11.3054 46.4173C11.9623 46.8119 12.4245 47.4717 12.6919 48.3965L29.5378 106.662C29.8052 107.587 29.772 108.41 29.4381 109.133C29.1317 109.806 28.5276 110.461 27.626 111.098L25.1265 112.635C23.5048 113.813 22.9502 115.289 23.4627 117.062C23.7635 118.102 24.3499 118.83 25.2218 119.246C26.0825 119.624 27.245 119.601 28.7094 119.178L71.1366 106.911C72.7165 106.454 74.0961 106.243 75.2754 106.278C76.4932 106.302 77.5953 106.359 78.5819 106.449C79.6182 106.567 80.5987 106.493 81.5236 106.225C83.065 105.779 84.0929 105.002 84.6074 103.893C85.1715 102.811 85.4615 101.287 85.4773 99.3197L85.1026 77.4432C85.0706 76.0328 84.712 75.009 84.0267 74.372C83.3415 73.735 82.3955 73.4239 81.1889 73.4388C79.9822 73.4536 79.0163 73.7955 78.2911 74.4645C77.5932 75.0838 77.1224 76.0551 76.8787 77.3782L75.5434 86.4079C75.0303 89.688 74.3414 92.2881 73.4769 94.2083C72.6397 96.0789 71.534 97.526 70.1598 98.5497C68.824 99.5622 67.0964 100.375 64.977 100.988L57.9829 103.01C56.3644 103.478 55.0614 103.52 54.0739 103.138C53.0752 102.717 52.3531 101.735 51.9074 100.194L35.0616 41.9289C34.7942 41.0041 34.8329 40.1995 35.1779 39.5152C35.5118 38.7923 36.1102 38.1182 36.9733 37.4928L39.4728 35.9559C41.0946 34.7772 41.6492 33.3015 41.1367 31.5289C40.8247 30.4499 40.2383 29.7217 39.3776 29.3442Z" fill="#635EA3"/>
<path fill-rule="evenodd" clip-rule="evenodd" d="M154.567 64.4223C153.172 66.1079 151.035 67.0431 148.308 67.3409L118.34 70.6147C119.518 74.1491 121.239 76.8431 123.469 78.7411C127.126 81.7797 131.729 83.0264 137.365 82.4108C140.345 82.0852 142.913 81.3152 145.083 80.119L145.088 80.1167C147.278 78.9265 149.095 77.2051 150.539 74.9316L150.569 74.885L150.604 74.8427C151.465 73.8158 152.184 73.0579 152.742 72.6238C153.327 72.17 153.97 71.8807 154.667 71.8046C155.171 71.7496 155.664 71.8255 156.113 72.0685C156.553 72.3072 156.892 72.6756 157.148 73.1137C157.618 73.8851 157.894 74.8083 158.008 75.8515L158.009 75.861L158.01 75.8706C158.326 79.5424 157.43 83.0794 155.36 86.4606L155.357 86.4652C153.281 89.8052 150.241 92.6162 146.273 94.911L146.269 94.913C142.315 97.1754 137.61 98.5921 132.176 99.1857C126.12 99.8472 120.551 99.2211 115.484 97.2848C110.422 95.3501 106.243 92.3152 102.965 88.1837L102.961 88.1793C99.7107 84.0263 97.7762 78.9954 97.1343 73.1196C96.4338 66.7072 97.0945 60.9068 99.1467 55.7401C101.201 50.5689 104.529 46.3551 109.116 43.1127C113.71 39.8232 119.41 37.8261 126.179 37.0866C132.011 36.4495 137.099 36.8974 141.411 38.4754C141.412 38.4755 141.411 38.4753 141.411 38.4754L141.125 39.2604M151.046 46.4085C153.454 49.6157 154.9 53.4324 155.383 57.8587C155.658 60.3709 155.171 62.3811 153.924 63.8894C152.712 65.3534 150.81 66.227 148.218 66.5101L117.239 69.8943C117.32 70.1696 117.404 70.4407 117.491 70.7075C118.708 74.4401 120.521 77.3312 122.931 79.3807C126.792 82.5906 131.634 83.8776 137.456 83.2415C140.526 82.9061 143.203 82.1093 145.487 80.851C147.81 79.5884 149.73 77.7646 151.245 75.3797C152.101 74.358 152.772 73.6594 153.255 73.2837C153.739 72.9081 154.24 72.692 154.758 72.6353C155.476 72.5569 156.033 72.8592 156.431 73.5421C156.824 74.1851 157.073 74.9852 157.177 75.9422C157.476 79.4202 156.633 82.7808 154.647 86.0242C152.656 89.2277 149.726 91.9488 145.854 94.1876C142.018 96.3821 137.429 97.7712 132.085 98.355C126.144 99.004 120.71 98.3871 115.783 96.5042C110.856 94.6213 106.801 91.6747 103.619 87.6642C100.477 83.6495 98.5923 78.771 97.9651 73.0288C97.2768 66.7284 97.9295 61.0683 99.9234 56.0486C101.917 51.0289 105.143 46.9439 109.601 43.7937M131.473 62.8313C133.587 62.6004 134.537 61.508 134.323 59.5541C133.766 54.4499 132.576 50.7666 130.755 48.504C128.974 46.2371 126.788 45.2452 124.196 45.5284C122.282 45.7374 120.637 46.5628 119.261 48.0044C117.881 49.4061 116.889 51.4109 116.286 54.019C115.679 56.5871 115.572 59.6656 115.964 63.2545C115.979 63.397 115.995 63.5387 116.012 63.6796C116.045 63.959 116.08 64.2354 116.117 64.5088L131.473 62.8313ZM116.843 63.5889L131.382 62.0005C132.327 61.8974 132.856 61.6174 133.14 61.2904C133.413 60.9762 133.583 60.4763 133.492 59.6448C132.941 54.593 131.775 51.1032 130.104 49.028L130.098 49.0203C128.473 46.9517 126.557 46.1111 124.287 46.3591C122.576 46.546 121.111 47.2768 119.866 48.5814L119.861 48.5861L119.856 48.5907C118.617 49.8496 117.681 51.6971 117.101 54.2072L117.1 54.2113C116.521 56.6596 116.409 59.6371 116.794 63.1637C116.81 63.3063 116.826 63.448 116.843 63.5889ZM151.715 45.9086C154.222 49.2482 155.716 53.2103 156.214 57.7679C156.506 60.436 155.998 62.6932 154.567 64.4223" fill="#635EA3"/>
<path fill-rule="evenodd" clip-rule="evenodd" d="M194.653 73.7997C194.687 76.6476 195.234 78.8275 196.295 80.3394C197.395 81.8107 198.908 82.535 200.834 82.5124C202.318 82.4949 203.457 82.1405 204.251 81.4491C205.085 80.7573 205.738 79.9874 206.21 79.1394C206.721 78.2508 207.213 77.4628 207.686 76.7752C208.2 76.0872 208.897 75.738 209.78 75.7276C210.462 75.7196 211.006 75.9538 211.413 76.4304C211.86 76.9066 212.09 77.7262 212.104 78.8894C212.137 81.7373 211.306 84.3747 209.61 86.8017C207.913 89.1885 205.549 91.1219 202.517 92.6018C199.525 94.0411 196.084 94.7837 192.193 94.8296C186.337 94.8986 181.768 93.5283 178.485 90.7187C175.202 87.869 173.527 83.5562 173.459 77.7803L173.093 46.7347C173.08 45.6116 172.849 44.7919 172.402 44.2756C171.995 43.7589 171.308 43.3257 170.341 42.9761L168.045 42.2209C167.079 41.9113 166.372 41.5185 165.925 41.0424C165.518 40.5257 165.31 39.9063 165.302 39.1843C165.29 38.2217 165.622 37.4756 166.298 36.9461C166.974 36.4167 167.853 36.1455 168.936 36.1328L172.426 36.0917C173.268 36.0817 174.008 35.8925 174.646 35.5239C175.323 35.1148 176.097 34.4036 176.967 33.3905L184.977 23.7284C186.046 22.5123 187.058 21.6178 188.014 21.0449C188.97 20.472 189.91 20.1801 190.832 20.1693C191.835 20.1574 192.621 20.4892 193.191 21.1644C193.76 21.7996 194.051 22.7188 194.066 23.9221L194.206 35.835L207.443 35.679C208.526 35.6663 209.391 35.8968 210.038 36.3705C210.685 36.8042 211.014 37.4622 211.024 38.3447C211.039 39.6282 210.41 40.7187 209.137 41.6163C207.904 42.5134 205.844 42.979 202.956 43.013L194.292 43.1151L194.653 73.7997ZM195.137 43.9409L195.489 73.7899C195.522 76.5471 196.052 78.5311 196.972 79.8491C197.903 81.088 199.155 81.6964 200.824 81.6767C202.19 81.6606 203.109 81.3355 203.702 80.8188L203.71 80.8122L203.718 80.8058C204.481 80.1725 205.064 79.4808 205.479 78.7334L205.482 78.7281L205.485 78.7228C206.005 77.8189 206.509 77.0111 206.998 76.3014L207.007 76.2882L207.016 76.2754C207.69 75.3721 208.636 74.9053 209.77 74.8919C210.669 74.8814 211.454 75.1999 212.036 75.8734C212.692 76.5836 212.925 77.6639 212.939 78.8796C212.975 81.9093 212.087 84.7164 210.294 87.2804L210.291 87.2859C208.501 89.8028 206.021 91.821 202.884 93.3528L202.879 93.3549C199.76 94.8555 196.195 95.6182 192.203 95.6652C186.217 95.7358 181.426 94.3356 177.942 91.3536L177.938 91.3498C174.42 88.2966 172.693 83.7221 172.623 77.7902L172.257 46.7445C172.245 45.7007 172.028 45.1198 171.77 44.8229L171.758 44.8082L171.746 44.793C171.476 44.4509 170.957 44.089 170.068 43.766L167.79 43.0168C167.789 43.0164 167.788 43.016 167.787 43.0156C166.755 42.6847 165.899 42.2353 165.316 41.6143L165.291 41.588L165.269 41.5597C164.736 40.8839 164.476 40.0814 164.466 39.1942C164.452 38.0074 164.875 36.9994 165.783 36.2883C166.637 35.6189 167.709 35.3115 168.926 35.2971L172.416 35.256C173.132 35.2476 173.726 35.0889 174.221 34.8044C174.785 34.4616 175.487 33.8297 176.329 32.8515L184.341 23.1857L184.349 23.1767C185.452 21.9223 186.529 20.9606 187.585 20.328C188.641 19.6949 189.724 19.3466 190.822 19.3336C192.033 19.3194 193.069 19.7293 193.821 20.6161C194.566 21.453 194.886 22.5941 194.901 23.9123L195.032 34.9895L207.433 34.8434C208.627 34.8293 209.683 35.0809 210.518 35.686C211.417 36.2954 211.847 37.2257 211.86 38.3348C211.879 39.9524 211.064 41.2787 209.624 42.2958C208.172 43.3493 205.891 43.8141 202.966 43.8486L195.137 43.9409Z" fill="#635EA3"/>
<path fill-rule="evenodd" clip-rule="evenodd" d="M223.752 20.0549L223.746 20.0486C221.677 17.9686 220.74 15.2814 220.885 12.0752C221.046 8.51461 222.501 5.6337 225.24 3.50431C227.946 1.40142 231.117 0.43817 234.708 0.600653C238.919 0.791161 242.366 2.34873 244.975 5.29458C247.614 8.27503 248.739 12.5058 248.498 17.8417C248.285 22.5531 247.232 26.7637 245.32 30.4563L245.319 30.4594C243.418 34.0946 240.898 37.094 237.759 39.4447L237.753 39.4488C234.619 41.756 231.064 43.2946 227.102 44.067C225.464 44.4083 224.041 44.4301 222.944 43.9738L222.938 43.9714L222.932 43.9689C221.859 43.5036 221.17 42.6621 220.91 41.5189C220.642 40.4403 220.891 39.4246 221.593 38.541L221.602 38.5293L221.611 38.518C222.352 37.65 223.596 36.9755 225.191 36.4278L225.2 36.4248L225.209 36.422C227.79 35.5994 229.919 34.5526 231.616 33.2948C233.38 31.9797 234.666 30.6133 235.509 29.205L235.512 29.1986C236.417 27.7163 236.861 26.3899 236.915 25.2081C236.941 24.616 236.792 24.2385 236.553 23.9763L236.527 23.9483L236.504 23.9181C236.363 23.7326 235.931 23.4704 234.82 23.4202L233.017 23.3386C229.018 23.1577 225.883 22.1083 223.759 20.061L223.752 20.0549ZM232.115 33.9655C230.328 35.2901 228.111 36.3743 225.463 37.2182C223.913 37.7504 222.841 38.3645 222.247 39.0604C221.694 39.7581 221.519 40.5132 221.723 41.3255C221.924 42.218 222.437 42.8435 223.264 43.2022C224.132 43.5626 225.356 43.5778 226.937 43.2478C230.785 42.4984 234.226 41.0077 237.258 38.7757C240.292 36.5037 242.732 33.6025 244.578 30.0721C246.426 26.5017 247.454 22.4123 247.663 17.804C247.899 12.5945 246.794 8.60944 244.349 5.84863C241.904 3.08783 238.678 1.61678 234.671 1.43549C231.264 1.2814 228.292 2.19095 225.753 4.16414C223.215 6.13733 221.87 8.78693 221.72 12.1129C221.584 15.1184 222.457 17.5671 224.339 19.4592C226.262 21.3131 229.168 22.3279 233.055 22.5037L234.858 22.5853C236.02 22.6379 236.791 22.9137 237.17 23.4127C237.591 23.8734 237.784 24.4845 237.749 25.2458C237.688 26.6083 237.18 28.071 236.226 29.6341C235.314 31.1588 233.943 32.6026 232.115 33.9655Z" fill="#635EA3"/>
<path fill-rule="evenodd" clip-rule="evenodd" d="M279.696 47.1237L279.694 47.1247C278.461 48.0162 277.788 49.193 277.643 50.7112C277.552 51.6699 277.663 52.5608 277.967 53.3949C278.235 54.0813 278.911 54.8636 280.166 55.7093C281.395 56.4955 283.358 57.3073 286.108 58.1272C292.846 60.0643 297.997 62.2265 301.508 64.6378C305.041 66.998 307.455 69.6693 308.64 72.678C309.843 75.5844 310.271 78.7625 309.944 82.1947C309.349 88.445 306.664 93.252 301.87 96.5175L301.866 96.5202C297.079 99.7414 290.482 100.885 282.195 100.096C279.327 99.823 276.975 99.3558 275.168 98.6745C273.437 98.0623 272.008 97.4735 270.889 96.9064L270.873 96.8982L270.857 96.8891C269.888 96.3429 269.066 96.0657 268.381 96.0005C267.613 95.9273 267.03 96.0709 266.574 96.3697L266.568 96.3737C265.977 96.7531 265.384 97.1524 264.789 97.5718C263.991 98.1339 263.041 98.3327 262.004 98.234C260.963 98.1349 260.073 97.735 259.504 96.9256C258.992 96.2404 258.654 95.1673 258.414 93.8489L255.893 82.2484L255.89 82.237C255.534 80.3463 255.481 78.7576 255.835 77.5488L255.839 77.5373L255.843 77.5259C256.277 76.1876 257.234 75.314 258.61 74.948L258.62 74.9455C259.923 74.6155 261.138 74.6946 262.175 75.3096C263.18 75.8638 263.982 76.8596 264.628 78.1611C266.124 81.1531 267.756 83.5993 269.515 85.5156C271.322 87.4428 273.232 88.9174 275.244 89.9545C277.311 90.9611 279.448 91.5673 281.658 91.7778C284.649 92.0626 286.78 91.6734 288.185 90.7666C289.593 89.8571 290.372 88.566 290.539 86.8143C290.642 85.7273 290.451 84.7926 289.992 83.9777L289.982 83.9598L289.973 83.9414C289.583 83.1611 288.635 82.2895 286.921 81.3827L286.911 81.3776L286.901 81.3721C285.261 80.4477 282.727 79.4553 279.261 78.4039C273.846 76.7907 269.54 74.887 266.38 72.6719L266.374 72.6674C263.221 70.4133 260.987 67.8005 259.732 64.8157L259.728 64.8068C258.525 61.8517 258.117 58.5114 258.469 54.8087C258.842 50.8986 260.213 47.5506 262.601 44.8016C264.972 42.0719 268.044 40.0979 271.789 38.8691C275.542 37.5991 279.749 37.198 284.395 37.6403C287.343 37.9211 289.721 38.3906 291.493 39.0718C293.221 39.7244 294.636 40.3758 295.722 41.0301C296.706 41.5654 297.648 41.864 298.551 41.95C299.413 42.0321 300.063 41.8872 300.557 41.5859C301.28 41.135 301.96 40.7007 302.598 40.2829C303.424 39.7419 304.381 39.5434 305.42 39.6423C306.402 39.7359 307.212 40.1876 307.782 40.9826C308.398 41.7446 308.708 42.8702 308.83 44.2044L310.194 55.2768L310.195 55.2925C310.35 57.1113 310.274 58.6111 309.887 59.7145C309.496 60.9248 308.563 61.6908 307.282 62.0505C305.975 62.4413 304.743 62.3335 303.698 61.5972L303.691 61.592L303.684 61.5868C302.791 60.9284 301.966 59.8505 301.185 58.4451L301.177 58.4307L301.169 58.416C299.007 54.139 296.511 51.126 293.714 49.2975L293.708 49.2939L293.703 49.2903C290.886 47.3865 288.042 46.3152 285.167 46.0414C282.731 45.8095 280.946 46.2159 279.696 47.1237ZM307.999 44.2935C307.881 42.9928 307.587 42.0582 307.118 41.4896C306.692 40.885 306.099 40.5465 305.34 40.4742C304.462 40.3906 303.7 40.5598 303.056 40.982C302.411 41.4042 301.725 41.8425 300.996 42.297C300.312 42.7153 299.47 42.877 298.472 42.7819C297.434 42.6831 296.378 42.3408 295.306 41.7551C294.277 41.1333 292.907 40.4992 291.196 39.8527C289.524 39.21 287.231 38.7499 284.316 38.4723C279.764 38.0388 275.676 38.4354 272.054 39.6619C268.435 40.8486 265.494 42.7445 263.231 45.3496C260.969 47.9548 259.659 51.1343 259.301 54.8879C258.959 58.4819 259.359 61.6832 260.502 64.4918C261.685 67.3041 263.804 69.8027 266.86 71.9876C269.92 74.1325 274.134 76.0045 279.502 77.6036C282.987 78.6608 285.591 79.6743 287.312 80.6441C289.076 81.5777 290.212 82.5522 290.72 83.5677C291.272 84.547 291.488 85.6556 291.371 86.8935C291.18 88.8901 290.27 90.4152 288.638 91.4687C287.007 92.5222 284.653 92.9025 281.579 92.6097C279.262 92.3892 277.026 91.7532 274.87 90.7016C272.757 89.614 270.768 88.0747 268.903 86.0838C267.077 84.0967 265.403 81.58 263.88 78.5338C263.271 77.3073 262.565 76.4744 261.76 76.0351C260.96 75.556 259.981 75.4628 258.825 75.7557C257.709 76.0523 256.98 76.7284 256.637 77.7837C256.339 78.803 256.364 80.2358 256.712 82.0822L259.233 93.6855C259.471 94.9975 259.787 95.9141 260.18 96.4351C260.57 96.9961 261.204 97.3184 262.083 97.402C262.961 97.4857 263.703 97.3145 264.308 96.8886C264.912 96.4626 265.515 96.0566 266.116 95.6706C266.761 95.2484 267.542 95.0811 268.461 95.1685C269.299 95.2484 270.235 95.5792 271.267 96.1611C272.344 96.7068 273.739 97.283 275.455 97.8895C277.166 98.536 279.439 98.9943 282.275 99.2642C290.461 100.044 296.836 98.8979 301.4 95.8268C305.967 92.7158 308.538 88.1453 309.112 82.1155C309.428 78.8011 309.012 75.7595 307.865 72.9909C306.762 70.1861 304.487 67.6323 301.04 65.3296C297.636 62.9908 292.58 60.8573 285.874 58.9292C283.092 58.1002 281.036 57.2598 279.707 56.4079C278.381 55.5161 277.541 54.61 277.185 53.6896C276.833 52.7294 276.709 51.7101 276.812 50.6319C276.979 48.8749 277.777 47.4801 279.205 46.4475C280.676 45.3788 282.69 44.9661 285.246 45.2095C288.281 45.4985 291.256 46.6279 294.171 48.5979C297.13 50.5317 299.711 53.6788 301.915 58.039C302.672 59.4005 303.427 60.3589 304.18 60.9141C304.973 61.4732 305.929 61.5844 307.049 61.2478C308.126 60.9473 308.807 60.3474 309.094 59.4479C309.425 58.5124 309.515 57.1509 309.363 55.3634L307.999 44.2935Z" fill="#635EA3"/>
<path fill-rule="evenodd" clip-rule="evenodd" d="M377.277 90.2855C376.846 93.1008 377.031 95.3407 377.831 97.0052C378.678 98.636 380.052 99.597 381.956 99.8881C383.423 100.113 384.605 99.9483 385.501 99.3955C386.437 98.8488 387.206 98.1954 387.809 97.4355C388.458 96.642 389.072 95.9446 389.651 95.3433C390.27 94.748 391.015 94.5171 391.887 94.6505C392.561 94.7536 393.06 95.0734 393.384 95.6099C393.747 96.1524 393.841 96.9986 393.665 98.1485C393.235 100.964 391.985 103.431 389.916 105.549C387.853 107.628 385.206 109.15 381.974 110.117C378.788 111.05 375.272 111.222 371.425 110.634C365.636 109.749 361.351 107.653 358.57 104.346C355.794 101 354.843 96.472 355.717 90.762L360.411 60.0711C360.58 58.9608 360.487 58.1146 360.129 57.5324C359.812 56.9563 359.204 56.417 358.307 55.9146L356.165 54.7957C355.262 54.3329 354.629 53.8303 354.265 53.2877C353.948 52.7116 353.843 52.0667 353.953 51.3529C354.098 50.4013 354.547 49.7193 355.3 49.3069C356.053 48.8945 356.965 48.7702 358.036 48.9339L361.485 49.4615C362.318 49.5889 363.079 49.5226 363.768 49.2628C364.503 48.9694 365.382 48.3937 366.406 47.5358L375.882 39.3068C377.134 38.2809 378.279 37.5632 379.316 37.1536C380.352 36.7441 381.326 36.609 382.238 36.7485C383.23 36.9001 383.951 37.3554 384.403 38.1144C384.862 38.8337 385 39.7882 384.818 40.9778L383.017 52.7545L396.102 54.7558C397.172 54.9195 397.989 55.2878 398.55 55.8607C399.118 56.3939 399.335 57.0967 399.202 57.969C399.008 59.2379 398.21 60.2115 396.807 60.8898C395.445 61.5741 393.336 61.698 390.481 61.2613L381.916 59.9514L377.277 90.2855ZM382.616 60.9039L378.103 90.4118C377.686 93.1375 377.886 95.1814 378.579 96.6316C379.296 98.0056 380.432 98.8097 382.082 99.062C383.433 99.2686 384.392 99.0974 385.062 98.6842L385.071 98.679L385.079 98.6739C385.936 98.1734 386.623 97.5857 387.155 96.9159L387.158 96.9112L387.162 96.9065C387.822 96.0993 388.451 95.3844 389.049 94.7637L389.06 94.7521L389.071 94.7411C389.884 93.9595 390.892 93.6529 392.014 93.8244C392.902 93.9603 393.625 94.4025 394.09 95.1617C394.621 95.9693 394.675 97.0731 394.491 98.2749C394.033 101.27 392.7 103.895 390.514 106.133L390.509 106.138C388.334 108.33 385.559 109.917 382.213 110.918L382.209 110.919C378.887 111.892 375.245 112.064 371.299 111.46C365.381 110.555 360.882 108.394 357.93 104.884L357.926 104.88C354.953 101.295 353.994 96.4998 354.891 90.6357L359.584 59.9448C359.742 58.9129 359.622 58.3043 359.417 57.9696L359.407 57.953L359.397 57.9359C359.187 57.5545 358.734 57.1129 357.909 56.6495L355.784 55.5394C355.783 55.5389 355.782 55.5383 355.781 55.5378C354.817 55.0433 354.045 54.4604 353.571 53.7528L353.551 53.7229L353.534 53.6913C353.118 52.9378 352.992 52.1037 353.126 51.2266C353.306 50.0534 353.888 49.1277 354.899 48.5739C355.851 48.0526 356.958 47.9237 358.162 48.1078L361.612 48.6354C362.32 48.7437 362.931 48.6837 363.466 48.4837C364.078 48.2374 364.874 47.7282 365.864 46.9L375.343 38.6679L375.352 38.6602C376.644 37.6021 377.864 36.8286 379.008 36.3764C380.154 35.9238 381.279 35.7563 382.365 35.9224C383.561 36.1054 384.517 36.6785 385.115 37.6761C385.714 38.6231 385.843 39.8009 385.644 41.1041L383.969 52.0548L396.228 53.9297C397.409 54.1103 398.41 54.5305 399.135 55.2634C399.923 56.011 400.196 56.9989 400.028 58.0954C399.783 59.6945 398.763 60.8704 397.177 61.6394C395.573 62.4424 393.247 62.5298 390.354 62.0874L382.616 60.9039Z" fill="#635EA3"/>
<path fill-rule="evenodd" clip-rule="evenodd" d="M436.034 94.7628C435.843 94.6695 435.652 94.5811 435.46 94.4976C434.474 94.0565 433.347 93.7353 432.08 93.5338C429.465 93.1181 427.285 93.5434 425.541 94.8095C423.842 96.0423 422.778 98.0056 422.35 100.7C421.916 103.433 422.236 105.637 423.31 107.31C424.43 108.95 426.08 109.944 428.259 110.29C429.883 110.548 431.507 110.421 433.133 109.907C433.31 109.851 433.484 109.792 433.655 109.729C433.795 109.678 433.932 109.624 434.068 109.569C434.235 109.5 434.4 109.427 434.561 109.351L436.815 95.1719C436.555 95.0264 436.295 94.89 436.034 94.7628ZM434.971 114.378C433.042 115.703 430.815 116.698 428.292 117.363C424.395 118.368 420.387 118.543 416.267 117.888C410.879 117.032 406.729 115.032 403.817 111.888C400.951 108.711 399.845 105.063 400.5 100.943C401.325 95.753 404.32 91.9847 409.486 89.6377C414.659 87.2511 421.444 86.7254 429.843 88.0604C432.299 88.4508 434.446 88.9952 436.285 89.6937C436.463 89.7565 436.638 89.8202 436.809 89.885C437.082 89.9878 437.348 90.0931 437.605 90.2008L440.381 72.7374C440.721 70.5981 440.415 68.8231 439.461 67.4124C438.547 66.008 437.1 65.1483 435.119 64.8335C433.455 64.569 432.048 64.7312 430.898 65.3202C429.749 65.9092 429.086 66.7583 428.909 67.8675L427.974 73.7505C427.521 76.6029 426.198 78.6671 424.005 79.9432C421.857 81.1859 419.001 81.5239 415.436 80.9572C412.385 80.4723 410.194 79.4336 408.864 77.841C407.572 76.2548 407.116 74.2732 407.493 71.8962C407.903 69.3212 409.415 66.9621 412.03 64.8189C414.652 62.6361 418.293 61.0623 422.955 60.0974C427.617 59.1325 433.236 59.1728 439.813 60.2181C447.656 61.465 453.238 63.9159 456.556 67.5709C459.92 71.1926 461.193 75.5784 460.374 80.7285L455.661 110.381C455.516 111.292 455.597 112.057 455.905 112.674C456.259 113.259 456.852 113.617 457.684 113.749C458.437 113.869 459.043 113.762 459.502 113.429C460.001 113.102 460.457 112.788 460.87 112.489C461.152 112.249 461.447 112.052 461.756 111.898C462.064 111.744 462.397 111.696 462.754 111.752C463.348 111.847 463.749 112.134 463.957 112.614C464.165 113.094 464.216 113.67 464.109 114.344C463.863 115.889 463.05 117.425 461.67 118.952C460.296 120.44 458.426 121.605 456.058 122.447C453.696 123.249 450.891 123.392 447.643 122.876C443.681 122.246 440.588 120.881 438.363 118.781C437.108 117.553 436.29 116.205 435.908 114.739C435.83 114.44 435.771 114.137 435.729 113.829C435.482 114.018 435.229 114.201 434.971 114.378ZM435.182 115.244C433.229 116.539 431.001 117.513 428.505 118.171L428.501 118.172C424.489 119.207 420.365 119.386 416.136 118.714C410.614 117.836 406.275 115.771 403.204 112.456L403.196 112.448C400.166 109.089 398.979 105.188 399.675 100.812C400.548 95.3202 403.743 91.33 409.138 88.8779C414.518 86.3965 421.489 85.8863 429.974 87.235C432.468 87.6316 434.67 88.1873 436.572 88.9089C436.697 88.9531 436.821 88.9977 436.943 89.043L439.556 72.6062C439.872 70.6171 439.574 69.0714 438.769 67.8804L438.765 67.8744L438.761 67.8682C438.001 66.7008 436.785 65.9445 434.988 65.6588C433.446 65.4137 432.229 65.5773 431.279 66.064C430.326 66.5522 429.862 67.1951 429.735 67.9987L428.8 73.8817C428.313 76.9434 426.866 79.2448 424.425 80.6655L424.423 80.6664C422.049 82.0407 418.976 82.3661 415.304 81.7825C412.149 81.2809 409.733 80.1848 408.222 78.3769L408.215 78.3686C406.747 76.5651 406.26 74.3313 406.668 71.765C407.118 68.9346 408.774 66.4074 411.498 64.1745C414.258 61.8772 418.041 60.261 422.786 59.2791C427.578 58.2873 433.304 58.3374 439.944 59.3928C447.867 60.6522 453.668 63.1489 457.172 67.0059C460.719 70.8267 462.056 75.4739 461.199 80.8597L456.486 110.512C456.363 111.289 456.441 111.855 456.638 112.27C456.838 112.582 457.183 112.823 457.815 112.924C458.427 113.021 458.786 112.916 459.011 112.752L459.027 112.741L459.044 112.73C459.523 112.416 459.96 112.116 460.354 111.83C460.676 111.56 461.019 111.332 461.383 111.15C461.855 110.915 462.365 110.844 462.885 110.927C463.711 111.058 464.383 111.496 464.724 112.281C465.012 112.945 465.059 113.691 464.934 114.475C464.656 116.223 463.745 117.902 462.29 119.512L462.284 119.519C460.799 121.127 458.803 122.357 456.338 123.234L456.332 123.236L456.327 123.238C453.802 124.096 450.853 124.232 447.512 123.701C443.435 123.053 440.169 121.635 437.789 119.389L437.784 119.383L437.778 119.378C436.501 118.128 435.632 116.746 435.182 115.244ZM435.896 95.6282C435.639 95.4969 435.382 95.3754 435.126 95.2636L435.119 95.2605C434.211 94.8544 433.157 94.5512 431.948 94.3591C429.5 93.9698 427.558 94.3784 426.031 95.4859C424.561 96.5528 423.58 98.2874 423.175 100.831C422.761 103.435 423.085 105.406 424.007 106.849C424.982 108.271 426.415 109.151 428.39 109.465C429.881 109.702 431.375 109.586 432.881 109.11C433.201 109.009 433.51 108.896 433.807 108.772L435.896 95.6282Z" fill="#635EA3"/>
<path fill-rule="evenodd" clip-rule="evenodd" d="M483.247 42.1159L495.946 39.05C497.906 38.5699 499.442 38.2584 500.552 38.1156C501.701 37.9778 502.674 37.9591 503.47 38.0596C505.101 38.2657 506.26 38.8568 506.945 39.8329C507.675 40.7742 507.955 41.9214 507.784 43.2745L498.48 116.939C498.299 118.372 498.307 119.424 498.505 120.096C498.748 120.733 499.19 121.234 499.832 121.598L501.488 122.414C502.323 122.843 502.887 123.338 503.18 123.901C503.512 124.469 503.634 125.111 503.543 125.827C503.422 126.782 503.009 127.498 502.301 127.975C501.599 128.412 500.572 128.545 499.219 128.374L473.848 125.169C472.455 124.993 471.473 124.606 470.901 124.009C470.375 123.376 470.172 122.582 470.292 121.627C470.383 120.911 470.64 120.316 471.063 119.844C471.527 119.377 472.196 119.037 473.072 118.824L474.998 118.461C475.67 118.263 476.183 117.883 476.537 117.321C476.936 116.725 477.223 115.73 477.399 114.337L485.226 52.3729C485.372 51.2188 485.316 50.3828 485.058 49.865C484.805 49.3075 484.33 48.9038 483.634 48.6542L481.463 48.0767C480.697 47.7374 480.163 47.3262 479.86 46.8432C479.597 46.3652 479.508 45.788 479.593 45.1114C479.699 44.2757 480.001 43.6467 480.499 43.2244C481.037 42.8071 481.953 42.4377 483.247 42.1159ZM483.383 49.4522C483.893 49.6418 484.159 49.9065 484.297 50.2104L484.303 50.2242L484.31 50.2378C484.45 50.5202 484.539 51.1414 484.397 52.2682L476.57 114.232C476.398 115.597 476.129 116.429 475.843 116.857L475.836 116.866L475.83 116.876C475.597 117.246 475.268 117.502 474.799 117.648L472.896 118.007L472.875 118.012C471.903 118.249 471.075 118.646 470.47 119.256L470.455 119.271L470.441 119.286C469.889 119.902 469.572 120.661 469.463 121.522C469.319 122.665 469.559 123.702 470.259 124.543L470.277 124.565L470.297 124.586C471.066 125.391 472.281 125.814 473.743 125.998L499.114 129.203C500.543 129.383 501.802 129.27 502.743 128.684L502.756 128.676L502.769 128.668C503.703 128.038 504.226 127.092 504.372 125.932C504.482 125.058 504.338 124.234 503.911 123.496C503.507 122.732 502.781 122.138 501.869 121.67L501.863 121.667L500.224 120.86C499.76 120.591 499.466 120.249 499.298 119.829C499.159 119.327 499.134 118.429 499.309 117.044L508.613 43.3792C508.807 41.8478 508.494 40.4754 507.618 39.3363C506.751 38.1135 505.34 37.4536 503.574 37.2305C502.688 37.1186 501.642 37.1431 500.452 37.2858L500.445 37.2867C499.289 37.4355 497.719 37.7555 495.748 38.238C495.748 38.2381 495.747 38.2382 495.747 38.2383L483.051 41.3035L483.045 41.3049C481.726 41.6329 480.668 42.0356 479.987 42.5641L479.972 42.5752L479.958 42.5869C479.259 43.1801 478.888 44.0256 478.764 45.0067C478.662 45.8142 478.76 46.5785 479.128 47.2462L479.139 47.267L479.152 47.2872C479.576 47.9632 480.274 48.4639 481.124 48.8408L481.184 48.8674L483.383 49.4522Z" fill="#635EA3"/>
<path fill-rule="evenodd" clip-rule="evenodd" d="M511.587 130.756L511.576 130.745C510.795 129.978 510.452 128.97 510.482 127.819C510.504 126.952 510.743 126.164 511.231 125.496L511.243 125.479L511.257 125.463C511.798 124.795 512.581 124.318 513.525 123.985L513.546 123.978L515.403 123.43C515.855 123.238 516.157 122.95 516.352 122.559L516.357 122.549L516.362 122.539C516.604 122.084 516.789 121.23 516.823 119.855L518.411 57.4181C518.44 56.2827 518.289 55.6735 518.121 55.4066L518.113 55.3938L518.105 55.3807C517.938 55.0921 517.647 54.8553 517.12 54.7177L514.874 54.3558L514.812 54.3353C513.928 54.0455 513.183 53.6171 512.694 52.9869L512.679 52.9681L512.665 52.9485C512.233 52.3209 512.059 51.5703 512.08 50.7566C512.105 49.768 512.389 48.8897 513.026 48.2295L513.038 48.2165L513.052 48.204C513.677 47.61 514.689 47.1035 515.969 46.6451L515.974 46.6432L528.304 42.3217C530.131 41.6838 531.616 41.2289 532.747 40.9655C533.941 40.6579 535.102 40.5145 536.228 40.5432C537.914 40.586 539.314 41.1146 540.288 42.237C541.233 43.2846 541.655 44.6159 541.616 46.1507L540.283 98.5867L556.641 86.0245C557.958 85.0327 558.312 84.2322 558.258 83.6261L558.257 83.6225C558.203 82.986 557.763 82.3454 556.45 81.8055L554.605 81.158L554.589 81.1517C553.751 80.8187 553.051 80.3621 552.613 79.7253L552.598 79.704L552.585 79.6817C552.208 79.0547 552.068 78.2972 552.089 77.4748C552.119 76.2936 552.575 75.3055 553.5 74.6289C554.39 73.9388 555.524 73.6565 556.813 73.6893L579.069 74.2551C580.383 74.2886 581.52 74.6017 582.379 75.2937C583.267 76.0093 583.687 76.997 583.658 78.1571C583.63 79.2341 583.256 80.1757 582.52 80.9255C582.123 81.3291 581.569 81.6559 580.922 81.9324C580.266 82.2125 579.464 82.4622 578.528 82.6865L578.522 82.688L578.515 82.6895C576.482 83.1431 574.629 83.8125 572.951 84.694L572.944 84.6974L572.938 84.7008C571.255 85.5464 569.118 86.9414 566.517 88.9082L566.513 88.9116L560.008 93.7616L577.949 121.592C578.697 122.697 579.333 123.497 579.858 124.016C580.415 124.489 581.173 124.97 582.15 125.451L582.188 125.47L582.224 125.492C583.152 126.073 583.905 126.716 584.449 127.432C585.021 128.186 585.313 129.037 585.29 129.962C585.262 131.07 584.771 131.983 583.87 132.636C582.987 133.277 581.881 133.54 580.632 133.508L554.226 132.837C553.042 132.807 552.006 132.482 551.197 131.79L551.175 131.771L551.155 131.751C550.382 130.992 550.031 130.008 550.059 128.885C550.079 128.125 550.263 127.426 550.683 126.857C551.085 126.312 551.708 125.871 552.456 125.499L552.496 125.479L554.069 124.896L554.082 124.892C554.825 124.643 554.921 124.365 554.935 124.202L554.937 124.179L554.94 124.157C554.958 124.03 554.935 123.749 554.738 123.253C554.549 122.774 554.23 122.174 553.764 121.445C553.763 121.444 553.763 121.443 553.762 121.442L543.734 105.897L540.027 108.661L539.729 120.377C539.694 121.773 539.809 122.663 539.997 123.149C540.208 123.554 540.54 123.868 541.037 124.089C541.039 124.089 541.041 124.09 541.043 124.091L542.732 124.805L542.765 124.822C543.497 125.212 544.09 125.715 544.493 126.354C544.899 126.998 545.08 127.73 545.06 128.517C545.027 129.782 544.599 130.854 543.662 131.571C542.761 132.26 541.524 132.514 540.09 132.477L515.068 131.841C513.634 131.805 512.409 131.506 511.598 130.766L511.587 130.756ZM539.235 123.494C538.971 122.845 538.857 121.799 538.894 120.355L539.202 108.234L543.952 104.692L554.467 120.992C555.431 122.501 555.865 123.596 555.767 124.275C555.711 124.916 555.238 125.386 554.347 125.684L552.828 126.247C552.137 126.591 551.646 126.959 551.356 127.353C551.065 127.747 550.911 128.265 550.895 128.907C550.871 129.829 551.153 130.578 551.74 131.155C552.369 131.693 553.204 131.975 554.247 132.001L580.653 132.673C581.776 132.701 582.685 132.463 583.38 131.96C584.075 131.456 584.433 130.782 584.454 129.94C584.473 129.219 584.249 128.551 583.783 127.937C583.317 127.323 582.65 126.745 581.781 126.201C580.75 125.693 579.921 125.17 579.293 124.633C578.705 124.056 578.025 123.196 577.251 122.053L558.883 93.5583L566.013 88.2416C568.631 86.2618 570.815 84.8326 572.562 83.9541C574.311 83.0355 576.235 82.3421 578.333 81.8738C580.15 81.4385 581.347 80.9272 581.923 80.34C582.5 79.7528 582.8 79.018 582.822 78.1358C582.846 77.2135 582.523 76.483 581.855 75.9444C581.186 75.4058 580.25 75.1211 579.047 75.0906L556.792 74.5247C555.629 74.4951 554.699 74.7524 554.003 75.2965C553.308 75.8004 552.949 76.5336 552.924 77.4961C552.906 78.2179 553.031 78.8029 553.301 79.2511C553.61 79.7004 554.143 80.0751 554.897 80.3751L556.747 81.024C558.216 81.6232 558.997 82.4656 559.09 83.5514C559.184 84.5971 558.535 85.6439 557.144 86.692L539.403 100.316L540.781 46.1295C540.816 44.7661 540.443 43.6531 539.662 42.7906C538.882 41.888 537.731 41.4173 536.207 41.3786C535.164 41.3521 534.077 41.4849 532.946 41.7772C531.857 42.0304 530.401 42.4749 528.579 43.1107L516.251 47.4319C514.995 47.8815 514.121 48.3408 513.627 48.8097C513.174 49.2797 512.937 49.9358 512.915 50.7779C512.898 51.4596 513.044 52.0251 513.354 52.4743C513.703 52.9246 514.276 53.2802 515.072 53.5412L517.29 53.8986C518.008 54.0773 518.52 54.4314 518.828 54.9609C519.136 55.4503 519.276 56.2764 519.246 57.4393L517.659 119.876C517.623 121.279 517.437 122.298 517.1 122.931C516.804 123.526 516.331 123.955 515.683 124.219L513.803 124.773C512.952 125.073 512.32 125.478 511.906 125.989C511.532 126.501 511.335 127.118 511.317 127.84C511.293 128.803 511.574 129.572 512.161 130.149C512.749 130.685 513.725 130.971 515.089 131.006L540.111 131.642C542.798 131.71 544.169 130.662 544.224 128.496C544.257 127.213 543.64 126.234 542.373 125.56L540.705 124.856C540.031 124.558 539.541 124.104 539.235 123.494Z" fill="#635EA3"/>
<path fill-rule="evenodd" clip-rule="evenodd" d="M584.452 55.5985C584.122 54.3476 583.888 53.2053 583.749 52.1716C583.296 48.7922 583.967 45.95 585.762 43.6451C587.598 41.3348 590.702 39.8863 595.075 39.2996C599.448 38.7129 602.805 39.2947 605.144 41.045C607.484 42.7953 608.88 45.3601 609.333 48.7395C609.472 49.7732 609.527 50.9395 609.499 52.2384C609.505 53.4922 609.426 54.8587 609.26 56.338L606.888 93.8708C606.68 95.6391 606.292 96.9661 605.723 97.8519C605.193 98.7324 604.332 99.2526 603.139 99.4126C601.947 99.5727 600.959 99.3004 600.176 98.5959C599.434 97.8861 598.729 96.7058 598.062 95.0549L585.823 59.4821C585.273 58.0988 584.816 56.8043 584.452 55.5985ZM585.039 59.7725C584.485 58.3778 584.022 57.0668 583.652 55.84L583.648 55.8258L583.644 55.8115C583.307 54.5346 583.065 53.3577 582.921 52.2827C582.443 48.7211 583.147 45.6432 585.103 43.1315L585.108 43.1253C587.131 40.5782 590.481 39.0727 594.964 38.4713C599.445 37.8701 603.058 38.4409 605.645 40.3759C608.194 42.2831 609.684 45.0668 610.161 48.6284C610.307 49.7107 610.363 50.9176 610.335 52.2453C610.341 53.5281 610.259 54.9171 610.093 56.4108L607.721 93.9461L607.718 93.9685C607.505 95.781 607.098 97.2516 606.432 98.2933C605.748 99.4232 604.642 100.054 603.25 100.241C601.853 100.428 600.609 100.11 599.617 99.217L599.608 99.2087L599.599 99.2001C598.729 98.369 597.971 97.0596 597.287 95.3678L597.279 95.3475L585.039 59.7725ZM600.36 130.004L600.354 130.002C598.205 129.004 596.401 127.57 594.95 125.705L594.944 125.697L594.937 125.689C593.517 123.77 592.645 121.601 592.323 119.198C591.99 116.721 592.257 114.393 593.14 112.233L593.142 112.228C594.051 110.044 595.42 108.202 597.24 106.711C599.08 105.204 601.237 104.288 603.689 103.96C606.176 103.626 608.516 103.936 610.69 104.904C612.878 105.856 614.687 107.273 616.103 109.15C617.564 110.995 618.455 113.168 618.788 115.648C619.111 118.055 618.82 120.383 617.913 122.616C617.043 124.801 615.675 126.664 613.822 128.199L613.819 128.202C611.977 129.711 609.799 130.628 607.311 130.961C604.859 131.29 602.538 130.976 600.366 130.007L600.36 130.004ZM617.138 122.304C617.99 120.207 618.264 118.025 617.96 115.759C617.645 113.413 616.806 111.381 615.442 109.661C614.112 107.897 612.416 106.566 610.353 105.669C608.33 104.767 606.145 104.473 603.8 104.788C601.494 105.097 599.484 105.954 597.77 107.357C596.056 108.761 594.77 110.492 593.913 112.549C593.09 114.562 592.836 116.741 593.151 119.087C593.455 121.353 594.274 123.388 595.609 125.192C596.978 126.951 598.677 128.302 600.706 129.244C602.729 130.146 604.894 130.443 607.2 130.133C609.545 129.818 611.575 128.959 613.289 127.556C615.038 126.107 616.32 124.356 617.138 122.304Z" fill="#635EA3"/>
<path d="M54.8561 66.662L52.3566 68.199C51.4935 68.8243 50.895 69.4984 50.5612 70.2213C50.2162 70.9056 50.1774 71.7102 50.4448 72.635L67.2907 130.9C67.7364 132.442 68.4585 133.423 69.4572 133.844C70.4447 134.227 71.7477 134.184 73.3661 133.716L80.3603 131.694C82.4797 131.081 84.2073 130.268 85.543 129.256C86.9173 128.232 88.023 126.785 88.8602 124.914C89.7247 122.994 90.4135 120.394 90.9267 117.114L92.2619 108.084C92.5057 106.761 92.9765 105.79 93.6744 105.171C94.3996 104.502 95.3655 104.16 96.5722 104.145C97.7788 104.13 98.7248 104.441 99.41 105.078C100.095 105.715 100.454 106.739 100.486 108.149L100.861 130.026C100.845 131.993 100.555 133.517 99.9906 134.599C99.4762 135.708 98.4483 136.486 96.9069 136.931C95.982 137.199 95.0015 137.273 93.9652 137.155C92.9786 137.065 91.8764 137.008 90.6586 136.984C89.4794 136.949 88.0998 137.16 86.5199 137.617L44.0927 149.884C42.6283 150.307 41.4658 150.33 40.605 149.953C39.7331 149.537 39.1468 148.808 38.846 147.768C38.3335 145.995 38.8881 144.52 40.5098 143.341L43.0093 141.804C43.9109 141.167 44.515 140.513 44.8214 139.839C45.1552 139.116 45.1885 138.293 44.9211 137.368L28.0752 79.1027C27.8078 78.1778 27.3456 77.5181 26.6887 77.1234C26.0592 76.6791 25.1933 76.4283 24.0911 76.3712L21.1571 76.4053C19.1566 76.2738 17.9 75.3218 17.3875 73.5492C17.0756 72.4702 17.1828 71.5414 17.7093 70.7628C18.2359 69.9842 19.2313 69.3833 20.6956 68.9599L51.331 60.1024C52.7954 59.6791 53.9387 59.6617 54.7609 60.0503C55.6216 60.4278 56.208 61.156 56.52 62.235C57.0325 64.0076 56.4778 65.4833 54.8561 66.662Z" fill="#635EA3"/>
<path d="M170.767 88.5648C171.041 91.077 170.554 93.0872 169.307 94.5955C168.095 96.0595 166.193 96.9331 163.601 97.2162L127.174 101.196L126.579 95.7525L146.856 93.5374C148.97 93.3065 149.92 92.2141 149.706 90.2602C149.149 85.156 147.96 81.4727 146.139 79.2101C144.358 76.9432 142.171 75.9513 139.579 76.2345C137.665 76.4436 136.02 77.2689 134.644 78.7105C133.264 80.1122 132.272 82.117 131.67 84.7251C131.062 87.2932 130.955 90.3717 131.347 93.9606C132.166 101.457 134.488 106.833 138.314 110.087C142.175 113.297 147.017 114.584 152.839 113.948C155.909 113.612 158.586 112.815 160.87 111.557C163.194 110.294 165.113 108.471 166.628 106.086C167.485 105.064 168.155 104.365 168.638 103.99C169.122 103.614 169.623 103.398 170.141 103.341C170.859 103.263 171.417 103.565 171.814 104.248C172.207 104.891 172.456 105.691 172.561 106.648C172.86 110.126 172.016 113.487 170.03 116.73C168.04 119.934 165.109 122.655 161.237 124.894C157.402 127.088 152.812 128.477 147.469 129.061C141.527 129.71 136.093 129.093 131.166 127.21C126.239 125.327 122.185 122.381 119.003 118.37C115.86 114.356 113.976 109.477 113.348 103.735C112.66 97.4345 113.313 91.7744 115.307 86.7547C117.3 81.735 120.526 77.65 124.984 74.4998C129.437 71.3097 134.994 69.3509 141.653 68.6235C147.395 67.9962 152.347 68.4439 156.508 69.9665C160.709 71.4849 164.016 73.8675 166.429 77.1146C168.837 80.3218 170.283 84.1385 170.767 88.5648Z" fill="#635EA3"/>
<path d="M185.724 73.6823L183.428 72.927C182.462 72.6175 181.755 72.2247 181.308 71.7485C180.901 71.2318 180.693 70.6125 180.685 69.8905C180.674 68.9278 181.006 68.1818 181.681 67.6523C182.357 67.1228 183.237 66.8517 184.32 66.8389L187.809 66.7978C188.651 66.7879 189.391 66.5987 190.029 66.2301C190.706 65.821 191.48 65.1098 192.351 64.0966L200.36 54.4345C201.429 53.2184 202.441 52.3239 203.398 51.7511C204.354 51.1782 205.293 50.8863 206.215 50.8754C207.218 50.8636 208.004 51.1953 208.574 51.8706C209.143 52.5057 209.435 53.425 209.449 54.6283L210.037 104.506C210.07 107.354 210.617 109.534 211.678 111.046C212.779 112.517 214.292 113.241 216.217 113.219C217.701 113.201 218.84 112.847 219.634 112.155C220.469 111.463 221.121 110.694 221.593 109.846C222.104 108.957 222.596 108.169 223.069 107.481C223.583 106.793 224.281 106.444 225.163 106.434C225.845 106.426 226.389 106.66 226.796 107.137C227.243 107.613 227.473 108.432 227.487 109.596C227.521 112.443 226.689 115.081 224.993 117.508C223.296 119.895 220.932 121.828 217.9 123.308C214.909 124.747 211.467 125.49 207.577 125.536C201.72 125.605 197.151 124.234 193.869 121.425C190.586 118.575 188.91 114.262 188.842 108.486L188.476 77.4408C188.463 76.3177 188.233 75.498 187.785 74.9818C187.378 74.4651 186.691 74.0319 185.724 73.6823ZM201.914 73.9127L201.828 66.6326L222.826 66.3852C223.909 66.3724 224.774 66.6029 225.421 67.0767C226.068 67.5103 226.397 68.1684 226.407 69.0508C226.423 70.3344 225.794 71.4249 224.52 72.3225C223.287 73.2196 221.227 73.6851 218.339 73.7192L201.914 73.9127Z" fill="#635EA3"/>
<path d="M248.438 53.2098C244.551 53.034 241.646 52.0191 239.722 50.1653C237.84 48.2732 236.967 45.8244 237.103 42.819C237.253 39.493 238.598 36.8434 241.137 34.8702C243.675 32.897 246.648 31.9875 250.054 32.1416C254.061 32.3228 257.287 33.7939 259.732 36.5547C262.177 39.3155 263.282 43.3006 263.046 48.51C262.838 53.1184 261.809 57.2078 259.961 60.7782C258.115 64.3086 255.675 67.2098 252.641 69.4818C249.609 71.7137 246.168 73.2044 242.32 73.9539C240.739 74.2839 239.515 74.2687 238.648 73.9082C237.821 73.5496 237.307 72.924 237.106 72.0316C236.902 71.2192 237.077 70.4642 237.63 69.7665C238.224 69.0705 239.296 68.4565 240.846 67.9243C243.494 67.0804 245.711 65.9961 247.498 64.6715C249.326 63.3087 250.697 61.8649 251.609 60.3401C252.563 58.7771 253.071 57.3144 253.133 55.9519C253.167 55.1905 252.974 54.5795 252.553 54.1187C252.174 53.6197 251.404 53.344 250.241 53.2914L248.438 53.2098Z" fill="#635EA3"/>
<path d="M300.629 75.9155C298.073 75.6721 296.06 76.0848 294.588 77.1535C293.16 78.1861 292.362 79.5809 292.195 81.3379C292.092 82.4161 292.217 83.4353 292.568 84.3956C292.924 85.316 293.765 86.2221 295.09 87.1139C296.419 87.9657 298.475 88.8062 301.257 89.6352C307.964 91.5633 313.019 93.6967 316.423 96.0356C319.87 98.3383 322.146 100.892 323.249 103.697C324.395 106.466 324.811 109.507 324.495 112.821C323.921 118.851 321.35 123.422 316.783 126.533C312.219 129.604 305.844 130.75 297.658 129.97C294.823 129.7 292.549 129.242 290.838 128.596C289.123 127.989 287.727 127.413 286.651 126.867C285.618 126.285 284.682 125.954 283.844 125.874C282.925 125.787 282.144 125.954 281.499 126.377C280.898 126.763 280.296 127.169 279.691 127.595C279.086 128.021 278.345 128.192 277.466 128.108C276.588 128.024 275.953 127.702 275.564 127.141C275.17 126.62 274.854 125.704 274.617 124.391L272.095 112.788C271.747 110.942 271.722 109.509 272.021 108.49C272.363 107.434 273.092 106.758 274.208 106.462C275.364 106.169 276.343 106.262 277.143 106.741C277.948 107.18 278.654 108.013 279.263 109.24C280.786 112.286 282.46 114.803 284.286 116.79C286.151 118.781 288.14 120.32 290.253 121.408C292.409 122.459 294.646 123.095 296.962 123.316C300.037 123.609 302.39 123.228 304.021 122.175C305.653 121.121 306.564 119.596 306.754 117.599C306.872 116.362 306.655 115.253 306.103 114.274C305.596 113.258 304.459 112.284 302.695 111.35C300.974 110.38 298.371 109.367 294.885 108.31C289.517 106.71 285.303 104.838 282.243 102.694C279.187 100.509 277.068 98.0101 275.885 95.1977C274.742 92.3892 274.342 89.1879 274.684 85.5939C275.042 81.8402 276.352 78.6608 278.615 76.0556C280.877 73.4505 283.818 71.5545 287.437 70.3679C291.059 69.1413 295.147 68.7448 299.699 69.1783C302.614 69.4558 304.907 69.916 306.579 70.5587C308.29 71.2052 309.66 71.8393 310.689 72.4611C311.762 73.0468 312.817 73.389 313.855 73.4879C314.854 73.583 315.695 73.4213 316.38 73.0029C317.108 72.5485 317.794 72.1101 318.439 71.688C319.084 71.2658 319.845 71.0966 320.724 71.1802C321.482 71.2525 322.075 71.5909 322.501 72.1956C322.97 72.7642 323.264 73.6988 323.382 74.9995L324.746 86.0694C324.898 87.8568 324.809 89.2184 324.478 90.1539C324.191 91.0534 323.509 91.6533 322.433 91.9538C321.313 92.2904 320.356 92.1792 319.563 91.6201C318.81 91.0649 318.055 90.1065 317.298 88.745C315.094 84.3848 312.513 81.2377 309.554 79.3039C306.639 77.3339 303.664 76.2045 300.629 75.9155Z" fill="#635EA3"/>
<path d="M373.691 86.6208L371.549 85.5019C370.645 85.0392 370.012 84.5365 369.649 83.994C369.331 83.4179 369.227 82.7729 369.336 82.0592C369.482 81.1075 369.931 80.4255 370.684 80.0131C371.437 79.6007 372.348 79.4764 373.419 79.6401L376.869 80.1678C377.701 80.2951 378.462 80.2289 379.151 79.969C379.886 79.6756 380.765 79.0999 381.789 78.242L391.265 70.013C392.518 68.9872 393.662 68.2695 394.699 67.8599C395.736 67.4503 396.71 67.3152 397.622 67.4547C398.613 67.6063 399.335 68.0616 399.787 68.8206C400.245 69.54 400.383 70.4944 400.201 71.684L392.66 120.992C392.229 123.807 392.414 126.047 393.215 127.711C394.061 129.342 395.436 130.303 397.339 130.594C398.806 130.819 399.988 130.655 400.884 130.102C401.82 129.555 402.589 128.902 403.193 128.142C403.842 127.348 404.455 126.651 405.034 126.049C405.653 125.454 406.398 125.223 407.271 125.357C407.945 125.46 408.444 125.78 408.767 126.316C409.131 126.859 409.225 127.705 409.049 128.855C408.618 131.67 407.368 134.137 405.3 136.255C403.237 138.334 400.589 139.857 397.357 140.823C394.171 141.756 390.655 141.929 386.809 141.34C381.019 140.455 376.734 138.359 373.953 135.052C371.178 131.706 370.227 127.178 371.1 121.468L375.794 90.7773C375.964 89.6671 375.87 88.8208 375.513 88.2386C375.195 87.6625 374.588 87.1232 373.691 86.6208ZM389.627 89.4842L390.727 82.2873L411.485 85.462C412.556 85.6258 413.372 85.9941 413.934 86.5669C414.501 87.1001 414.719 87.8029 414.585 88.6753C414.391 89.9441 413.593 90.9177 412.191 91.596C410.828 92.2804 408.719 92.4042 405.864 91.9676L389.627 89.4842Z" fill="#635EA3"/>
<path d="M451.158 142.008L451.365 140.701L449.899 140.346L455.765 103.444C456.105 101.304 455.798 99.5292 454.844 98.1185C453.93 96.7141 452.483 95.8545 450.502 95.5396C448.838 95.2751 447.431 95.4374 446.282 96.0263C445.132 96.6153 444.469 97.4644 444.293 98.5737L443.358 104.457C442.904 107.309 441.581 109.373 439.388 110.649C437.241 111.892 434.384 112.23 430.819 111.663C427.768 111.178 425.578 110.14 424.247 108.547C422.956 106.961 422.499 104.979 422.877 102.602C423.286 100.027 424.798 97.6682 427.413 95.525C430.035 93.3422 433.677 91.7684 438.339 90.8035C443 89.8387 448.619 89.8789 455.196 90.9243C463.04 92.1711 468.621 94.622 471.939 98.277C475.303 101.899 476.576 106.285 475.757 111.435L471.044 141.087C470.899 141.998 470.981 142.763 471.289 143.38C471.642 143.965 472.235 144.323 473.067 144.455C473.82 144.575 474.426 144.468 474.885 144.135C475.384 143.808 475.84 143.495 476.253 143.195C476.535 142.955 476.83 142.758 477.139 142.604C477.448 142.45 477.78 142.402 478.137 142.458C478.731 142.553 479.132 142.84 479.34 143.32C479.548 143.8 479.599 144.376 479.492 145.05C479.246 146.595 478.433 148.131 477.053 149.658C475.68 151.146 473.809 152.311 471.441 153.153C469.08 153.955 466.275 154.098 463.026 153.582C459.064 152.952 455.971 151.587 453.746 149.487C451.567 147.353 450.704 144.861 451.158 142.008ZM415.883 131.649C416.708 126.459 419.704 122.691 424.87 120.344C430.042 117.957 436.827 117.431 445.226 118.767C447.682 119.157 449.829 119.701 451.668 120.4C453.552 121.065 455.095 121.838 456.295 122.719L453.913 126.971C452.892 126.24 451.869 125.651 450.843 125.204C449.857 124.763 448.731 124.441 447.463 124.24C444.848 123.824 442.669 124.25 440.924 125.516C439.225 126.748 438.162 128.712 437.733 131.406C437.299 134.139 437.619 136.343 438.693 138.016C439.813 139.657 441.463 140.65 443.642 140.996C445.266 141.254 446.891 141.127 448.516 140.613C450.141 140.1 451.507 139.302 452.613 138.218L453.328 142.536C450.835 145.186 447.618 147.03 443.675 148.069C439.779 149.074 435.77 149.249 431.65 148.595C426.262 147.738 422.112 145.738 419.2 142.594C416.334 139.417 415.228 135.769 415.883 131.649Z" fill="#635EA3"/>
<path d="M523.167 73.9806L513.863 147.645C513.682 149.078 513.69 150.13 513.888 150.802C514.131 151.439 514.574 151.94 515.215 152.304L516.871 153.12C517.706 153.549 518.27 154.044 518.563 154.607C518.896 155.175 519.017 155.817 518.926 156.533C518.806 157.488 518.392 158.204 517.685 158.681C516.982 159.118 515.955 159.251 514.602 159.08L489.231 155.875C487.838 155.699 486.856 155.312 486.285 154.715C485.758 154.082 485.555 153.288 485.676 152.333C485.766 151.617 486.023 151.023 486.447 150.55C486.91 150.083 487.58 149.743 488.456 149.531L490.381 149.167C491.053 148.969 491.566 148.589 491.92 148.027C492.319 147.431 492.607 146.436 492.783 145.043L500.609 83.079C500.755 81.9249 500.699 81.0889 500.441 80.5711C500.188 80.0136 499.713 79.6099 499.017 79.3603L496.846 78.7828C496.08 78.4435 495.546 78.0323 495.243 77.5493C494.98 77.0713 494.891 76.4941 494.976 75.8175C495.082 74.9818 495.384 74.3527 495.882 73.9305C496.42 73.5132 497.336 73.1437 498.63 72.822L511.329 69.7561C513.29 69.276 514.825 68.9645 515.935 68.8217C517.084 68.6838 518.057 68.6652 518.853 68.7657C520.485 68.9718 521.643 69.5629 522.328 70.539C523.059 71.4803 523.338 72.6275 523.167 73.9806Z" fill="#635EA3"/>
<path d="M530.471 161.712C529.108 161.677 528.132 161.391 527.544 160.855C526.957 160.278 526.675 159.509 526.7 158.546C526.718 157.824 526.914 157.207 527.289 156.695C527.703 156.184 528.335 155.779 529.185 155.479L531.065 154.925C531.714 154.661 532.186 154.232 532.482 153.637C532.82 153.004 533.006 151.985 533.042 150.582L534.629 88.1453C534.659 86.9824 534.519 86.1563 534.211 85.6669C533.903 85.1374 533.39 84.7833 532.673 84.6046L530.455 84.2472C529.659 83.9862 529.086 83.6306 528.736 83.1803C528.427 82.7311 528.281 82.1656 528.298 81.4839C528.319 80.6417 528.557 79.9857 529.01 79.5157C529.504 79.0467 530.378 78.5874 531.633 78.1379L543.962 73.8167C545.783 73.1809 547.239 72.7364 548.329 72.4832C549.46 72.1909 550.547 72.0581 551.59 72.0846C553.113 72.1233 554.265 72.594 555.045 73.4966C555.825 74.3591 556.198 75.472 556.164 76.8355L554.276 151.061C554.24 152.505 554.354 153.551 554.618 154.2C554.923 154.81 555.413 155.264 556.088 155.562L557.755 156.266C559.022 156.94 559.639 157.919 559.607 159.202C559.552 161.368 558.181 162.416 555.494 162.348L530.471 161.712ZM548.401 135.925L572.527 117.398C573.918 116.35 574.567 115.303 574.473 114.257C574.38 113.172 573.599 112.329 572.129 111.73L570.28 111.081C569.525 110.781 568.993 110.406 568.684 109.957C568.414 109.509 568.288 108.924 568.307 108.202C568.331 107.24 568.691 106.506 569.386 106.002C570.082 105.458 571.011 105.201 572.174 105.231L594.43 105.797C595.633 105.827 596.569 106.112 597.237 106.65C597.906 107.189 598.228 107.919 598.205 108.842C598.182 109.724 597.883 110.459 597.306 111.046C596.729 111.633 595.533 112.144 593.716 112.58C591.617 113.048 589.694 113.742 587.945 114.66C586.197 115.539 584.014 116.968 581.396 118.948L550.719 141.822L548.401 135.925ZM571.846 120.511L592.634 152.759C593.408 153.902 594.088 154.762 594.675 155.339C595.304 155.876 596.133 156.399 597.163 156.907C598.032 157.451 598.7 158.029 599.166 158.643C599.632 159.257 599.855 159.925 599.837 160.646C599.816 161.488 599.457 162.162 598.762 162.666C598.067 163.169 597.159 163.407 596.036 163.379L569.63 162.707C568.587 162.681 567.751 162.399 567.123 161.861C566.536 161.284 566.254 160.535 566.277 159.613C566.294 158.971 566.447 158.453 566.738 158.059C567.029 157.665 567.52 157.297 568.211 156.953L569.73 156.39C570.62 156.092 571.094 155.622 571.15 154.981C571.248 154.302 570.814 153.207 569.849 151.698L557.573 132.667L571.846 120.511Z" fill="#635EA3"/>
<path d="M610.458 70.0056C614.831 69.4189 618.188 70.0007 620.527 71.751C622.866 73.5013 624.263 76.0661 624.716 79.4455C624.855 80.4792 624.91 81.6455 624.882 82.9444C624.888 84.1982 624.809 85.5647 624.643 87.044L622.271 124.577C622.063 126.345 621.675 127.672 621.105 128.558C620.576 129.438 619.715 129.959 618.522 130.119C617.33 130.279 616.342 130.006 615.559 129.302C614.817 128.592 614.112 127.412 613.445 125.761L601.206 90.1881C600.656 88.8048 600.199 87.5103 599.835 86.3045C599.505 85.0536 599.271 83.9113 599.132 82.8776C598.679 79.4982 599.35 76.6561 601.145 74.3511C602.981 72.0408 606.085 70.5923 610.458 70.0056ZM622.583 160.839C620.277 161.149 618.112 160.852 616.089 159.95C614.06 159.008 612.361 157.657 610.992 155.898C609.657 154.094 608.838 152.059 608.534 149.793C608.219 147.447 608.473 145.268 609.296 143.255C610.153 141.198 611.439 139.467 613.153 138.063C614.867 136.66 616.877 135.803 619.183 135.494C621.528 135.179 623.713 135.473 625.736 136.375C627.799 137.272 629.495 138.603 630.825 140.367C632.189 142.087 633.028 144.119 633.343 146.465C633.647 148.731 633.373 150.913 632.521 153.01C631.703 155.062 630.42 156.813 628.672 158.262C626.958 159.665 624.928 160.525 622.583 160.839Z" fill="#635EA3"/>
</svg>
