<svg width="37" height="37" viewBox="0 0 37 37" fill="none" xmlns="http://www.w3.org/2000/svg">
<path opacity="0.25" fill-rule="evenodd" clip-rule="evenodd" d="M18.5 36C28.165 36 36 28.165 36 18.5C36 8.83502 28.165 1 18.5 1C8.83502 1 1 8.83502 1 18.5C1 28.165 8.83502 36 18.5 36Z" stroke="#635EA3" stroke-width="1.5"/>
<path d="M14.4835 14.9671C15.3029 14.9671 15.9671 14.3029 15.9671 13.4835C15.9671 12.6642 15.3029 12 14.4835 12C13.6642 12 13 12.6642 13 13.4835C13 14.3029 13.6642 14.9671 14.4835 14.9671Z" fill="#635EA3"/>
<path d="M15.7198 15.958H13.2473C13.1108 15.958 13 16.0688 13 16.2053V23.623C13 23.7595 13.1108 23.8703 13.2473 23.8703H15.7198C15.8563 23.8703 15.9671 23.7595 15.9671 23.623V16.2053C15.9671 16.0688 15.8563 15.958 15.7198 15.958Z" fill="#635EA3"/>
<path d="M23.088 15.5464C22.0313 15.1844 20.7094 15.5024 19.9167 16.0726C19.8895 15.9662 19.7926 15.8871 19.6774 15.8871H17.2048C17.0683 15.8871 16.9575 15.9979 16.9575 16.1344V23.5521C16.9575 23.6886 17.0683 23.7994 17.2048 23.7994H19.6774C19.8138 23.7994 19.9246 23.6886 19.9246 23.5521V18.2212C20.3242 17.8771 20.839 17.7673 21.2603 17.9463C21.6688 18.1189 21.9027 18.5402 21.9027 19.1015V23.5521C21.9027 23.6886 22.0135 23.7994 22.1499 23.7994H24.6225C24.759 23.7994 24.8698 23.6886 24.8698 23.5521V18.6035C24.8416 16.5715 23.8857 15.8194 23.088 15.5464Z" fill="#635EA3"/>
</svg>
