<svg width="15" height="17" viewBox="0 0 15 17" fill="none" xmlns="http://www.w3.org/2000/svg">
<path d="M10.658 11.6787L8.33251 14.8043C7.55736 15.8462 6.55519 16.4574 5.32602 16.6378C4.09684 16.8183 2.96131 16.5209 1.91943 15.7457C0.877542 14.9706 0.266383 13.9684 0.0859497 12.7392C-0.0944839 11.5101 0.202878 10.3745 0.978034 9.33265L3.3035 6.207L4.40668 7.02775L2.08121 10.1534C1.53404 10.8889 1.32321 11.6841 1.44873 12.5392C1.57425 13.3943 2.00473 14.0954 2.74018 14.6426C3.47563 15.1897 4.27089 15.4006 5.12597 15.275C5.98105 15.1495 6.68217 14.719 7.22934 13.9836L9.55481 10.8579L10.658 11.6787ZM5.82242 11.6515L4.71925 10.8307L8.95981 5.13102L10.063 5.95177L5.82242 11.6515ZM11.4787 10.5755L10.3756 9.75476L12.701 6.62911C13.2482 5.89366 13.459 5.0984 13.3335 4.24332C13.208 3.38824 12.7775 2.68712 12.0421 2.13995C11.3066 1.59278 10.5113 1.38195 9.65627 1.50747C8.80119 1.63299 8.10007 2.06348 7.5529 2.79892L5.22743 5.92458L4.12426 5.10382L6.44973 1.97817C7.22488 0.936286 8.22705 0.325126 9.45622 0.144693C10.6854 -0.035741 11.8209 0.261621 12.8628 1.03678C13.9047 1.81193 14.5159 2.8141 14.6963 4.04327C14.8767 5.27245 14.5794 6.40798 13.8042 7.44986L11.4787 10.5755Z" fill="#373737"/>
</svg>
