<svg width="24" height="24" viewBox="0 0 24 24" fill="none" xmlns="http://www.w3.org/2000/svg">
<circle cx="12" cy="12" r="12" fill="#635EA3"/>
<path d="M9.04818 7.91664C9.04802 8.22606 8.92496 8.52274 8.70606 8.74143C8.48715 8.96011 8.19035 9.08288 7.88093 9.08272C7.57151 9.08257 7.27482 8.9595 7.05614 8.7406C6.83746 8.5217 6.71469 8.22489 6.71484 7.91547C6.715 7.60605 6.83806 7.30937 7.05697 7.09069C7.27587 6.872 7.57267 6.74924 7.88209 6.74939C8.19151 6.74954 8.4882 6.87261 8.70688 7.09151C8.92556 7.31041 9.04833 7.60722 9.04818 7.91664V7.91664ZM9.08318 9.94664H6.74984V17.25H9.08318V9.94664ZM12.7698 9.94664H10.4482V17.25H12.7465V13.4175C12.7465 11.2825 15.529 11.0841 15.529 13.4175V17.25H17.8332V12.6241C17.8332 9.02497 13.7148 9.15914 12.7465 10.9266L12.7698 9.94664V9.94664Z" fill="white"/>
</svg>
