<svg width="33" height="44" viewBox="0 0 33 44" fill="none" xmlns="http://www.w3.org/2000/svg">
<path d="M16.5 35.72C20.6167 32.36 23.724 29.13 25.8219 26.0301C27.9198 22.93 28.9688 20.04 28.9688 17.36C28.9688 15 28.5432 13 27.6922 11.36C26.8411 9.72005 25.7922 8.38005 24.5453 7.34005C23.2984 6.30005 21.9427 5.55005 20.4781 5.09005C19.0135 4.63005 17.6875 4.40005 16.5 4.40005C15.3125 4.40005 13.9865 4.63005 12.5219 5.09005C11.0573 5.55005 9.70156 6.30005 8.45469 7.34005C7.20781 8.38005 6.15885 9.72005 5.30781 11.36C4.45677 13 4.03125 15 4.03125 17.36C4.03125 20.04 5.08021 22.93 7.17812 26.0301C9.27604 29.13 12.3833 32.36 16.5 35.72ZM16.5 40.2801C11.0771 36.1601 7.04948 32.22 4.41719 28.46C1.7849 24.7 0.46875 21 0.46875 17.36C0.46875 14.64 0.953646 12.25 1.92344 10.19C2.89323 8.13005 4.15 6.40005 5.69375 5.00005C7.2375 3.60005 8.95938 2.55005 10.8594 1.85005C12.7594 1.15005 14.6396 0.800049 16.5 0.800049C18.3604 0.800049 20.2406 1.15005 22.1406 1.85005C24.0406 2.55005 25.7625 3.60005 27.3062 5.00005C28.85 6.40005 30.1068 8.13005 31.0766 10.19C32.0464 12.25 32.5312 14.64 32.5312 17.36C32.5312 21 31.2151 24.7 28.5828 28.46C25.9505 32.22 21.9229 36.1601 16.5 40.2801ZM16.5 21.2001C17.6479 21.2001 18.6276 20.7901 19.4391 19.9701C20.2505 19.15 20.6562 18.16 20.6562 17C20.6562 15.84 20.2505 14.85 19.4391 14.03C18.6276 13.21 17.6479 12.8 16.5 12.8C15.3521 12.8 14.3724 13.21 13.5609 14.03C12.7495 14.85 12.3438 15.84 12.3438 17C12.3438 18.16 12.7495 19.15 13.5609 19.9701C14.3724 20.7901 15.3521 21.2001 16.5 21.2001ZM0.46875 48.8V45.2001H32.5312V48.8H0.46875Z" fill="#373737"/>
</svg>
