<svg width="17" height="15" viewBox="0 0 17 15" fill="none" xmlns="http://www.w3.org/2000/svg">
<path d="M5.3125 12.8125H3.1875C2.6008 12.8125 2.125 12.3367 2.125 11.75V3.25C2.125 2.6633 2.6008 2.1875 3.1875 2.1875H5.3125C5.8992 2.1875 6.375 1.7117 6.375 1.125C6.375 0.538301 5.9002 0.0625 5.3125 0.0625H3.1875C1.42707 0.0625 0 1.48957 0 3.25V11.75C0 13.5104 1.42707 14.9375 3.1875 14.9375H5.3125C5.8992 14.9375 6.375 14.4617 6.375 13.875C6.375 13.2883 5.9002 12.8125 5.3125 12.8125ZM16.6879 6.74961L12.4379 2.49961C12.0225 2.08424 11.3502 2.0849 10.9354 2.49961C10.5204 2.91465 10.5204 3.58701 10.9354 4.00205L13.3742 6.4375H6.375C5.7873 6.4375 5.3125 6.9123 5.3125 7.5C5.3125 8.0877 5.78764 8.5625 6.375 8.5625H13.3742L10.9378 10.9989C10.5227 11.414 10.5227 12.0863 10.9378 12.5014C11.3528 12.9164 12.0252 12.9164 12.4402 12.5014L16.6902 8.25139C17.1029 7.83535 17.1029 7.16465 16.6879 6.74961Z" fill="#FFBA41"/>
</svg>
