<svg width="15" height="15" viewBox="0 0 15 15" fill="none" xmlns="http://www.w3.org/2000/svg">
<path d="M7.5 6.97705C6.5375 6.97705 5.75 6.65622 5.1375 6.01455C4.525 5.37288 4.21875 4.54788 4.21875 3.53955C4.21875 2.53122 4.525 1.70622 5.1375 1.06455C5.75 0.422884 6.5375 0.102051 7.5 0.102051C8.4625 0.102051 9.25 0.422884 9.8625 1.06455C10.475 1.70622 10.7812 2.53122 10.7812 3.53955C10.7812 4.54788 10.475 5.37288 9.8625 6.01455C9.25 6.65622 8.4625 6.97705 7.5 6.97705ZM0.5 14.3333V12.1791C0.5 11.5986 0.638542 11.1021 0.915625 10.6896C1.19271 10.2771 1.55 9.96386 1.9875 9.74997C2.96458 9.29163 3.90156 8.94788 4.79844 8.71872C5.69531 8.48955 6.59583 8.37497 7.5 8.37497C8.40417 8.37497 9.30104 8.49337 10.1906 8.73018C11.0802 8.96698 12.0135 9.30691 12.9906 9.74997C13.4427 9.96386 13.8073 10.2771 14.0844 10.6896C14.3615 11.1021 14.5 11.5986 14.5 12.1791V14.3333H0.5ZM1.8125 12.9583H13.1875V12.1791C13.1875 11.9347 13.1182 11.7017 12.9797 11.4802C12.8411 11.2586 12.6698 11.0944 12.4656 10.9875C11.5323 10.5139 10.6792 10.1892 9.90625 10.0135C9.13333 9.83781 8.33125 9.74997 7.5 9.74997C6.66875 9.74997 5.85938 9.83781 5.07188 10.0135C4.28438 10.1892 3.43125 10.5139 2.5125 10.9875C2.30833 11.0944 2.14062 11.2586 2.00937 11.4802C1.87812 11.7017 1.8125 11.9347 1.8125 12.1791V12.9583ZM7.5 5.60205C8.06875 5.60205 8.53906 5.40726 8.91094 5.01768C9.28281 4.62809 9.46875 4.13538 9.46875 3.53955C9.46875 2.94372 9.28281 2.45101 8.91094 2.06143C8.53906 1.67184 8.06875 1.47705 7.5 1.47705C6.93125 1.47705 6.46094 1.67184 6.08906 2.06143C5.71719 2.45101 5.53125 2.94372 5.53125 3.53955C5.53125 4.13538 5.71719 4.62809 6.08906 5.01768C6.46094 5.40726 6.93125 5.60205 7.5 5.60205Z" fill="#373737"/>
</svg>
