<svg width="46" height="36" viewBox="0 0 46 36" fill="none" xmlns="http://www.w3.org/2000/svg">
<path d="M3.93164 36C3.03164 36 2.24414 35.6531 1.56914 34.9594C0.89414 34.2656 0.556641 33.4875 0.556641 32.625V3.375C0.556641 2.5125 0.89414 1.73438 1.56914 1.04063C2.24414 0.346875 3.03164 0 3.93164 0H19.6816L23.0566 3.375H42.1816C43.0441 3.375 43.8223 3.72188 44.516 4.41563C45.2098 5.10938 45.5566 5.8875 45.5566 6.75V32.625C45.5566 33.4875 45.2098 34.2656 44.516 34.9594C43.8223 35.6531 43.0441 36 42.1816 36H3.93164ZM3.93164 3.375V32.625H42.1816V6.75H21.6504L18.2754 3.375H3.93164ZM3.93164 3.375V6.75V32.625V3.375Z" fill="#373737"/>
</svg>
