<svg width="46" height="45" viewBox="0 0 46 45" fill="none" xmlns="http://www.w3.org/2000/svg">
<path d="M11.2125 44.0833C9.71111 44.0833 8.42535 43.5483 7.35521 42.4781C6.28507 41.408 5.75 40.1222 5.75 38.6208C5.75 37.0875 6.28507 35.7938 7.35521 34.7396C8.42535 33.6854 9.71111 33.1583 11.2125 33.1583C11.6597 33.1583 12.051 33.1983 12.3865 33.2781C12.7219 33.358 13.0653 33.4778 13.4167 33.6375L17.4896 28.5583C16.8826 27.8236 16.4194 26.9851 16.1 26.0427C15.7806 25.1003 15.7007 24.1181 15.8604 23.0958L10.0625 21.1312C9.58333 21.9299 8.95243 22.5528 8.16979 23C7.38715 23.4472 6.48472 23.6708 5.4625 23.6708C3.96111 23.6708 2.67535 23.1358 1.60521 22.0656C0.535069 20.9955 0 19.7097 0 18.2083C0 16.675 0.535069 15.3812 1.60521 14.3271C2.67535 13.2729 3.96111 12.7458 5.4625 12.7458C6.99583 12.7458 8.28958 13.2729 9.34375 14.3271C10.3979 15.3812 10.925 16.675 10.925 18.2083C10.925 18.2083 10.925 18.2403 10.925 18.3042C10.925 18.3681 10.925 18.4 10.925 18.4L16.7708 20.4125C17.3458 19.3903 18.0406 18.6076 18.8552 18.0646C19.6698 17.5215 20.5722 17.1382 21.5625 16.9146V10.7333C20.3167 10.3819 19.3344 9.69514 18.6156 8.67292C17.8969 7.65069 17.5375 6.58055 17.5375 5.4625C17.5375 3.92917 18.0726 2.63542 19.1427 1.58125C20.2128 0.527083 21.4986 0 23 0C24.5333 0 25.8271 0.527083 26.8812 1.58125C27.9354 2.63542 28.4625 3.92917 28.4625 5.4625C28.4625 6.58055 28.0951 7.65069 27.3604 8.67292C26.6257 9.69514 25.6514 10.3819 24.4375 10.7333V16.9146C25.4278 17.1382 26.3382 17.5215 27.1687 18.0646C27.9993 18.6076 28.7021 19.3903 29.2771 20.4125L35.075 18.4C35.075 18.4 35.075 18.3681 35.075 18.3042C35.075 18.2403 35.075 18.2083 35.075 18.2083C35.075 16.675 35.6101 15.3812 36.6802 14.3271C37.7503 13.2729 39.0361 12.7458 40.5375 12.7458C42.0708 12.7458 43.3646 13.2729 44.4187 14.3271C45.4729 15.3812 46 16.675 46 18.2083C46 19.7097 45.4729 20.9955 44.4187 22.0656C43.3646 23.1358 42.0708 23.6708 40.5375 23.6708C39.5153 23.6708 38.6049 23.4472 37.8063 23C37.0076 22.5528 36.3847 21.9299 35.9375 21.1312L30.1396 23.0958C30.2993 24.1181 30.2274 25.1003 29.924 26.0427C29.6205 26.9851 29.1493 27.8236 28.5104 28.5583L32.5833 33.6375C32.9347 33.4778 33.2781 33.358 33.6135 33.2781C33.949 33.1983 34.3403 33.1583 34.7875 33.1583C36.3208 33.1583 37.6146 33.6854 38.6687 34.7396C39.7229 35.7938 40.25 37.0875 40.25 38.6208C40.25 40.1222 39.7229 41.408 38.6687 42.4781C37.6146 43.5483 36.3208 44.0833 34.7875 44.0833C33.2861 44.0833 32.0003 43.5483 30.9302 42.4781C29.8601 41.408 29.325 40.1222 29.325 38.6208C29.325 37.9819 29.4128 37.4069 29.5885 36.8958C29.7642 36.3847 30.0118 35.8896 30.3312 35.4104L26.2583 30.3312C25.2361 30.8743 24.142 31.1458 22.976 31.1458C21.8101 31.1458 20.716 30.8743 19.6937 30.3312L15.6687 35.4583C15.9882 35.9375 16.2358 36.4247 16.4115 36.9198C16.5872 37.4149 16.675 37.9819 16.675 38.6208C16.675 40.1222 16.1479 41.408 15.0938 42.4781C14.0396 43.5483 12.7458 44.0833 11.2125 44.0833ZM5.4625 20.7958C6.19722 20.7958 6.81215 20.5483 7.30729 20.0531C7.80243 19.558 8.05 18.9431 8.05 18.2083C8.05 17.4736 7.80243 16.8587 7.30729 16.3635C6.81215 15.8684 6.19722 15.6208 5.4625 15.6208C4.72778 15.6208 4.11285 15.8684 3.61771 16.3635C3.12257 16.8587 2.875 17.4736 2.875 18.2083C2.875 18.9431 3.12257 19.558 3.61771 20.0531C4.11285 20.5483 4.72778 20.7958 5.4625 20.7958ZM11.2125 41.2083C11.9472 41.2083 12.5622 40.9608 13.0573 40.4656C13.5524 39.9705 13.8 39.3556 13.8 38.6208C13.8 37.8861 13.5524 37.2712 13.0573 36.776C12.5622 36.2809 11.9472 36.0333 11.2125 36.0333C10.4778 36.0333 9.86285 36.2809 9.36771 36.776C8.87257 37.2712 8.625 37.8861 8.625 38.6208C8.625 39.3556 8.87257 39.9705 9.36771 40.4656C9.86285 40.9608 10.4778 41.2083 11.2125 41.2083ZM23 8.05C23.7347 8.05 24.3497 7.80243 24.8448 7.30729C25.3399 6.81215 25.5875 6.19722 25.5875 5.4625C25.5875 4.72778 25.3399 4.11285 24.8448 3.61771C24.3497 3.12257 23.7347 2.875 23 2.875C22.2653 2.875 21.6503 3.12257 21.1552 3.61771C20.6601 4.11285 20.4125 4.72778 20.4125 5.4625C20.4125 6.19722 20.6601 6.81215 21.1552 7.30729C21.6503 7.80243 22.2653 8.05 23 8.05ZM23.0479 28.2708C24.2299 28.2708 25.2361 27.8476 26.0667 27.001C26.8972 26.1545 27.3125 25.1243 27.3125 23.9104C27.3125 22.7285 26.8972 21.7222 26.0667 20.8917C25.2361 20.0611 24.2139 19.6458 23 19.6458C21.8181 19.6458 20.8038 20.0611 19.9573 20.8917C19.1108 21.7222 18.6875 22.7444 18.6875 23.9583C18.6875 25.1403 19.1108 26.1545 19.9573 27.001C20.8038 27.8476 21.834 28.2708 23.0479 28.2708ZM34.7875 41.2083C35.5222 41.2083 36.1371 40.9608 36.6323 40.4656C37.1274 39.9705 37.375 39.3556 37.375 38.6208C37.375 37.8861 37.1274 37.2712 36.6323 36.776C36.1371 36.2809 35.5222 36.0333 34.7875 36.0333C34.0528 36.0333 33.4378 36.2809 32.9427 36.776C32.4476 37.2712 32.2 37.8861 32.2 38.6208C32.2 39.3556 32.4476 39.9705 32.9427 40.4656C33.4378 40.9608 34.0528 41.2083 34.7875 41.2083ZM40.5375 20.7958C41.2722 20.7958 41.8871 20.5483 42.3823 20.0531C42.8774 19.558 43.125 18.9431 43.125 18.2083C43.125 17.4736 42.8774 16.8587 42.3823 16.3635C41.8871 15.8684 41.2722 15.6208 40.5375 15.6208C39.8028 15.6208 39.1878 15.8684 38.6927 16.3635C38.1976 16.8587 37.95 17.4736 37.95 18.2083C37.95 18.9431 38.1976 19.558 38.6927 20.0531C39.1878 20.5483 39.8028 20.7958 40.5375 20.7958Z" fill="#373737"/>
</svg>
