<svg width="46" height="46" viewBox="0 0 46 46" fill="none" xmlns="http://www.w3.org/2000/svg">
<path d="M14 36.5L23 29.6375L32 36.5L28.4 25.4187L37.4 19.0625H26.4312L23 7.64375L19.5125 19.0625H8.54375L17.5437 25.4187L14 36.5ZM23 45.5C19.8125 45.5 16.85 44.9281 14.1125 43.7844C11.375 42.6406 8.99375 41.0563 6.96875 39.0312C4.94375 37.0062 3.35938 34.625 2.21563 31.8875C1.07188 29.15 0.5 26.1875 0.5 23C0.5 19.85 1.07188 16.9062 2.21563 14.1687C3.35938 11.4312 4.94375 9.05 6.96875 7.025C8.99375 5 11.375 3.40625 14.1125 2.24375C16.85 1.08125 19.8125 0.5 23 0.5C26.15 0.5 29.0938 1.08125 31.8313 2.24375C34.5688 3.40625 36.95 5 38.975 7.025C41 9.05 42.5938 11.4312 43.7563 14.1687C44.9188 16.9062 45.5 19.85 45.5 23C45.5 26.1875 44.9188 29.15 43.7563 31.8875C42.5938 34.625 41 37.0062 38.975 39.0312C36.95 41.0563 34.5688 42.6406 31.8313 43.7844C29.0938 44.9281 26.15 45.5 23 45.5ZM23 42.125C28.4375 42.125 32.9844 40.2969 36.6406 36.6406C40.2969 32.9844 42.125 28.4375 42.125 23C42.125 17.5625 40.2969 13.0156 36.6406 9.35938C32.9844 5.70312 28.4375 3.875 23 3.875C17.5625 3.875 13.0156 5.70312 9.35938 9.35938C5.70312 13.0156 3.875 17.5625 3.875 23C3.875 28.4375 5.70312 32.9844 9.35938 36.6406C13.0156 40.2969 17.5625 42.125 23 42.125Z" fill="#373737"/>
</svg>
