<svg width="30" height="38" viewBox="0 0 30 38" fill="none" xmlns="http://www.w3.org/2000/svg">
<path d="M7.45312 29.925H22.5469V27.075H7.45312V29.925ZM7.45312 21.85H22.5469V19H7.45312V21.85ZM2.8125 38C2.0625 38 1.40625 37.715 0.84375 37.145C0.28125 36.575 0 35.91 0 35.15V2.85C0 2.09 0.28125 1.425 0.84375 0.855C1.40625 0.285 2.0625 0 2.8125 0H19.7344L30 10.4025V35.15C30 35.91 29.7187 36.575 29.1562 37.145C28.5937 37.715 27.9375 38 27.1875 38H2.8125ZM18.3281 11.685V2.85H2.8125V35.15H27.1875V11.685H18.3281ZM2.8125 2.85V11.685V2.85V11.685V35.15V2.85Z" fill="#373737"/>
</svg>
