<svg width="18" height="18" viewBox="0 0 18 18" fill="none" xmlns="http://www.w3.org/2000/svg">
<path d="M9.75002 17.3333C9.58335 17.3333 9.42363 17.309 9.27085 17.2604C9.11808 17.2118 8.97224 17.118 8.83335 16.9792L1.02085 9.16665C0.881965 9.02777 0.788215 8.88193 0.739604 8.72916C0.690993 8.57638 0.666687 8.41666 0.666687 8.24999V1.91666C0.666687 1.55555 0.784743 1.25693 1.02085 1.02082C1.25696 0.784712 1.55558 0.666656 1.91669 0.666656H8.25002C8.41669 0.666656 8.58335 0.690962 8.75002 0.739573C8.91669 0.788184 9.06947 0.881934 9.20835 1.02082L16.9792 8.79166C17.257 9.06943 17.3959 9.37846 17.3959 9.71874C17.3959 10.059 17.257 10.368 16.9792 10.6458L10.6459 16.9792C10.5347 17.0903 10.3993 17.1771 10.2396 17.2396C10.0799 17.3021 9.91669 17.3333 9.75002 17.3333ZM9.79169 16.125L16.125 9.79165L8.25002 1.91666H1.91669V8.24999L9.79169 16.125ZM4.10419 5.16666C4.39585 5.16666 4.64933 5.05902 4.8646 4.84374C5.07988 4.62846 5.18752 4.37499 5.18752 4.08332C5.18752 3.79166 5.07988 3.53818 4.8646 3.32291C4.64933 3.10763 4.39585 2.99999 4.10419 2.99999C3.81252 2.99999 3.55905 3.10763 3.34377 3.32291C3.12849 3.53818 3.02085 3.79166 3.02085 4.08332C3.02085 4.37499 3.12849 4.62846 3.34377 4.84374C3.55905 5.05902 3.81252 5.16666 4.10419 5.16666Z" fill="#635EA3"/>
</svg>
