<svg width="60" height="60" viewBox="0 0 60 60" fill="none" xmlns="http://www.w3.org/2000/svg">
<path d="M29.9875 0.0125122C28.5375 0.0125122 27.0925 0.582512 25.95 1.72501L1.7125 25.9625C-0.569999 28.245 -0.569999 31.7575 1.7125 34.04L3.8175 36.1475L23.8425 15.7725C25.4519 14.1703 27.6303 13.2708 29.9013 13.2708C32.1722 13.2708 34.3506 14.1703 35.96 15.7725L56.1575 35.9725L58.2625 33.865C60.5475 31.7575 60.55 28.245 58.4425 25.9625L34.03 1.72501C33.5029 1.1864 32.8742 0.75771 32.1803 0.463755C31.4864 0.1698 30.7411 0.0164257 29.9875 0.0125122ZM29.9875 16.17C28.5375 16.17 27.0925 16.74 25.95 17.88L1.7125 42.12C-0.569999 44.4025 -0.569999 47.915 1.7125 50.195L9.79 58.275C12.075 60.5575 15.585 60.5575 17.87 58.275L29.9875 46.16L42.1075 58.275C44.39 60.5575 47.9025 60.5575 50.185 58.275L58.2625 50.1975C60.5475 48.09 60.55 44.4025 58.4425 42.12L34.03 17.88C33.5027 17.3419 32.8739 16.9136 32.18 16.6201C31.4861 16.3266 30.7409 16.1736 29.9875 16.17Z" fill="#FF3F56"/>
</svg>
