<svg width="47" height="47" viewBox="0 0 47 47" fill="none" xmlns="http://www.w3.org/2000/svg">
<path d="M20.9737 27.8475L34.1337 14.6875L31.49 12.0437L20.9737 22.56L15.4512 17.0375L12.8075 19.6812L20.9737 27.8475ZM14.1 35.25H32.9V31.725H14.1V35.25ZM23.5 47C20.1708 47 17.0767 46.4027 14.2175 45.2081C11.3583 44.0135 8.87125 42.3587 6.75625 40.2437C4.64125 38.1287 2.98646 35.6417 1.79188 32.7825C0.597292 29.9233 0 26.8292 0 23.5C0 20.21 0.597292 17.1354 1.79188 14.2762C2.98646 11.4171 4.64125 8.93 6.75625 6.815C8.87125 4.7 11.3583 3.03542 14.2175 1.82125C17.0767 0.607084 20.1708 0 23.5 0C26.79 0 29.8646 0.607084 32.7237 1.82125C35.5829 3.03542 38.07 4.7 40.185 6.815C42.3 8.93 43.9646 11.4171 45.1787 14.2762C46.3929 17.1354 47 20.21 47 23.5C47 26.8292 46.3929 29.9233 45.1787 32.7825C43.9646 35.6417 42.3 38.1287 40.185 40.2437C38.07 42.3587 35.5829 44.0135 32.7237 45.2081C29.8646 46.4027 26.79 47 23.5 47ZM23.5 43.475C29.1792 43.475 33.9281 41.5656 37.7469 37.7469C41.5656 33.9281 43.475 29.1792 43.475 23.5C43.475 17.8208 41.5656 13.0719 37.7469 9.25312C33.9281 5.43437 29.1792 3.525 23.5 3.525C17.8208 3.525 13.0719 5.43437 9.25312 9.25312C5.43437 13.0719 3.525 17.8208 3.525 23.5C3.525 29.1792 5.43437 33.9281 9.25312 37.7469C13.0719 41.5656 17.8208 43.475 23.5 43.475Z" fill="#373737"/>
</svg>
