<svg width="24" height="24" viewBox="0 0 24 24" fill="none" xmlns="http://www.w3.org/2000/svg">
<circle cx="12" cy="12" r="12" fill="#635EA3"/>
<path d="M17.9282 8.29935C17.4828 8.49634 17.0106 8.62571 16.527 8.68319C17.0367 8.37835 17.4182 7.89861 17.6003 7.33335C17.122 7.61802 16.5976 7.81752 16.051 7.92543C15.6839 7.53261 15.1972 7.27208 14.6667 7.18436C14.1362 7.09664 13.5916 7.18664 13.1176 7.44037C12.6435 7.69409 12.2666 8.09733 12.0453 8.5874C11.8241 9.07746 11.7709 9.62689 11.8942 10.1503C10.9241 10.1017 9.9752 9.84957 9.10892 9.41041C8.24264 8.97124 7.47841 8.3548 6.86584 7.6011C6.64901 7.97353 6.53506 8.3969 6.53567 8.82785C6.53567 9.67368 6.96617 10.4209 7.62067 10.8584C7.23334 10.8462 6.85454 10.7416 6.51584 10.5534V10.5837C6.51595 11.147 6.71088 11.693 7.06758 12.129C7.42428 12.565 7.92078 12.8642 8.47292 12.9759C8.11336 13.0734 7.73635 13.0877 7.37042 13.0179C7.52609 13.5028 7.82951 13.9269 8.23818 14.2307C8.64686 14.5346 9.14033 14.7031 9.6495 14.7125C9.14345 15.11 8.56402 15.4038 7.94435 15.5771C7.32468 15.7505 6.67691 15.8 6.03809 15.7229C7.15324 16.44 8.45139 16.8208 9.77725 16.8195C14.2648 16.8195 16.7189 13.1019 16.7189 9.87785C16.7189 9.77285 16.716 9.66669 16.7113 9.56285C17.189 9.21762 17.6013 8.78995 17.9288 8.29993L17.9282 8.29935Z" fill="white"/>
</svg>
