<svg width="534" height="528" viewBox="0 0 534 528" fill="none" xmlns="http://www.w3.org/2000/svg">
<path opacity="0.28" d="M137.75 528H129.057C102.701 514.684 78.7341 497.309 57.6272 476.181C33.3543 451.884 14.0249 423.806 0.138794 392.614V382.967C26.2446 446.796 75.6513 498.699 137.75 528ZM57.6272 81.8933C83.2054 56.2895 112.977 36.1902 146.165 22.1511C180.491 7.61175 216.984 0.244751 254.56 0.244751C292.163 0.244751 328.628 7.61175 362.982 22.1511C396.142 36.1902 425.942 56.2895 451.52 81.8933C477.098 107.497 497.177 137.299 511.202 170.52C525.727 204.881 533.087 241.41 533.087 279.051C533.087 316.692 525.727 353.194 511.202 387.554C497.177 420.748 477.098 450.577 451.52 476.181C430.413 497.309 406.446 514.684 380.09 528H371.397C464.629 483.993 529.338 388.944 529.338 279.051C529.338 127.374 406.057 3.96995 254.532 3.96995C139.722 3.96995 41.1583 74.8044 0.111023 175.107V165.46C14.0248 134.296 33.3543 106.191 57.6272 81.8933Z" fill="url(#paint0_linear_15_2042)"/>
<defs>
<linearGradient id="paint0_linear_15_2042" x1="58.299" y1="209.818" x2="686.336" y2="426.612" gradientUnits="userSpaceOnUse">
<stop stop-color="#D1D7E0"/>
<stop offset="1" stop-color="#EBEBFF"/>
</linearGradient>
</defs>
</svg>
