<svg width="49" height="42" viewBox="0 0 49 42" fill="none" xmlns="http://www.w3.org/2000/svg">
<path d="M28.2504 41.25C25.3629 41.25 22.6066 40.6594 19.9816 39.4781C17.3566 38.2969 15.0691 36.6375 13.1191 34.5L15.5379 32.0812C17.2254 33.8812 19.1566 35.2969 21.3316 36.3281C23.5066 37.3594 25.8129 37.875 28.2504 37.875C32.9379 37.875 36.9223 36.225 40.2035 32.925C43.4848 29.625 45.1254 25.6313 45.1254 20.9438C45.1254 16.2563 43.4848 12.2813 40.2035 9.01875C36.9223 5.75625 32.9379 4.125 28.2504 4.125C23.4504 4.125 19.4379 5.78438 16.2129 9.10313C12.9879 12.4219 11.3754 16.6687 11.3754 21.8438L16.2691 16.95L18.6879 19.3687L9.74414 28.3125L0.744141 19.3125L3.16289 16.8938L8.00039 21.7312C8.00039 18.7312 8.52539 15.9469 9.57539 13.3781C10.6254 10.8094 12.0598 8.5875 13.8785 6.7125C15.6973 4.8375 17.8441 3.375 20.3191 2.325C22.7941 1.275 25.4379 0.75 28.2504 0.75C31.0629 0.75 33.6973 1.28438 36.1535 2.35313C38.6098 3.42188 40.7473 4.86562 42.566 6.68437C44.3848 8.50312 45.8285 10.6406 46.8973 13.0969C47.966 15.5531 48.5004 18.1875 48.5004 21C48.5004 23.8125 47.966 26.4469 46.8973 28.9031C45.8285 31.3594 44.3848 33.4969 42.566 35.3156C40.7473 37.1344 38.6098 38.5781 36.1535 39.6469C33.6973 40.7156 31.0629 41.25 28.2504 41.25ZM35.0566 30.1688L26.3941 21.6187V9.58125H29.7691V20.2125L37.4754 27.75L35.0566 30.1688Z" fill="#373737"/>
</svg>
