<svg width="46" height="46" viewBox="0 0 46 46" fill="none" xmlns="http://www.w3.org/2000/svg">
<path d="M23 45.5C19.85 45.5 16.9062 44.9094 14.1687 43.7281C11.4312 42.5469 9.05 40.9438 7.025 38.9188C5 36.8938 3.40625 34.5031 2.24375 31.7469C1.08125 28.9906 0.5 26.0375 0.5 22.8875C0.5 19.7375 1.08125 16.8031 2.24375 14.0844C3.40625 11.3656 5 8.99375 7.025 6.96875C9.05 4.94375 11.4312 3.35938 14.1687 2.21563C16.9062 1.07188 19.85 0.5 23 0.5C26.15 0.5 29.0938 1.07188 31.8313 2.21563C34.5688 3.35938 36.95 4.94375 38.975 6.96875C41 8.99375 42.5938 11.3656 43.7563 14.0844C44.9188 16.8031 45.5 19.7375 45.5 22.8875C45.5 26.0375 44.9188 28.9906 43.7563 31.7469C42.5938 34.5031 41 36.8938 38.975 38.9188C36.95 40.9438 34.5688 42.5469 31.8313 43.7281C29.0938 44.9094 26.15 45.5 23 45.5ZM31.8875 14.5625H40.325C39.0875 11.975 37.3906 9.81875 35.2344 8.09375C33.0781 6.36875 30.5938 5.15 27.7812 4.4375C28.7188 5.825 29.5156 7.325 30.1719 8.9375C30.8281 10.55 31.4 12.425 31.8875 14.5625ZM17.6 14.5625H28.5125C28.1 12.575 27.4062 10.6531 26.4312 8.79688C25.4562 6.94063 24.3125 5.3 23 3.875C21.8 4.8875 20.7875 6.21875 19.9625 7.86875C19.1375 9.51875 18.35 11.75 17.6 14.5625ZM4.55 28.0063H13.4938C13.3813 26.9938 13.3156 26.0844 13.2969 25.2781C13.2781 24.4719 13.2688 23.675 13.2688 22.8875C13.2688 21.95 13.2875 21.1156 13.325 20.3844C13.3625 19.6531 13.4375 18.8375 13.55 17.9375H4.55C4.2875 18.8375 4.10938 19.6437 4.01562 20.3562C3.92188 21.0688 3.875 21.9125 3.875 22.8875C3.875 23.8625 3.92188 24.7344 4.01562 25.5031C4.10938 26.2719 4.2875 27.1063 4.55 28.0063ZM18.2188 41.5625C17.2812 40.1375 16.475 38.6 15.8 36.95C15.125 35.3 14.5625 33.4438 14.1125 31.3813H5.675C7.1 34.0438 8.75 36.1344 10.625 37.6531C12.5 39.1719 15.0312 40.475 18.2188 41.5625ZM5.675 14.5625H14.1687C14.5812 12.5375 15.1062 10.7281 15.7437 9.13438C16.3812 7.54063 17.1875 5.99375 18.1625 4.49375C15.35 5.20625 12.8937 6.40625 10.7937 8.09375C8.69375 9.78125 6.9875 11.9375 5.675 14.5625ZM23 42.2375C24.3125 40.8875 25.4094 39.3406 26.2906 37.5969C27.1719 35.8531 27.8938 33.7812 28.4563 31.3813H17.6C18.125 33.6313 18.8281 35.6562 19.7094 37.4562C20.5906 39.2562 21.6875 40.85 23 42.2375ZM16.9812 28.0063H29.075C29.225 26.8438 29.3188 25.8969 29.3562 25.1656C29.3937 24.4344 29.4125 23.675 29.4125 22.8875C29.4125 22.1375 29.3937 21.4156 29.3562 20.7219C29.3188 20.0281 29.225 19.1 29.075 17.9375H16.9812C16.8312 19.1 16.7375 20.0281 16.7 20.7219C16.6625 21.4156 16.6438 22.1375 16.6438 22.8875C16.6438 23.675 16.6625 24.4344 16.7 25.1656C16.7375 25.8969 16.8312 26.8438 16.9812 28.0063ZM27.8375 41.5063C30.5375 40.6437 32.9656 39.35 35.1219 37.625C37.2781 35.9 39.0125 33.8188 40.325 31.3813H31.9438C31.4563 33.4062 30.8844 35.2437 30.2281 36.8937C29.5719 38.5437 28.775 40.0812 27.8375 41.5063ZM32.45 28.0063H41.45C41.7125 27.1063 41.8906 26.2719 41.9844 25.5031C42.0781 24.7344 42.125 23.8625 42.125 22.8875C42.125 21.9125 42.0781 21.0688 41.9844 20.3562C41.8906 19.6437 41.7125 18.8375 41.45 17.9375H32.5063C32.6188 19.25 32.6938 20.2531 32.7313 20.9469C32.7688 21.6406 32.7875 22.2875 32.7875 22.8875C32.7875 23.7125 32.7594 24.4906 32.7031 25.2219C32.6469 25.9531 32.5625 26.8813 32.45 28.0063Z" fill="#373737"/>
</svg>
