<svg width="24" height="24" viewBox="0 0 24 24" fill="none" xmlns="http://www.w3.org/2000/svg">
<circle cx="12" cy="12" r="12" fill="#635EA3"/>
<path d="M17.5671 8.79048C17.8337 9.82998 17.8337 12 17.8337 12C17.8337 12 17.8337 14.17 17.5671 15.2095C17.4189 15.7841 16.9855 16.2361 16.4366 16.389C15.4397 16.6666 12.0003 16.6666 12.0003 16.6666C12.0003 16.6666 8.56274 16.6666 7.56408 16.389C7.01283 16.2338 6.57999 15.7823 6.43358 15.2095C6.16699 14.17 6.16699 12 6.16699 12C6.16699 12 6.16699 9.82998 6.43358 8.79048C6.58174 8.2159 7.01516 7.76381 7.56408 7.61098C8.56274 7.33331 12.0003 7.33331 12.0003 7.33331C12.0003 7.33331 15.4397 7.33331 16.4366 7.61098C16.9878 7.76615 17.4207 8.21765 17.5671 8.79048V8.79048ZM10.8337 14.0416L14.3337 12L10.8337 9.95831V14.0416Z" fill="white"/>
</svg>
